SplineFontDB: 3.2
FontName: kiranbuilder
FullName: kiranbuilder
FamilyName: kiranbuilder
Weight: Regular
Copyright: Copyright (c) 2023, alifeee
UComments: "2023-12-2: Created with FontForge (http://fontforge.org)"
Version: 001.000
ItalicAngle: 0
UnderlinePosition: -102
UnderlineWidth: 51
Ascent: 819
Descent: 205
InvalidEm: 0
LayerCount: 2
Layer: 0 0 "Back" 1
Layer: 1 0 "Fore" 0
XUID: [1021 879 838727349 28343]
StyleMap: 0x0000
FSType: 0
OS2Version: 0
OS2_WeightWidthSlopeOnly: 0
OS2_UseTypoMetrics: 1
CreationTime: 1701545255
ModificationTime: 1701551656
OS2TypoAscent: 0
OS2TypoAOffset: 1
OS2TypoDescent: 0
OS2TypoDOffset: 1
OS2TypoLinegap: 92
OS2WinAscent: 0
OS2WinAOffset: 1
OS2WinDescent: 0
OS2WinDOffset: 1
HheadAscent: 0
HheadAOffset: 1
HheadDescent: 0
HheadDOffset: 1
MarkAttachClasses: 1
DEI: 91125
Encoding: ISO8859-1
UnicodeInterp: none
NameList: AGL For New Fonts
DisplaySize: -48
AntiAlias: 1
FitToEm: 0
WinInfo: 0 22 8
BeginPrivate: 0
EndPrivate
BeginChars: 256 28

StartChar: K
Encoding: 75 75 0
Width: 537
Flags: W
VStem: 18.2461 112.62<453.697 766.033> 27.2988 104.291<453.173 788.66> 38.1631 176.352<322.991 383.284> 44.3193 62.6465<765.852 801.618> 55.1826 107.007<17.2343 321.13> 70.5732 91.6162<5.95425 134.507> 395.576 18.8301<761 764.571>
LayerCount: 2
Fore
SplineSet
96.64453125 815.65625 m 0x12
 98.0927734375 816.559570312 100.991210938 816.743164062 102.982421875 815.836914062 c 0
 106.2421875 814.750976562 106.784179688 812.940429688 106.965820312 802.981445312 c 0x12
 107.147460938 794.833984375 108.594726562 788.31640625 112.03515625 780.892578125 c 0
 114.5703125 775.279296875 117.10546875 767.131835938 117.829101562 762.786132812 c 0
 118.373046875 758.622070312 119.639648438 752.647460938 120.544921875 749.569335938 c 0
 122.356445312 743.775390625 128.150390625 681.671875 128.150390625 667.368164062 c 0
 128.150390625 662.840820312 129.41796875 636.40625 130.866210938 608.5234375 c 0x82
 132.676757812 570.86328125 132.857421875 552.212890625 131.58984375 536.099609375 c 0x42
 129.779296875 515.458984375 130.140625 472.365234375 132.314453125 459.330078125 c 2
 133.21875 453.172851562 l 1
 141.004882812 460.778320312 l 2
 145.168945312 464.760742188 149.15234375 468.202148438 150.05859375 468.202148438 c 0
 151.325195312 468.202148438 156.577148438 472.547851562 166.897460938 482.32421875 c 0
 169.25 484.497070312 171.603515625 486.306640625 172.147460938 486.306640625 c 0
 173.415039062 486.306640625 176.853515625 489.205078125 188.443359375 499.70703125 c 0
 193.875 504.594726562 198.762695312 508.034179688 199.48828125 507.491210938 c 0
 200.03125 506.766601562 201.48046875 508.034179688 202.565429688 510.388671875 c 0
 203.65234375 512.560546875 206.368164062 515.095703125 208.72265625 516.181640625 c 0
 210.89453125 517.087890625 212.705078125 518.716796875 212.705078125 519.803710938 c 0
 212.705078125 520.890625 215.6015625 524.330078125 219.041992188 527.409179688 c 0
 222.482421875 530.66796875 225.379882812 534.469726562 225.379882812 536.099609375 c 0
 225.379882812 537.547851562 226.647460938 538.815429688 228.094726562 538.815429688 c 0
 229.723632812 538.815429688 231.35546875 540.08203125 231.8984375 541.53125 c 0
 232.622070312 542.978515625 234.0703125 544.247070312 235.517578125 544.247070312 c 0
 236.966796875 544.247070312 238.053710938 545.15234375 238.053710938 546.418945312 c 0
 238.053710938 547.685546875 242.217773438 552.938476562 247.467773438 558.188476562 c 0
 253.08203125 563.982421875 257.06640625 569.4140625 257.06640625 571.94921875 c 0
 257.06640625 574.844726562 258.151367188 575.931640625 261.228515625 575.751953125 c 0
 264.849609375 575.5703125 265.212890625 576.293945312 264.125976562 581.7265625 c 0
 263.220703125 586.251953125 263.763671875 587.881835938 266.118164062 588.788085938 c 0
 267.928710938 589.510742188 269.919921875 588.96875 270.825195312 587.51953125 c 0
 272.092773438 585.708984375 272.455078125 587.338867188 272.092773438 592.227539062 c 0
 271.731445312 597.840820312 272.275390625 599.469726562 274.447265625 599.469726562 c 0
 278.791992188 599.469726562 283.5 605.083007812 282.05078125 608.704101562 c 0
 281.146484375 611.057617188 281.508789062 611.6015625 283.861328125 610.6953125 c 0
 286.034179688 609.790039062 286.940429688 610.514648438 286.940429688 613.049804688 c 0
 286.940429688 615.764648438 288.026367188 616.490234375 290.922851562 616.127929688 c 0
 294.724609375 615.764648438 295.087890625 616.490234375 295.087890625 623.913085938 c 0
 295.087890625 630.61328125 295.810546875 632.060546875 298.708007812 632.60546875 c 0
 304.322265625 633.690429688 306.857421875 636.587890625 305.951171875 640.932617188 c 0
 305.225585938 643.467773438 307.038085938 646.908203125 311.383789062 651.796875 c 0
 314.823242188 655.598632812 317.719726562 659.9453125 317.719726562 661.392578125 c 0
 317.719726562 662.840820312 320.978515625 667.005859375 324.962890625 670.446289062 c 0
 329.489257812 674.610351562 332.204101562 678.592773438 332.204101562 681.30859375 c 0
 332.204101562 687.284179688 338.904296875 699.958007812 342.163085938 699.958007812 c 0
 343.611328125 699.958007812 344.87890625 701.587890625 344.87890625 703.400390625 c 0
 344.87890625 705.390625 347.233398438 708.649414062 350.309570312 710.822265625 c 0
 353.208007812 712.995117188 356.28515625 716.796875 356.829101562 719.512695312 c 0
 357.552734375 722.228515625 359.001953125 725.48828125 360.087890625 726.935546875 c 0
 361.174804688 728.384765625 363.346679688 732.188476562 364.9765625 735.447265625 c 0
 367.874023438 741.96484375 384.53125 755.543945312 391.412109375 757.173828125 c 0
 393.764648438 757.8984375 395.576171875 758.983398438 395.576171875 759.889648438 c 0
 395.576171875 760.794921875 397.024414062 761.518554688 399.015625 761.518554688 c 0
 400.827148438 761.518554688 403.362304688 762.786132812 404.62890625 764.235351562 c 0
 405.896484375 765.68359375 408.0703125 766.952148438 409.3359375 766.952148438 c 0
 410.78515625 766.952148438 411.872070312 767.856445312 411.872070312 769.124023438 c 0
 411.872070312 772.926757812 414.224609375 768.943359375 414.40625 764.778320312 c 0
 414.587890625 761.157226562 415.493164062 760.61328125 420.743164062 761.157226562 c 0
 425.26953125 761.518554688 426.899414062 760.794921875 427.624023438 758.079101562 c 0
 428.709960938 753.551757812 433.055664062 751.922851562 434.322265625 755.543945312 c 0
 435.228515625 757.717773438 435.952148438 757.8984375 438.125 756.086914062 c 0
 442.108398438 752.647460938 446.815429688 755.181640625 445.3671875 760.0703125 c 0
 444.462890625 763.873046875 444.82421875 763.692382812 448.626953125 758.983398438 c 0
 452.790039062 754.276367188 453.333984375 754.094726562 456.956054688 756.450195312 c 0
 458.947265625 757.8984375 460.21484375 759.708984375 459.490234375 760.250976562 c 0
 458.947265625 760.9765625 459.30859375 761.518554688 460.39453125 761.518554688 c 0
 463.47265625 761.518554688 463.111328125 757.8984375 459.671875 754.094726562 c 0
 457.135742188 751.19921875 457.135742188 750.65625 459.671875 746.671875 c 0
 461.30078125 744.137695312 462.024414062 741.784179688 461.481445312 741.057617188 c 0
 460.7578125 740.334960938 461.663085938 737.798828125 463.291992188 735.447265625 c 0
 466.9140625 729.833007812 467.094726562 721.141601562 463.654296875 714.805664062 c 0
 462.387695312 712.08984375 460.39453125 706.658203125 459.30859375 702.673828125 c 0
 453.333984375 679.861328125 443.013671875 656.685546875 436.495117188 651.072265625 c 0
 434.865234375 649.8046875 433.598632812 647.26953125 433.598632812 645.458984375 c 0
 433.598632812 643.649414062 431.96875 641.657226562 429.9765625 641.11328125 c 0
 427.986328125 640.571289062 425.451171875 638.216796875 424.364257812 636.044921875 c 0
 423.279296875 633.87109375 420.923828125 630.430664062 419.11328125 628.440429688 c 0
 417.303710938 626.447265625 415.310546875 623.0078125 414.587890625 620.654296875 c 0
 414.044921875 618.481445312 411.508789062 614.498046875 408.973632812 612.14453125 c 0
 406.62109375 609.790039062 404.62890625 606.169921875 404.62890625 604.359375 c 0
 404.62890625 602.368164062 403.1796875 598.926757812 401.188476562 596.573242188 c 0
 399.37890625 594.219726562 397.38671875 590.41796875 396.663085938 588.424804688 c 0
 395.938476562 586.251953125 392.677734375 581.364257812 389.057617188 577.743164062 c 0
 385.618164062 574.122070312 381.272460938 567.965820312 379.28125 564.34375 c 0
 377.469726562 560.54296875 374.572265625 556.55859375 373.124023438 555.291015625 c 0
 371.494140625 553.842773438 370.227539062 551.669921875 370.227539062 550.221679688 c 0
 370.227539062 548.7734375 366.245117188 542.618164062 361.174804688 536.4609375 c 0
 356.28515625 530.3046875 352.122070312 523.967773438 352.122070312 522.157226562 c 0
 352.122070312 520.346679688 349.767578125 516.364257812 346.870117188 513.103515625 c 0
 344.154296875 509.844726562 341.077148438 505.137695312 340.534179688 502.6015625 c 0
 337.456054688 492.283203125 333.110351562 485.40234375 322.969726562 475.262695312 c 0
 317.17578125 469.467773438 310.83984375 464.580078125 309.029296875 464.580078125 c 0
 307.217773438 464.580078125 301.966796875 462.2265625 297.259765625 459.1484375 c 0
 292.551757812 456.251953125 287.6640625 453.715820312 286.577148438 453.715820312 c 0
 285.491210938 453.715820312 278.791992188 447.741210938 271.731445312 440.499023438 c 0
 264.669921875 433.439453125 248.916992188 417.866210938 236.60546875 406.280273438 c 0
 224.473632812 394.69140625 214.514648438 384.370117188 214.514648438 383.284179688 c 0x22
 214.514648438 382.198242188 223.206054688 373.869140625 234.0703125 364.634765625 c 0
 251.814453125 349.245117188 270.282226562 332.407226562 280.6015625 321.905273438 c 0
 282.775390625 319.732421875 285.309570312 317.920898438 286.034179688 317.920898438 c 0
 286.940429688 317.920898438 291.103515625 314.30078125 295.450195312 309.774414062 c 0
 299.614257812 305.248046875 303.958984375 301.625 305.044921875 301.625 c 0
 306.131835938 301.625 307.760742188 299.453125 308.66796875 296.91796875 c 0
 310.116210938 293.297851562 311.01953125 292.573242188 312.83203125 294.202148438 c 0
 314.642578125 295.650390625 316.815429688 294.565429688 321.522460938 289.674804688 c 0
 324.962890625 286.0546875 329.669921875 282.071289062 332.384765625 280.803710938 c 0
 334.919921875 279.537109375 338.54296875 275.373046875 340.3515625 271.932617188 c 0
 342.34375 268.310546875 345.241210938 265.051757812 346.690429688 264.508789062 c 0
 348.319335938 263.96484375 351.397460938 261.068359375 353.5703125 258.170898438 c 0
 357.915039062 252.377929688 371.676757812 242.599609375 389.057617188 233.184570312 c 0
 400.646484375 226.84765625 413.500976562 217.975585938 423.279296875 209.647460938 c 0
 436.1328125 198.784179688 457.6796875 177.237304688 460.39453125 172.711914062 c 0
 461.84375 169.99609375 464.740234375 167.459960938 466.55078125 167.09765625 c 0
 468.723632812 166.5546875 472.70703125 160.21875 477.233398438 150.259765625 c 0
 481.216796875 141.569335938 487.010742188 131.428710938 489.908203125 127.989257812 c 0
 492.805664062 124.369140625 495.158203125 120.74609375 495.158203125 119.841796875 c 0
 495.158203125 118.754882812 497.33203125 115.676757812 500.047851562 112.9609375 c 0
 503.848632812 108.977539062 504.211914062 107.891601562 501.858398438 107.891601562 c 0
 497.512695312 107.891601562 498.055664062 104.451171875 503.306640625 99.5615234375 c 0
 506.747070312 96.302734375 507.65234375 93.767578125 507.471679688 87.25 c 0
 507.471679688 81.8193359375 506.56640625 78.7421875 504.575195312 78.0166015625 c 0
 502.401367188 77.2919921875 502.219726562 75.119140625 502.9453125 67.876953125 c 0
 504.03125 59.548828125 503.848632812 58.642578125 500.772460938 59.548828125 c 0
 498.78125 59.91015625 496.065429688 58.8232421875 494.434570312 57.013671875 c 0
 492.805664062 55.0224609375 490.26953125 53.57421875 488.822265625 53.57421875 c 0
 487.010742188 53.57421875 486.106445312 51.9443359375 486.106445312 48.8662109375 c 0
 486.106445312 44.521484375 485.563476562 44.33984375 481.216796875 45.4248046875 c 0
 478.3203125 45.96875 475.966796875 47.4169921875 475.603515625 48.3232421875 c 0
 474.337890625 51.7626953125 471.983398438 49.771484375 472.888671875 46.150390625 c 0
 473.793945312 42.890625 473.431640625 42.5283203125 469.810546875 43.615234375 c 0
 464.740234375 45.244140625 446.634765625 48.3232421875 441.383789062 48.5029296875 c 0
 439.2109375 48.5029296875 437.0390625 49.58984375 436.495117188 51.0390625 c 0
 435.047851562 54.66015625 432.331054688 54.1162109375 427.8046875 49.58984375 c 0
 424.182617188 45.96875 423.822265625 45.96875 421.649414062 49.046875 c 0
 420.200195312 50.857421875 418.571289062 51.9443359375 418.02734375 51.21875 c 0
 417.303710938 50.67578125 414.587890625 51.21875 411.690429688 52.66796875 c 0
 408.973632812 54.1162109375 405.353515625 54.841796875 403.723632812 54.2978515625 c 0
 401.0078125 53.2119140625 386.522460938 61.359375 386.522460938 64.0751953125 c 0
 386.522460938 64.798828125 383.98828125 66.427734375 381.090820312 67.876953125 c 0
 378.012695312 69.1435546875 374.029296875 72.4033203125 372.400390625 74.939453125 c 0
 370.76953125 77.6552734375 366.245117188 82.54296875 362.442382812 85.8017578125 c 0
 358.8203125 89.2412109375 355.743164062 92.8642578125 355.743164062 93.767578125 c 0
 355.743164062 94.85546875 353.751953125 97.2099609375 351.215820312 99.201171875 c 0
 348.319335938 101.373046875 346.327148438 105.357421875 345.602539062 109.702148438 c 0
 344.87890625 114.227539062 343.069335938 117.306640625 340.3515625 118.754882812 c 0
 338.178710938 120.0234375 333.291015625 124.911132812 329.489257812 129.799804688 c 0
 325.685546875 134.869140625 321.340820312 139.578125 319.7109375 140.482421875 c 0
 311.564453125 144.827148438 271.006835938 185.0234375 260.325195312 199.327148438 c 0
 253.624023438 208.37890625 240.588867188 224.674804688 231.171875 235.5390625 c 0
 221.7578125 246.583984375 208.72265625 261.79296875 202.022460938 269.758789062 c 0
 195.504882812 277.544921875 188.443359375 285.330078125 186.631835938 286.958984375 c 0
 184.822265625 288.58984375 175.587890625 296.737304688 166.171875 305.248046875 c 0
 156.756835938 313.756835938 148.06640625 321 147.162109375 321.361328125 c 0
 145.712890625 321.723632812 145.532226562 319.189453125 146.435546875 313.213867188 c 0
 146.98046875 308.326171875 148.428710938 290.0390625 149.333984375 272.657226562 c 0
 150.419921875 255.275390625 151.688476562 239.703125 152.231445312 238.254882812 c 0
 157.482421875 223.951171875 165.810546875 149.172851562 163.637695312 135.05078125 c 0
 162.913085938 129.618164062 162.189453125 112.418945312 162.189453125 97.0283203125 c 0x0a
 162.008789062 81.63671875 161.102539062 63.712890625 160.015625 57.1943359375 c 0
 158.9296875 50.67578125 157.663085938 43.072265625 157.482421875 39.994140625 c 0
 156.756835938 31.1220703125 153.318359375 16.63671875 150.239257812 8.8505859375 c 0
 147.704101562 2.3330078125 146.435546875 1.427734375 138.65234375 -0.3828125 c 0
 132.314453125 -1.8310546875 126.338867188 -1.8310546875 118.373046875 -0.5634765625 c 0
 112.216796875 0.341796875 106.059570312 0.884765625 104.612304688 0.341796875 c 0
 103.1640625 -0.2021484375 101.715820312 0.5234375 101.171875 1.9716796875 c 0
 100.448242188 3.419921875 97.0068359375 5.2314453125 93.205078125 5.7734375 c 0
 84.513671875 7.2216796875 80.349609375 10.84375 74.91796875 22.0693359375 c 0
 71.8408203125 28.5869140625 70.75390625 34.380859375 70.5732421875 43.9765625 c 0x06
 70.390625 52.125 69.3046875 58.4619140625 67.4951171875 61.177734375 c 0
 61.51953125 70.2314453125 55.1826171875 89.2412109375 55.1826171875 97.9326171875 c 0x0a
 55.1826171875 102.821289062 54.4580078125 109.521484375 53.373046875 112.780273438 c 0
 52.4658203125 116.0390625 50.6572265625 121.470703125 49.75 124.911132812 c 0
 48.6640625 128.350585938 47.3984375 138.670898438 46.853515625 147.905273438 c 0
 45.94921875 162.93359375 43.95703125 268.310546875 44.3193359375 288.408203125 c 0x12
 44.3193359375 292.573242188 43.232421875 297.099609375 42.146484375 298.366210938 c 0
 39.068359375 301.625 38.88671875 302.532226562 38.1630859375 322.991210938 c 0x22
 37.6201171875 332.586914062 36.533203125 343.451171875 35.6279296875 346.890625 c 0
 33.998046875 352.684570312 32.732421875 367.350585938 28.205078125 441.04296875 c 0
 27.298828125 455.52734375 26.9365234375 481.23828125 27.298828125 498.076171875 c 0x42
 27.8427734375 515.095703125 27.48046875 533.745117188 26.3935546875 539.719726562 c 0
 20.2392578125 577.560546875 19.15234375 590.779296875 18.24609375 636.587890625 c 0x82
 17.703125 663.926757812 16.435546875 691.266601562 15.3486328125 697.2421875 c 0
 10.822265625 724.583984375 15.7119140625 770.209960938 22.7734375 765.865234375 c 0
 23.677734375 765.322265625 24.40234375 766.587890625 24.40234375 768.581054688 c 0
 24.40234375 771.115234375 25.849609375 772.3828125 29.47265625 772.744140625 c 0
 33.0927734375 773.107421875 34.541015625 774.375 34.904296875 777.815429688 c 0
 35.265625 780.16796875 37.6201171875 784.15234375 39.9736328125 786.32421875 c 0
 42.3271484375 788.497070312 44.3193359375 791.575195312 44.3193359375 792.842773438 c 0
 44.3193359375 795.919921875 48.12109375 797.731445312 54.27734375 797.731445312 c 0
 56.6318359375 797.731445312 59.166015625 798.635742188 59.708984375 799.541992188 c 0
 60.251953125 800.627929688 62.607421875 801.3515625 64.958984375 801.3515625 c 0
 67.6748046875 801.3515625 69.84765625 802.981445312 71.296875 806.060546875 c 0
 72.9267578125 809.862304688 74.193359375 810.5859375 77.81640625 809.680664062 c 0
 81.0751953125 808.776367188 82.7041015625 809.3203125 83.4267578125 811.310546875 c 0
 84.15234375 812.758789062 86.6865234375 814.02734375 89.40234375 814.02734375 c 0
 91.9384765625 814.02734375 95.197265625 814.750976562 96.64453125 815.65625 c 0x12
  Spiro
    96.6454 815.656 o
    98.4871 816.306 o
    100.778 816.393 o
    102.982 815.837 o
    105.421 814.236 o
    106.577 810.493 o
    106.966 802.981 o
    107.595 795.29 o
    109.235 788.1 o
    112.035 780.892 o
    114.501 774.675 o
    116.57 768.158 o
    117.829 762.786 o
    118.573 758.197 o
    119.561 753.434 o
    120.545 749.569 o
    123.318 728.892 o
    126.583 693.714 o
    128.15 667.368 o
    128.531 656.313 o
    129.519 635.141 o
    130.866 608.522 o
    132.139 576.616 o
    132.367 553.649 o
    131.59 536.099 o
    130.49 509.948 o
    130.759 480.412 o
    132.314 459.329 [
    133.219 453.173 v
    141.005 460.777 ]
    144.998 464.469 o
    148.236 467.164 o
    150.058 468.201 o
    152.689 469.687 o
    158.233 474.323 o
    166.897 482.324 o
    169.181 484.32 o
    171.069 485.758 o
    172.148 486.307 o
    174.357 487.444 o
    179.356 491.57 o
    188.443 499.705 o
    193.555 504.014 o
    197.512 506.802 o
    199.487 507.491 o
    200.284 507.397 o
    201.407 508.431 o
    202.566 510.388 o
    204.12 512.612 o
    206.323 514.682 o
    208.721 516.182 o
    210.718 517.28 o
    212.156 518.584 o
    212.704 519.803 o
    213.581 521.571 o
    215.873 524.312 o
    219.042 527.408 o
    222.211 530.744 o
    224.502 533.848 o
    225.379 536.099 o
    225.761 537.445 o
    226.748 538.433 o
    228.095 538.815 o
    229.683 539.196 o
    231.034 540.184 o
    231.897 541.53 o
    232.835 542.877 o
    234.098 543.865 o
    235.518 544.246 o
    236.818 544.527 o
    237.719 545.294 o
    238.053 546.419 o
    239.325 548.863 o
    242.698 553.09 o
    247.468 558.188 o
    252.447 563.762 o
    255.826 568.546 o
    257.065 571.949 o
    257.459 574.26 o
    258.783 575.49 o
    261.229 575.751 o
    263.829 576.012 o
    264.662 577.725 o
    264.126 581.726 o
    263.717 585.364 o
    264.355 587.561 o
    266.118 588.787 o
    267.94 589.102 o
    269.606 588.652 o
    270.825 587.52 o
    271.797 586.849 o
    272.207 588.434 o
    272.093 592.227 o
    272.059 596.596 o
    272.791 598.841 o
    274.446 599.47 o
    278.667 601.056 o
    281.691 604.705 o
    282.051 608.704 o
    281.595 610.466 o
    282.146 611.105 o
    283.861 610.695 o
    285.624 610.34 o
    286.625 611.113 o
    286.939 613.049 o
    287.328 615.133 o
    288.604 616.094 o
    290.923 616.127 o
    293.69 616.334 o
    294.853 618.518 o
    295.087 623.913 o
    295.382 629.019 o
    296.484 631.6 o
    298.709 632.604 o
    303.278 634.278 o
    305.724 637.087 o
    305.951 640.932 o
    306.071 643.786 o
    307.885 647.374 o
    311.383 651.796 o
    314.552 655.648 o
    316.843 659.109 o
    317.72 661.393 o
    318.711 663.616 o
    321.318 666.895 o
    324.962 670.445 o
    328.848 674.505 o
    331.334 678.214 o
    332.204 681.309 o
    334.059 688.791 o
    338.137 696.457 o
    342.163 699.958 o
    343.51 700.447 o
    344.497 701.703 o
    344.879 703.398 o
    345.602 705.723 o
    347.537 708.377 o
    350.311 710.822 o
    353.165 713.434 o
    355.543 716.539 o
    356.829 719.513 o
    357.753 722.32 o
    358.922 724.974 o
    360.088 726.936 o
    361.475 729.059 o
    363.228 732.116 o
    364.977 735.446 o
    371.579 743.605 o
    382.154 752.272 o
    391.411 757.173 o
    393.535 757.997 o
    395.02 758.944 o
    395.576 759.889 o
    396.024 760.713 o
    397.24 761.298 o
    399.016 761.519 o
    400.992 761.9 o
    403.014 762.888 o
    404.629 764.235 o
    406.129 765.581 o
    407.836 766.569 o
    409.336 766.95 o
    410.636 767.232 o
    411.536 767.998 o
    411.871 769.123 o
    412.487 770.612 o
    413.669 768.597 o
    414.406 764.778 o
    414.962 762.11 o
    416.809 761.049 o
    420.743 761.156 o
    424.375 761.123 o
    426.525 760.163 o
    427.623 758.079 o
    429.559 754.607 o
    432.266 753.586 o
    434.322 755.544 o
    435.227 757.052 o
    436.376 757.233 o
    438.125 756.087 o
    442.091 754.504 o
    445.02 756.103 o
    445.368 760.07 o
    444.965 762.523 o
    445.892 762.201 o
    448.627 758.984 o
    451.829 755.713 o
    454.114 755.014 o
    456.955 756.449 o
    458.657 757.956 o
    459.598 759.347 o
    459.49 760.251 o
    459.242 760.901 o
    459.557 761.351 o
    460.395 761.519 o
    462.339 760.441 o
    462.07 757.706 o
    459.671 754.095 o
    457.982 751.77 o
    457.982 749.721 o
    459.671 746.672 o
    460.984 744.253 o
    461.616 742.271 o
    461.481 741.059 o
    461.267 739.806 o
    461.939 737.784 o
    463.292 735.446 o
    465.759 729.016 o
    465.893 721.718 o
    463.654 714.805 o
    462.207 711.342 o
    460.635 706.982 o
    459.309 702.674 o
    452.195 680.425 o
    443.971 661.86 o
    436.495 651.072 o
    435.021 649.458 o
    433.986 647.435 o
    433.598 645.459 o
    433.103 643.65 o
    431.799 642.078 o
    429.977 641.113 o
    427.88 640.042 o
    425.858 638.201 o
    424.364 636.044 o
    422.924 633.552 o
    421.036 630.811 o
    419.113 628.439 o
    417.298 626.061 o
    415.679 623.273 o
    414.587 620.654 o
    413.455 618.008 o
    411.433 614.91 o
    408.974 612.144 o
    406.803 609.485 o
    405.231 606.656 o
    404.629 604.359 o
    404.18 601.981 o
    402.964 599.192 o
    401.188 596.572 o
    399.373 593.86 o
    397.754 590.897 o
    396.662 588.425 o
    395.176 585.498 o
    392.475 581.634 o
    389.057 577.743 o
    385.44 573.469 o
    381.933 568.618 o
    379.28 564.344 o
    377.204 560.592 o
    374.959 557.354 o
    373.124 555.291 o
    371.65 553.657 o
    370.615 551.856 o
    370.227 550.221 o
    369.009 547.382 o
    365.77 542.437 o
    361.174 536.461 o
    356.659 530.424 o
    353.38 525.298 o
    352.121 522.157 o
    351.405 519.732 o
    349.517 516.494 o
    346.87 513.104 o
    344.144 509.5 o
    341.812 505.724 o
    340.534 502.602 o
    336.87 493.189 o
    331.339 484.555 o
    322.97 475.262 o
    317.189 469.922 o
    312.156 466.059 o
    309.029 464.58 o
    306.223 463.857 o
    301.996 461.922 o
    297.26 459.148 o
    292.644 456.454 o
    288.78 454.479 o
    286.577 453.716 o
    283.819 451.902 o
    278.47 447.138 o
    271.73 440.499 o
    262.233 431.075 o
    249.601 418.718 o
    236.604 406.278 o
    225.496 395.418 o
    217.541 387.147 o
    214.516 383.284 o
    217.166 380.023 o
    224.181 373.324 o
    234.07 364.634 o
    251.709 349.065 o
    267.909 334.216 o
    280.602 321.905 o
    282.813 319.908 o
    284.788 318.47 o
    286.034 317.921 o
    287.909 316.816 o
    291.282 313.894 o
    295.45 309.773 o
    299.543 305.653 o
    303.003 302.73 o
    305.045 301.625 o
    306.264 300.969 o
    307.568 299.263 o
    308.667 296.918 o
    309.987 294.244 o
    311.27 293.377 o
    312.831 294.202 o
    314.841 294.759 o
    317.582 293.341 o
    321.522 289.675 o
    325.26 286.051 o
    329.13 282.86 o
    332.386 280.804 o
    335.172 278.708 o
    338.048 275.476 o
    340.352 271.932 o
    342.556 268.522 o
    344.847 265.867 o
    346.689 264.508 o
    348.712 263.27 o
    351.185 260.978 o
    353.57 258.171 o
    360.829 251.218 o
    373.112 242.551 o
    389.057 233.184 o
    400.895 226.124 o
    412.647 218.034 o
    423.278 209.647 o
    437.995 196.263 o
    452.434 181.871 o
    460.395 172.711 o
    462.23 170.131 o
    464.475 168.109 o
    466.552 167.098 o
    469.278 164.708 o
    472.939 158.923 o
    477.234 150.259 o
    481.642 141.396 o
    486.224 133.353 o
    489.908 127.989 o
    492.555 124.471 o
    494.442 121.549 o
    495.159 119.841 o
    495.821 118.18 o
    497.575 115.708 o
    500.047 112.961 o
    502.728 109.878 o
    503.279 108.32 o
    501.858 107.891 o
    499.137 106.82 o
    499.634 103.89 o
    503.306 99.562 o
    505.953 96.3734 o
    507.237 92.6107 o
    507.471 87.2505 o
    507.163 82.6071 o
    506.209 79.5228 o
    504.574 78.0164 o
    503.026 76.6769 o
    502.562 73.5589 o
    502.945 67.8768 o
    503.548 61.8187 o
    502.943 59.4533 o
    500.772 59.5483 o
    498.608 59.4545 o
    496.357 58.5541 o
    494.435 57.0131 o
    492.579 55.2375 o
    490.557 54.0216 o
    488.822 53.5733 o
    487.314 53.0379 o
    486.407 51.452 o
    486.106 48.8654 o
    485.805 45.8028 o
    484.414 44.8688 o
    481.217 45.4256 o
    478.557 46.2157 o
    476.575 47.2906 o
    475.604 48.3222 o
    474.137 50.0923 o
    472.908 49.0847 o
    472.888 46.1495 o
    473.297 43.8039 o
    472.417 43.0645 o
    469.811 43.6144 o
    461.365 45.5638 o
    449.95 47.519 o
    441.384 48.503 o
    439.273 48.8377 o
    437.52 49.7381 o
    436.495 51.0381 o
    434.607 53.2772 o
    431.744 52.7799 o
    427.804 49.5894 o
    425.084 47.1568 o
    423.404 47.0156 o
    421.648 49.0462 o
    420.188 50.5743 o
    418.884 51.3806 o
    418.027 51.2189 o
    416.708 51.031 o
    414.457 51.5283 o
    411.69 52.6677 o
    408.783 53.8539 o
    405.907 54.4384 o
    403.723 54.2972 o
    398.064 55.7423 o
    390.372 60.0959 o
    386.522 64.0745 o
    385.759 65.0589 o
    383.784 66.4094 o
    381.091 67.8768 o
    377.835 69.705 o
    374.69 72.265 o
    372.4 74.9381 o
    369.942 78.2337 o
    366.347 82.1442 o
    362.442 85.8017 o
    359.098 89.1916 o
    356.673 92.0675 o
    355.743 93.7687 o
    355.134 95.2153 o
    353.514 97.1504 o
    351.216 99.2005 o
    348.636 101.92 o
    346.735 105.535 o
    345.603 109.702 o
    344.525 113.735 o
    342.757 116.772 o
    340.352 118.755 o
    337.418 121.092 o
    333.508 125.049 o
    329.488 129.799 o
    325.63 134.616 o
    322.122 138.44 o
    319.711 140.482 o
    303.09 154.47 o
    278.634 178.704 o
    260.324 199.327 o
    251.891 210.312 o
    241.416 223.347 o
    231.173 235.539 o
    220.93 247.536 o
    210.455 259.812 o
    202.023 269.759 o
    195.544 277.309 o
    189.974 283.511 o
    186.632 286.959 o
    182.621 290.528 o
    175.25 297.093 o
    166.173 305.247 o
    157.268 313.119 o
    150.395 318.918 o
    147.161 321.361 o
    146.129 320.739 o
    145.9 318.058 o
    146.436 313.214 o
    147.227 304.401 o
    148.302 289.793 o
    149.334 272.656 o
    150.446 256.348 o
    151.481 243.945 o
    152.231 238.255 o
    157.999 208.32 o
    162.816 164.864 o
    163.637 135.05 o
    162.941 126.21 o
    162.403 112.503 o
    162.189 97.0277 o
    161.787 81.3242 o
    161.021 66.9854 o
    160.016 57.1939 o
    158.917 50.5281 o
    157.977 44.3669 o
    157.482 39.9938 o
    155.968 29.7178 o
    153.321 18.4029 o
    150.239 8.85082 o
    147.841 3.96582 o
    144.548 1.36532 o
    138.651 -0.383252 o
    132.354 -1.35472 o
    125.755 -1.40169 o
    118.373 -0.564029 o
    112.396 0.193357 o
    107.451 0.549529 o
    104.612 0.341555 o
    103.198 0.200426 o
    101.982 0.784927 o
    101.172 1.9711 o
    99.6316 3.47817 o
    96.7959 4.86914 o
    93.2047 5.77336 o
    85.8145 8.14345 o
    80.1367 13.1832 o
    74.9182 22.0688 o
    72.4655 28.5065 o
    71.0947 35.4879 o
    70.5728 43.9768 o
    70.097 51.4472 o
    69.0554 57.3267 o
    67.4944 61.1778 o
    61.6523 72.7854 o
    57.0429 86.5658 o
    55.1821 97.9325 o
    54.9546 103.225 o
    54.3231 108.573 o
    53.3717 112.78 o
    52.2329 116.605 o
    50.8891 120.965 o
    49.7503 124.911 o
    48.6383 130.342 o
    47.6036 138.613 o
    46.8536 147.905 o
    45.7147 186.489 o
    44.6129 246.446 o
    44.3185 288.408 o
    43.9972 292.555 o
    43.1909 296.15 o
    42.1457 298.366 o
    39.9077 301.648 o
    38.8325 308.247 o
    38.1627 322.991 o
    37.4661 332.678 o
    36.5656 341.305 o
    35.6276 346.891 o
    33.9865 357.482 o
    31.7759 385.208 o
    28.2047 441.042 o
    27.4874 458.505 o
    27.1714 479.045 o
    27.2991 498.076 o
    27.5472 515.092 o
    27.2312 530.063 o
    26.3935 539.72 o
    21.7498 571.445 o
    19.3911 599.554 o
    18.2458 636.587 o
    17.4957 663.111 o
    16.4611 684.955 o
    15.3491 697.243 o
    13.692 728.118 o
    16.7088 756.102 o
    22.7728 765.864 o
    23.5967 765.884 o
    24.1814 766.871 o
    24.4024 768.58 o
    24.9109 770.704 o
    26.5502 772.068 o
    29.4718 772.745 o
    32.4068 773.454 o
    34.1403 775.053 o
    34.9036 777.814 o
    35.8545 780.58 o
    37.6954 783.678 o
    39.973 786.324 o
    42.144 788.695 o
    43.7162 791.074 o
    44.3185 792.842 o
    45.5299 795.475 o
    48.9636 797.149 o
    54.2773 797.731 o
    56.6086 797.999 o
    58.5841 798.67 o
    59.7091 799.541 o
    60.7872 800.493 o
    62.675 801.124 o
    64.9593 801.352 o
    67.4851 801.887 o
    69.6152 803.473 o
    71.2967 806.059 o
    72.9044 808.887 o
    74.8799 809.989 o
    77.8149 809.681 o
    80.5553 809.258 o
    82.3762 809.802 o
    83.4275 811.31 o
    84.6934 812.657 o
    86.8098 813.645 o
    89.4025 814.026 o
    92.0823 814.247 o
    94.6895 814.832 o
    0 0 z
  EndSpiro
EndSplineSet
Validated: 524321
EndChar

StartChar: zero
Encoding: 48 48 1
Width: 866
Flags: W
LayerCount: 2
Fore
SplineSet
366 795 m 0
 377 797 412 797 437 794 c 0
 451 793 474 791 488 790 c 0
 503 789 517 787 520 786 c 0
 523 785 531 782 539 780 c 0
 562 775 602 762 614 757 c 0
 620 754 633 748 643 744 c 0
 659 737 674 725 693 707 c 0
 697 703 707 691 715 680 c 0
 723 669 733 657 736 654 c 0
 741 649 751 634 761 619 c 0
 762 616 770 605 776 595 c 0
 787 578 803 537 803 526 c 0
 803 523 804 521 806 520 c 0
 811 519 818 484 818 466 c 0
 818 458 817 447 815 442 c 0
 813 437 809 414 805 392 c 0
 801 370 796 346 795 339 c 0
 792 324 771 259 766 251 c 0
 761 241 754 222 747 204 c 0
 744 194 736 180 731 174 c 0
 726 168 717 156 712 146 c 0
 707 137 700 129 698 128 c 0
 693 126 670 100 665 92 c 0
 663 88 657 82 653 80 c 0
 649 78 643 74 641 71 c 0
 634 61 613 48 595 40 c 0
 568 29 535 18 529 18 c 0
 526 18 523 17 521 15 c 0
 518 11 510 11 447 13 c 0
 440 13 434 11 431 8 c 0
 426 4 423 4 408 5 c 0
 398 6 386 9 381 11 c 0
 363 18 333 28 329 26 c 0
 327 25 322 27 318 30 c 0
 314 33 306 37 300 39 c 0
 284 44 248 58 231 66 c 0
 223 70 215 73 213 73 c 0
 212 73 209 76 207 79 c 0
 205 82 196 89 187 95 c 0
 178 101 161 114 151 124 c 0
 141 134 129 143 126 145 c 0
 122 147 119 151 119 154 c 0
 119 157 115 165 110 171 c 0
 101 181 92 197 85 215 c 0
 83 220 80 223 78 223 c 0
 76 223 74 227 74 233 c 0
 74 238 71 249 68 257 c 0
 63 268 62 273 63 288 c 0
 64 298 63 307 62 308 c 0
 61 309 59 314 57 320 c 0
 54 329 54 331 59 334 c 0
 65 338 67 352 62 355 c 0
 60 356 59 357 60 358 c 0
 61 359 65 380 69 405 c 0
 77 451 85 484 98 519 c 0
 102 530 108 544 110 550 c 0
 116 567 122 577 132 589 c 0
 137 595 143 602 144 605 c 0
 147 611 209 676 229 695 c 0
 238 703 252 716 261 725 c 0
 283 746 305 763 312 763 c 0
 316 763 319 764 319 768 c 0
 319 771 321 776 324 778 c 0
 327 780 330 783 330 785 c 0
 330 787 337 789 345 791 c 0
 353 792 363 794 366 795 c 0
412 655 m 0
 402 657 392 659 389 660 c 0
 380 662 356 657 349 653 c 0
 346 651 338 644 332 636 c 0
 325 627 317 620 311 618 c 0
 303 615 300 612 291 596 c 0
 285 585 277 573 272 568 c 0
 258 553 228 513 223 503 c 0
 209 475 203 449 200 402 c 0
 197 354 198 338 207 290 c 0
 212 265 223 241 235 233 c 0
 238 231 241 226 241 224 c 0
 241 222 243 220 245 220 c 0
 247 220 250 217 251 213 c 0
 253 205 270 192 277 192 c 0
 280 192 286 187 292 183 c 0
 308 171 325 166 372 157 c 0
 422 147 478 149 527 162 c 0
 552 169 563 175 575 190 c 0
 583 201 603 219 608 221 c 0
 611 222 612 225 611 228 c 0
 610 231 612 236 615 239 c 0
 618 242 621 246 621 248 c 0
 621 250 623 252 625 253 c 0
 631 255 651 296 654 310 c 0
 655 317 658 332 660 344 c 0
 662 356 666 381 668 398 c 0
 671 425 670 433 666 453 c 0
 652 524 635 557 591 593 c 0
 580 602 569 610 568 610 c 0
 567 610 563 612 560 615 c 0
 554 620 537 627 529 627 c 0
 526 627 522 630 519 634 c 0
 515 640 512 642 502 642 c 0
 495 642 485 644 479 646 c 0
 473 648 458 650 448 650 c 0
 438 650 422 653 412 655 c 0
EndSplineSet
Validated: 33
EndChar

StartChar: one
Encoding: 49 49 2
Width: 342
Flags: W
HStem: 614 2<170.954 171.908>
VStem: 109 102<17.5438 169.843> 117 108<170.093 538.762> 132 96<200.364 592.023> 163 6<615.953 616.57> 169 13<-3.81442 5.75854>
LayerCount: 2
Fore
SplineSet
163 614 m 0x88
 162 616 163 617 165 617 c 0
 166 617 168 615 169 613 c 0x84
 170 611 171 608 172 608 c 0
 175 608 173 614 171 614 c 0
 170 614 170 615 172 616 c 0
 176 618 182 616 186 612 c 0
 188 610 191 610 195 611 c 0
 198 612 200 611 200 610 c 0
 200 609 202 609 204 608 c 0
 206 607 207 606 207 602 c 0
 207 599 209 593 210 589 c 0
 211 585 213 579 213 576 c 0
 213 573 214 569 215 568 c 0
 216 567 219 563 222 559 c 0
 225 555 229 553 230 553 c 0
 233 553 232 501 230 477 c 0
 229 469 229 444 228 420 c 0x90
 227 396 227 365 226 350 c 0
 225 335 225 306 225 285 c 0
 225 264 225 238 225 226 c 0xa0
 224 172 224 126 223 110 c 0
 222 92 217 75 213 71 c 0
 212 70 211 68 211 65 c 0xc0
 211 58 206 42 203 37 c 0
 201 35 200 31 200 29 c 0
 200 27 199 25 198 24 c 0
 197 23 197 22 197 20 c 0
 197 18 195 16 193 15 c 0
 191 14 190 10 189 8 c 0
 188 6 186 4 185 4 c 0
 184 4 182 3 182 2 c 0
 182 -1 170 -7 169 -5 c 0x84
 168 -4 169 -2 170 -1 c 0
 173 2 172 4 168 4 c 0
 166 4 163 5 161 7 c 0
 154 14 152 15 149 12 c 0
 147 11 145 11 145 12 c 0
 145 13 144 15 143 16 c 0
 142 18 141 18 140 16 c 0
 139 14 137 14 132 16 c 0x90
 128 18 126 22 120 33 c 0
 111 50 110 59 109 94 c 0xc0
 108 109 106 125 105 129 c 0
 102 141 104 167 108 170 c 0
 111 172 110 173 108 174 c 0
 106 175 105 176 106 178 c 0
 108 184 114 233 115 252 c 0
 116 262 117 274 117 279 c 0xa0
 117 284 120 302 123 320 c 0
 126 338 130 369 132 390 c 0x90
 133 411 134 430 135 432 c 0
 137 439 137 459 138 502 c 0
 139 544 139 546 147 563 c 0
 149 567 151 575 152 582 c 0
 154 593 160 609 163 610 c 0
 164 610 164 612 163 614 c 0x88
EndSplineSet
Validated: 33
EndChar

StartChar: two
Encoding: 50 50 3
Width: 606
Flags: W
HStem: -141 103<254.002 356.786> -107 16<514.816 519.7> -87 20<515.815 519> 560 7<444 447> 654 81<113.477 280.27>
VStem: 83 34<735.156 785.789> 104 96<17.1428 121.953> 109 87<17.1428 118.892> 111 98<138.047 181.552> 362 78<560.047 589.439> 371 84<397.268 559.996>
LayerCount: 2
Fore
SplineSet
98 785 m 0x9c40
 105 788 106 789 110 786 c 0
 115 782 119 765 117 759 c 0
 116 757 116 751 115 745 c 2
 113 735 l 1
 126 735 l 2
 133 736 146 737 154 738 c 0
 163 739 173 741 176 741 c 0
 179 741 183 741 184 742 c 0
 185 743 188 742 191 741 c 0
 194 740 205 739 215 739 c 0
 225 739 235 738 237 737 c 0
 239 737 244 737 250 736 c 0
 255 735 261 733 262 732 c 0
 263 731 266 730 267 730 c 0
 269 730 276 728 284 725 c 0
 292 722 307 717 316 714 c 0
 334 708 350 701 355 697 c 0
 357 696 361 692 364 690 c 0
 371 685 392 663 398 655 c 0
 401 652 404 648 405 647 c 0
 406 646 409 641 411 638 c 0
 413 635 415 631 417 629 c 0
 421 624 434 596 435 590 c 0
 435 587 437 584 438 582 c 0
 439 581 440 577 440 573 c 0x9c40
 440 567 441 566 444 567 c 0
 447 568 447 567 446 564 c 0
 445 562 446 561 447 560 c 0
 448 560 450 555 450 550 c 0
 450 545 450 541 451 540 c 0
 452 539 455 516 455 510 c 0x9820
 455 509 455 498 454 485 c 0
 453 469 451 458 448 449 c 0
 446 442 442 430 440 422 c 0
 438 414 437 407 436 406 c 0
 435 405 435 403 434 400 c 0
 433 397 431 395 430 395 c 0
 429 395 427 391 426 385 c 0
 425 379 423 375 422 374 c 0
 421 373 421 370 422 367 c 0
 423 362 422 362 410 352 c 0
 408 350 407 349 408 349 c 0
 411 349 411 345 408 345 c 0
 407 345 404 343 403 340 c 0
 400 333 390 322 382 316 c 0
 379 314 376 311 376 310 c 0
 376 309 374 306 372 305 c 0
 370 304 367 303 367 302 c 0
 367 301 366 300 365 300 c 0
 364 300 363 299 362 297 c 0
 361 295 359 293 357 292 c 0
 353 291 341 278 341 276 c 0
 341 275 339 274 336 272 c 0
 333 270 331 268 331 267 c 0
 331 264 291 227 283 222 c 0
 280 220 272 215 260 204 c 0
 257 202 250 196 245 193 c 0
 240 190 233 184 231 181 c 0
 229 178 225 174 224 174 c 0
 223 174 222 173 223 171 c 0
 224 169 223 167 220 164 c 0
 218 162 216 157 215 154 c 0
 214 150 213 148 211 149 c 0
 209 150 208 149 209 146 c 0x98c0
 210 143 208 139 205 133 c 0
 202 128 200 123 201 122 c 0
 202 121 201 120 200 119 c 0x9a
 198 117 195 96 196 93 c 0x99
 196 92 198 83 200 74 c 0
 204 50 208 39 212 30 c 0
 214 26 215 20 216 17 c 0
 218 11 234 -5 247 -13 c 0
 250 -15 253 -18 254 -19 c 0
 254 -20 257 -21 260 -21 c 0
 263 -21 267 -23 269 -24 c 0
 271 -26 275 -28 280 -30 c 0
 285 -32 289 -33 290 -34 c 0
 292 -37 298 -39 300 -38 c 0x9a
 301 -37 303 -38 304 -39 c 0
 305 -40 309 -41 312 -42 c 0
 322 -44 344 -48 347 -49 c 0
 357 -53 423 -53 451 -48 c 0
 463 -46 466 -47 465 -52 c 0
 464 -56 465 -56 469 -51 c 2
 473 -47 l 1
 475 -51 l 2
 477 -53 479 -55 480 -55 c 0
 481 -55 483 -56 484 -57 c 0
 485 -58 488 -60 491 -61 c 0
 495 -62 496 -63 495 -66 c 0
 494 -69 495 -69 499 -68 c 0
 506 -67 513 -71 511 -77 c 0
 510 -81 510 -81 515 -80 c 0
 518 -79 521 -79 521 -80 c 0
 521 -82 517 -87 515 -87 c 0
 511 -87 512 -91 516 -91 c 0
 520 -91 520 -92 520 -97 c 0
 519 -105 518 -106 512 -107 c 0x7a
 508 -108 507 -110 506 -114 c 0
 505 -117 502 -122 499 -126 c 0
 496 -130 493 -133 493 -134 c 0
 494 -139 492 -143 486 -147 c 0
 482 -150 478 -152 477 -152 c 0
 476 -152 474 -153 471 -154 c 0
 465 -157 448 -159 425 -161 c 0
 406 -162 362 -159 360 -156 c 0
 359 -155 359 -155 357 -156 c 0
 353 -159 313 -149 310 -143 c 0
 309 -142 306 -141 304 -141 c 0
 302 -141 297 -140 295 -139 c 0
 292 -138 284 -135 275 -132 c 0
 267 -129 255 -125 250 -123 c 0
 238 -119 201 -102 200 -100 c 0x9a
 199 -99 195 -97 191 -95 c 0
 186 -93 183 -90 183 -89 c 0
 183 -88 180 -87 177 -85 c 0
 174 -84 170 -80 169 -78 c 0
 168 -76 167 -74 166 -74 c 0
 163 -74 153 -64 153 -60 c 0
 153 -58 152 -55 150 -54 c 0
 147 -53 140 -43 140 -41 c 0
 140 -39 134 -27 132 -26 c 0
 131 -25 129 -22 128 -18 c 0
 127 -14 126 -9 125 -8 c 0
 124 -7 122 -3 121 1 c 0
 120 5 118 9 117 11 c 0x9c
 114 18 110 40 109 64 c 0x99
 108 87 107 89 104 91 c 0
 101 92 100 94 101 102 c 0
 101 107 103 114 104 118 c 0x9a
 105 122 105 128 106 131 c 0
 107 134 108 138 109 138 c 0x99
 110 139 111 140 111 142 c 0
 110 144 111 147 112 148 c 0
 113 149 114 150 114 152 c 0
 114 154 115 156 116 157 c 0
 117 158 119 161 119 164 c 0
 119 167 121 170 122 171 c 0
 123 172 124 176 124 179 c 0
 124 182 126 188 129 193 c 0
 133 201 150 225 158 234 c 0
 160 236 163 240 165 243 c 0
 167 246 171 250 174 253 c 0
 177 256 183 263 189 268 c 0
 200 279 226 300 228 300 c 0
 229 300 231 302 233 304 c 0
 235 306 238 308 241 307 c 0
 244 306 249 306 254 305 c 0
 261 304 262 304 262 307 c 0
 262 309 263 311 264 311 c 0
 266 311 275 320 282 327 c 0
 284 329 286 330 288 330 c 0
 290 330 291 330 291 332 c 0
 291 335 320 364 323 364 c 0
 324 364 324 365 324 366 c 0
 324 367 329 373 335 379 c 0
 341 385 347 390 347 391 c 0
 347 392 348 394 350 396 c 0
 358 402 371 474 371 511 c 0x98a0
 371 533 368 558 364 560 c 0
 363 561 362 562 362 563 c 0
 362 568 353 578 339 590 c 0
 331 597 323 603 321 604 c 0
 319 605 318 606 317 607 c 0
 316 608 290 626 275 635 c 0
 262 643 232 654 221 654 c 0
 197 655 149 650 125 646 c 0
 94 640 91 641 78 646 c 0
 71 649 65 652 63 654 c 0
 59 658 55 664 55 670 c 0
 55 673 54 677 52 679 c 0
 50 681 50 685 51 688 c 0
 54 705 56 710 59 715 c 0
 61 718 62 723 62 725 c 0
 62 728 64 732 66 735 c 0
 68 739 69 744 69 749 c 0
 69 755 69 757 71 757 c 0
 74 757 82 766 83 770 c 0
 85 775 92 782 98 785 c 0x9c40
516 -69 m 0
 517 -68 518 -67 519 -67 c 0x38
 520 -67 520 -67 519 -69 c 0
 517 -72 514 -72 516 -69 c 0
EndSplineSet
Validated: 33
EndChar

StartChar: four
Encoding: 52 52 4
Width: 434
Flags: W
HStem: 222 78<140.157 263.891>
VStem: 72 63<322 619.159> 276 51<12.1889 35.9375> 278 65<316.906 610> 298 38<613.75 651> 301 3<658.005 660.999> 310 5<665.575 669.138>
LayerCount: 2
Fore
SplineSet
310 669 m 0xc2
 311 672 315 672 315 669 c 0xc2
 315 668 317 666 319 664 c 0
 321 662 322 660 322 659 c 0
 322 657 330 650 331 651 c 0
 332 651 333 651 333 650 c 0
 334 646 336 617 336 613 c 0xc8
 336 610 337 604 339 597 c 0
 340 594 342 587 342 580 c 0
 342 577 342 575 343 575 c 0
 344 575 344 573 343 571 c 0
 343 569 343 568 344 568 c 0
 345 568 346 561 346 552 c 0
 351 457 352 431 350 414 c 0
 350 409 348 400 347 393 c 0
 346 380 346 381 349 356 c 0
 351 342 351 333 350 291 c 0
 349 265 348 235 348 224 c 0
 348 213 348 203 347 203 c 0
 347 203 346 201 347 199 c 0
 348 195 348 185 346 185 c 0
 345 185 345 164 346 124 c 0
 346 110 347 92 346 85 c 0
 345 78 344 69 343 64 c 0xd0
 343 59 342 55 341 54 c 0
 340 52 338 42 335 26 c 0
 333 15 332 12 331 17 c 0
 330 20 327 20 327 18 c 0xe0
 327 15 319 8 317 9 c 0
 316 9 314 9 312 8 c 0
 309 6 307 6 304 7 c 0xc4
 302 8 299 7 299 7 c 0
 299 7 298 7 297 8 c 0
 295 9 293 9 292 8 c 0
 290 6 284 8 282 12 c 0
 281 14 279 15 278 15 c 0xd0
 277 15 276 16 276 17 c 0xe0
 276 18 275 19 273 19 c 0
 271 19 270 20 270 23 c 0
 270 25 269 30 267 32 c 2
 264 36 l 1
 264 126 l 1
 264 216 l 1
 257 215 l 2
 252 214 250 215 250 216 c 0
 250 217 249 217 247 216 c 0
 245 215 243 215 240 216 c 0
 238 217 235 217 233 217 c 0
 230 217 229 219 229 221 c 0
 229 224 229 224 227 221 c 0
 225 219 225 219 221 220 c 0
 219 221 216 222 214 222 c 0
 192 222 168 226 153 233 c 0
 142 238 143 238 126 249 c 0
 120 253 112 257 108 258 c 0
 104 259 98 262 96 263 c 0
 93 265 91 265 90 264 c 0
 89 263 87 264 85 268 c 0
 84 271 81 274 80 274 c 0
 75 274 74 283 73 316 c 0
 71 355 72 377 75 445 c 0
 76 475 76 473 74 494 c 0
 73 503 72 525 72 543 c 0
 72 574 72 576 75 582 c 0
 77 586 78 590 78 592 c 0
 78 601 96 625 103 625 c 0
 104 625 106 626 107 627 c 0
 108 628 111 629 114 629 c 0
 120 630 128 626 130 621 c 0
 130 619 132 616 133 615 c 0
 135 613 135 609 135 596 c 0
 135 587 135 578 135 575 c 0
 135 572 134 567 135 563 c 0
 137 553 138 516 138 484 c 0
 137 427 138 395 139 382 c 0
 140 375 140 359 140 346 c 2
 140 322 l 1
 144 320 l 2
 147 318 153 317 168 317 c 0
 179 317 194 315 202 314 c 0
 210 313 220 312 225 311 c 0
 234 310 248 306 258 302 c 0
 261 301 264 300 265 300 c 0
 266 300 268 299 269 297 c 0
 270 294 270 295 270 300 c 0
 270 303 270 306 270 307 c 0
 270 308 271 312 272 314 c 0
 273 317 273 318 272 320 c 0
 271 321 270 324 271 326 c 0
 271 328 272 349 272 372 c 0
 272 395 274 423 275 433 c 0
 276 443 277 474 277 502 c 0
 277 530 278 555 278 559 c 0xd0
 278 563 278 576 277 588 c 2
 276 610 l 1xe0
 280 615 l 2
 282 618 285 623 286 626 c 0
 288 636 290 640 294 643 c 0
 296 644 298 646 298 647 c 0xc8
 298 650 303 654 307 656 c 0
 310 657 311 658 310 662 c 0
 310 664 310 668 310 669 c 0xc2
301 659 m 0xc4
 301 660 303 661 303 661 c 0
 303 661 304 660 304 659 c 0
 304 658 303 658 302 658 c 0
 301 658 301 658 301 659 c 0xc4
EndSplineSet
Validated: 33
EndChar

StartChar: five
Encoding: 53 53 5
Width: 634
Flags: W
HStem: -173 120<161.961 369.575> -162 109<136.005 192.953 214.471 392.25> 674 101<272.475 432.812>
VStem: 67 115<397.503 603.631> 237 14<609.05 636.875> 244 18<185.04 220.092> 452 122<37.3288 123.188>
LayerCount: 2
Fore
SplineSet
241 777 m 0xb6
 248 781 248 782 252 777 c 0
 255 774 257 773 283 774 c 0
 298 774 312 775 314 776 c 0
 316 777 318 776 319 775 c 0
 320 774 322 774 323 775 c 0
 324 776 379 777 418 775 c 0
 439 774 450 771 457 764 c 0
 459 762 464 757 467 755 c 0
 471 752 473 749 474 745 c 0
 475 741 478 736 481 732 c 0
 488 725 489 722 484 722 c 0
 481 722 482 720 488 715 c 0
 492 711 499 707 502 705 c 0
 510 701 509 695 502 695 c 0
 495 695 489 689 492 687 c 0
 494 686 493 685 491 683 c 0
 489 682 487 680 485 679 c 0
 483 678 482 677 482 675 c 0
 482 673 480 670 478 667 c 0
 476 664 474 661 474 660 c 0
 474 659 474 658 473 657 c 0
 471 656 461 661 459 664 c 0
 458 666 450 664 441 659 c 2
 433 656 l 1
 421 661 l 2
 414 664 404 667 398 668 c 0
 392 669 382 671 376 672 c 0
 364 675 317 676 314 674 c 0
 313 673 310 674 307 675 c 0
 302 677 300 677 293 674 c 0
 288 672 284 670 284 669 c 0
 284 668 282 665 279 663 c 0
 277 661 275 658 275 656 c 0
 275 654 270 649 264 643 c 0
 253 633 250 627 251 615 c 0
 252 610 251 610 247 609 c 0
 239 608 236 615 237 629 c 0xba
 238 635 237 640 236 641 c 0
 233 643 217 629 212 621 c 0
 210 618 205 607 202 596 c 0
 199 585 195 575 194 574 c 0
 183 551 180 525 182 486 c 0
 183 465 184 458 189 441 c 0
 192 430 196 418 197 415 c 0
 199 404 210 386 219 380 c 0
 224 377 230 374 232 373 c 0
 234 372 238 371 241 369 c 0
 246 367 248 367 252 368 c 0
 258 370 262 370 262 365 c 0
 262 363 263 361 266 361 c 0
 269 361 273 358 278 352 c 0
 284 343 294 336 299 336 c 0
 301 336 301 336 299 338 c 0
 298 340 297 341 299 343 c 0
 301 345 302 344 305 341 c 0
 310 334 324 328 329 329 c 0
 335 330 365 319 385 308 c 0
 388 306 397 301 404 298 c 0
 420 290 428 285 432 282 c 0
 434 281 438 278 441 276 c 0
 444 274 454 269 460 264 c 0
 466 259 474 254 478 252 c 0
 502 236 522 211 539 176 c 0
 540 175 542 170 544 166 c 0
 546 162 549 155 550 150 c 0
 551 145 553 142 554 141 c 0
 559 139 569 110 572 85 c 0
 573 78 574 72 574 71 c 0
 575 70 575 68 574 67 c 0
 572 66 570 56 572 54 c 0
 573 52 571 44 568 37 c 0
 567 36 564 34 561 33 c 0
 556 32 556 31 555 22 c 0
 554 10 547 -9 542 -18 c 0
 540 -21 539 -25 539 -26 c 0
 539 -31 501 -75 497 -75 c 0
 496 -75 492 -78 489 -81 c 0
 486 -84 481 -88 479 -88 c 0
 477 -88 473 -91 470 -94 c 0
 463 -102 456 -106 451 -106 c 0
 449 -106 446 -108 444 -110 c 0
 442 -112 435 -117 428 -120 c 0
 421 -123 414 -127 413 -129 c 0
 412 -131 410 -132 408 -131 c 0
 406 -130 403 -132 402 -134 c 0
 401 -136 399 -137 398 -137 c 0
 397 -137 393 -139 390 -142 c 0
 387 -145 382 -146 381 -145 c 0
 380 -144 377 -146 374 -148 c 0
 371 -150 368 -152 367 -151 c 0
 366 -150 364 -152 363 -153 c 0
 362 -154 359 -155 357 -155 c 0
 355 -155 351 -157 348 -159 c 0
 345 -161 339 -163 335 -163 c 0
 319 -164 300 -169 288 -173 c 0
 276 -178 269 -177 258 -173 c 0
 253 -171 249 -171 242 -172 c 0
 237 -173 224 -173 214 -173 c 0xb6
 199 -173 195 -172 193 -169 c 0
 192 -167 191 -166 190 -166 c 0
 189 -166 187 -165 185 -163 c 0
 182 -160 181 -160 176 -162 c 0
 173 -163 169 -164 168 -164 c 0
 167 -164 159 -163 151 -162 c 0
 143 -161 136 -161 136 -161 c 0
 136 -161 134 -158 132 -155 c 0
 128 -148 127 -140 130 -130 c 0
 131 -125 131 -123 129 -121 c 0
 126 -119 126 -118 128 -116 c 0
 130 -113 129 -98 126 -96 c 0
 125 -95 125 -93 126 -92 c 0
 127 -90 126 -89 123 -88 c 0
 121 -87 116 -84 113 -82 c 0
 110 -80 105 -78 103 -77 c 0
 100 -76 99 -74 101 -72 c 0
 103 -70 103 -71 106 -73 c 0
 111 -76 117 -75 124 -70 c 0
 131 -66 131 -66 127 -62 c 0
 125 -60 122 -59 121 -58 c 0
 116 -56 123 -53 130 -54 c 0
 133 -54 143 -54 152 -53 c 0x76
 162 -52 169 -52 170 -53 c 0
 172 -54 173 -54 174 -51 c 0
 176 -47 177 -47 184 -48 c 0
 195 -50 237 -53 249 -53 c 0
 256 -53 260 -52 262 -50 c 0
 265 -48 266 -48 268 -49 c 0
 270 -50 272 -50 277 -49 c 0
 282 -48 285 -48 288 -49 c 0
 293 -52 300 -51 303 -49 c 0
 305 -48 307 -48 311 -50 c 0
 318 -53 349 -51 362 -46 c 0
 384 -37 405 -28 409 -25 c 0
 420 -17 427 -11 433 -5 c 0
 437 -1 440 2 441 2 c 0
 444 3 451 14 451 17 c 0
 451 18 452 21 454 22 c 0
 462 28 464 51 459 57 c 0
 457 60 453 72 452 80 c 0
 452 82 450 84 449 84 c 0
 448 84 447 86 447 87 c 0
 447 88 445 91 444 94 c 0
 443 97 442 102 441 105 c 0
 440 109 438 113 437 114 c 0
 436 115 434 117 434 118 c 0
 434 121 391 162 385 164 c 0
 382 165 378 170 375 173 c 0
 370 179 358 185 349 185 c 0
 346 185 341 188 338 190 c 0
 335 192 329 195 324 197 c 0
 319 199 314 203 312 206 c 0
 309 209 306 211 304 210 c 0
 302 209 296 212 289 214 c 0
 282 216 274 218 272 218 c 0
 269 218 267 219 267 220 c 0
 267 221 267 222 265 220 c 0
 263 218 262 214 262 206 c 0
 262 191 260 185 254 185 c 0
 246 185 244 190 244 206 c 0
 244 214 244 224 243 227 c 0
 241 236 234 248 229 251 c 0
 226 253 222 256 219 259 c 0
 216 262 210 266 207 267 c 0
 204 268 197 271 194 272 c 0
 175 279 164 285 155 294 c 0
 133 317 105 349 102 356 c 0
 101 357 99 362 96 366 c 0
 89 376 83 391 80 403 c 0
 78 409 76 415 75 417 c 0
 74 419 73 424 72 428 c 0
 71 432 71 441 70 448 c 0
 69 455 67 478 67 498 c 0
 67 529 68 536 71 548 c 0
 73 556 75 564 75 565 c 0
 75 574 80 590 82 594 c 0
 84 596 86 602 87 607 c 0
 88 612 92 617 93 618 c 0
 94 619 95 621 95 622 c 0
 95 626 103 642 109 650 c 0
 112 655 115 660 115 661 c 0
 115 662 118 667 121 670 c 0
 124 673 126 677 126 678 c 0
 126 679 127 680 128 680 c 0
 130 680 145 694 152 703 c 0
 155 706 159 711 162 713 c 0
 165 715 173 721 180 726 c 0
 187 731 195 737 199 740 c 0
 203 743 212 751 220 759 c 0
 228 767 238 775 241 777 c 0xb6
EndSplineSet
Validated: 33
EndChar

StartChar: seven
Encoding: 55 55 6
Width: 523
Flags: W
HStem: 604 103<76.4417 270.948> 625 90<104.09 353.446>
VStem: 332 113<52 310.138 366.589 558.481> 345 112<126.573 624.956> 354 100<332.03 624.874> 372 63<11.415 32.5273> 398 17<707.581 711.645> 447 6<615.049 626.292>
LayerCount: 2
Fore
SplineSet
253 713 m 0x88
 262 714 270 715 271 715 c 0
 272 715 273 714 274 713 c 0
 275 712 279 712 288 713 c 0
 295 714 304 714 309 714 c 0
 314 714 319 713 321 713 c 0
 339 714 345 714 362 711 c 0
 368 710 374 709 375 708 c 0
 376 707 378 706 381 706 c 0
 384 706 387 705 388 704 c 0
 390 701 398 704 398 708 c 0
 398 711 399 711 410 712 c 0
 412 712 414 710 415 704 c 0
 416 700 418 694 419 691 c 0
 425 681 425 679 428 656 c 0
 430 640 432 633 434 632 c 0
 435 631 438 626 440 621 c 0
 443 614 445 613 446 615 c 0
 447 616 448 620 447 623 c 0
 446 628 445 629 449 627 c 0
 451 626 453 623 453 622 c 0x43
 453 621 454 618 454 614 c 0x48
 454 610 455 601 456 594 c 0
 458 571 458 557 457 556 c 0
 456 555 456 549 457 542 c 0
 459 524 460 480 459 463 c 0
 458 448 457 433 457 408 c 0x50
 457 391 455 347 451 319 c 0
 450 307 448 287 448 275 c 0
 448 263 447 244 446 234 c 0
 444 213 444 215 445 202 c 0
 446 190 446 148 445 92 c 2
 445 52 l 1x60
 440 44 l 2
 437 40 435 36 435 34 c 0
 435 29 413 9 409 10 c 0
 407 11 404 10 403 9 c 0
 400 6 387 5 386 7 c 0
 385 8 382 10 378 11 c 0
 374 12 372 16 372 17 c 0x44
 372 21 359 31 354 31 c 0x48
 346 31 343 43 343 72 c 0
 343 84 342 95 341 97 c 0
 328 129 322 212 330 241 c 0
 331 247 332 251 332 252 c 0x60
 331 253 333 267 338 298 c 0
 341 318 340 380 336 402 c 0
 335 406 336 419 338 431 c 0
 340 443 341 456 341 460 c 0
 341 464 342 476 343 486 c 0
 344 496 344 508 345 514 c 0x50
 346 533 348 545 351 555 c 0
 355 573 356 583 354 601 c 0
 351 627 352 624 329 625 c 0x48
 316 625 306 625 303 624 c 0
 300 623 289 620 278 617 c 0
 267 614 253 610 245 608 c 0
 237 606 227 604 222 604 c 0
 217 604 200 604 184 604 c 0
 168 604 149 604 140 603 c 0
 129 602 119 603 109 605 c 0
 101 607 94 608 93 607 c 0
 90 605 57 612 49 616 c 0
 42 620 41 621 39 628 c 0
 36 639 37 649 44 662 c 0
 50 672 58 679 62 677 c 0
 63 676 66 678 70 681 c 0
 81 689 103 694 152 699 c 0
 166 700 180 703 183 704 c 0
 186 705 196 706 205 707 c 0
 214 707 225 709 229 710 c 0
 233 711 244 712 253 713 c 0x88
EndSplineSet
Validated: 33
EndChar

StartChar: eight
Encoding: 56 56 7
Width: 466
Flags: W
HStem: -37 79<166.156 270.016> 314 2<182.536 184.252> 634 69<209.644 335.174>
VStem: 56 93<75.2344 266.652> 74 87<75.2344 165.597 168.25 300.224> 80 89<202.802 310.906 536.971 545.441 546.42 598.971> 313 102<82.1466 246.903> 345 72<525.044 619.316>
LayerCount: 2
Fore
SplineSet
264 702 m 0xe4
 267 703 280 703 294 703 c 0
 320 703 329 701 348 693 c 0
 369 684 392 660 400 639 c 0
 402 635 404 629 405 628 c 0
 409 623 411 616 412 604 c 0
 412 597 414 590 415 587 c 0xe6
 419 577 420 563 418 552 c 0
 417 546 417 541 417 540 c 0xe1
 417 539 417 534 416 529 c 0
 414 521 412 518 406 512 c 0
 402 508 396 500 392 495 c 0
 388 490 380 480 374 473 c 0
 368 466 356 451 349 441 c 0
 336 422 325 410 313 398 c 0
 309 395 307 391 308 390 c 0
 308 389 307 386 306 383 c 0
 303 378 303 379 306 375 c 0
 308 373 310 369 310 368 c 0
 310 366 312 364 313 364 c 0
 314 363 316 361 317 359 c 0
 318 357 322 353 325 349 c 0
 328 345 332 341 332 340 c 0
 332 339 333 339 335 339 c 0
 337 339 339 337 340 335 c 0
 341 333 343 330 344 330 c 0
 345 330 347 325 348 322 c 0
 349 319 350 316 351 316 c 0
 352 316 353 316 354 316 c 0
 355 316 357 315 359 315 c 0
 361 315 362 314 362 312 c 0
 362 306 365 301 368 301 c 0
 370 301 372 299 372 298 c 0
 373 297 375 294 377 292 c 0
 379 290 380 287 380 284 c 0
 381 281 382 280 384 280 c 0
 386 280 387 280 388 278 c 0
 388 276 390 273 392 270 c 0
 397 262 398 259 398 256 c 0
 398 254 399 253 400 252 c 0
 401 251 402 249 403 247 c 0
 403 245 406 239 408 233 c 0
 410 227 413 220 413 216 c 0
 413 212 414 208 415 206 c 0
 417 201 416 147 414 136 c 0
 406 98 401 85 388 66 c 0
 384 61 376 50 371 42 c 0
 360 25 353 17 340 6 c 0
 315 -15 263 -37 227 -41 c 0
 219 -42 207 -43 202 -44 c 0
 197 -45 191 -46 191 -45 c 0
 191 -44 187 -44 183 -44 c 0
 178 -44 175 -42 174 -40 c 0
 173 -38 169 -37 165 -37 c 0
 161 -37 155 -34 153 -33 c 0
 151 -32 145 -29 140 -27 c 0
 135 -25 129 -23 129 -22 c 0
 129 -21 127 -19 124 -19 c 0
 121 -18 119 -17 118 -15 c 0
 118 -13 115 -11 112 -10 c 0
 109 -9 107 -6 107 -4 c 0
 107 -2 106 -0 104 -0 c 0
 102 0 100 2 100 3 c 0
 100 4 99 6 98 6 c 0
 96 7 95 8 96 10 c 0
 97 13 97 14 95 13 c 0
 93 12 92 13 91 17 c 0
 91 20 90 22 89 22 c 0
 88 22 87 23 87 25 c 0
 87 27 85 30 83 32 c 0
 80 35 79 38 79 43 c 0
 79 47 77 50 76 51 c 0
 75 52 74 56 74 60 c 0xea
 74 64 73 66 72 66 c 0
 71 66 69 74 66 89 c 0
 65 93 64 99 63 101 c 0
 59 112 56 137 56 167 c 0xf0
 56 194 56 199 60 212 c 0
 66 235 72 250 73 252 c 0
 74 253 74 255 74 257 c 0xe8
 74 259 76 263 78 266 c 0
 80 269 81 273 81 274 c 0
 81 276 84 283 94 304 c 0
 95 306 97 310 99 313 c 0
 101 316 105 324 109 331 c 0
 113 338 117 344 119 346 c 0
 120 348 123 354 126 358 c 0
 128 363 132 367 134 369 c 0
 141 376 149 389 150 393 c 0
 151 398 149 401 143 402 c 0
 139 403 125 420 123 427 c 0
 123 429 120 432 117 434 c 0
 114 436 112 439 112 441 c 0
 112 443 110 446 108 447 c 0
 106 448 101 454 99 460 c 0
 96 466 92 473 90 477 c 0
 88 480 84 485 84 488 c 0
 84 491 83 494 82 495 c 0
 81 496 80 500 80 504 c 0
 78 527 77 534 77 546 c 0
 77 555 78 561 80 565 c 0
 81 568 82 572 82 574 c 0
 82 576 83 579 85 581 c 0
 87 583 89 585 90 587 c 0
 94 601 129 638 152 654 c 0
 162 661 183 671 187 671 c 0
 187 671 199 676 213 682 c 0
 244 696 256 701 264 702 c 0xe4
290 630 m 0
 281 632 270 634 265 634 c 0
 255 634 239 629 226 621 c 0
 221 618 216 615 215 615 c 0
 214 615 210 612 207 610 c 0
 204 607 199 604 196 602 c 0
 185 596 174 581 169 570 c 0
 165 560 164 557 164 536 c 0
 164 509 165 504 177 486 c 0
 188 469 207 452 222 444 c 0
 226 442 227 442 235 446 c 0
 240 449 249 454 255 459 c 0
 261 463 269 470 272 472 c 0
 275 474 287 484 298 495 c 0
 319 515 321 519 333 550 c 0
 336 557 340 565 342 567 c 0
 345 571 346 572 345 579 c 0xe5
 345 583 344 589 343 590 c 0
 342 591 341 595 341 597 c 0
 341 599 340 603 338 607 c 0
 335 613 333 615 321 620 c 0
 314 623 299 628 290 630 c 0
209 342 m 0
 211 346 211 347 208 343 c 0
 207 342 204 340 203 340 c 0
 199 340 192 334 192 330 c 0
 192 328 191 326 189 325 c 0
 187 324 185 322 184 321 c 0
 182 319 182 315 184 316 c 0
 185 316 187 316 188 315 c 0
 189 313 189 313 187 311 c 0
 185 309 185 309 185 311 c 0
 185 312 184 314 183 314 c 0
 182 314 182 313 182 311 c 0
 182 309 184 306 184 304 c 0
 185 302 183 300 181 299 c 0
 179 298 177 295 176 289 c 0
 175 284 173 276 171 271 c 0
 169 266 166 261 166 260 c 0
 166 259 165 257 164 256 c 0
 163 255 161 252 161 249 c 0xea
 161 244 160 234 154 196 c 0
 152 182 150 166 150 158 c 0
 150 151 150 136 149 125 c 0
 148 108 149 103 152 90 c 2
 155 75 l 1
 172 59 l 2
 181 50 191 42 192 42 c 0
 194 42 194 40 194 39 c 0
 194 35 210 34 223 38 c 0
 229 40 237 41 239 41 c 0
 241 41 242 43 243 45 c 0
 244 48 245 48 249 48 c 0
 253 47 255 47 256 50 c 0
 258 54 262 59 267 60 c 0
 269 61 271 63 272 65 c 0
 273 67 277 70 280 71 c 0
 283 72 285 74 285 75 c 0
 285 76 289 80 294 85 c 0
 299 90 304 94 304 95 c 0
 304 96 305 99 308 102 c 0
 311 105 313 109 313 110 c 0xf2
 313 111 315 118 318 126 c 0
 321 134 325 146 326 155 c 0
 328 164 329 175 330 180 c 0
 331 187 331 191 328 203 c 0
 325 217 322 223 308 252 c 0
 301 266 292 279 288 279 c 0
 287 279 285 280 285 282 c 0
 285 283 282 287 279 289 c 0
 276 291 272 295 271 296 c 0
 259 309 256 312 253 313 c 0
 251 314 245 318 240 323 c 2
 231 332 l 1
 221 331 l 2
 210 331 209 332 215 335 c 0
 217 336 219 337 219 338 c 0
 219 340 218 340 213 339 c 0
 207 338 207 339 209 342 c 0
EndSplineSet
Validated: 33
EndChar

StartChar: A
Encoding: 65 65 8
Width: 517
Flags: W
HStem: 266 90<166.054 237.953>
VStem: 92 18<3.31392 10.25> 221 115<477.742 555.383> 227 122<435.618 550.498> 239 126<392.589 514.689> 388 92<46.5674 105.013>
LayerCount: 2
Fore
SplineSet
184 767 m 0xcc
 188 768 193 770 193 770 c 0
 195 771 205 762 215 752 c 0
 222 745 228 740 229 740 c 0
 232 740 239 730 246 718 c 0
 264 684 280 652 281 646 c 0
 282 642 284 635 287 630 c 0
 293 619 296 615 317 571 c 0
 325 555 331 540 331 539 c 0
 331 538 333 535 334 534 c 0
 335 533 336 532 336 531 c 0xe4
 336 530 339 523 342 516 c 0
 345 509 349 502 349 501 c 0xd4
 349 500 350 497 352 493 c 0
 356 485 365 461 365 457 c 0
 365 456 366 452 367 449 c 0
 369 444 371 437 378 414 c 0
 379 409 382 402 383 400 c 0
 384 398 386 392 387 389 c 0
 388 386 392 373 396 360 c 0
 400 347 405 332 407 325 c 0
 409 318 411 310 412 307 c 0
 415 297 422 279 425 272 c 0
 430 262 437 238 436 237 c 0
 435 236 436 234 437 233 c 0
 439 231 442 215 445 197 c 0
 446 194 448 190 449 189 c 0
 451 186 461 160 467 141 c 0
 472 126 476 102 474 100 c 0
 473 99 474 96 475 92 c 0
 477 86 481 59 480 53 c 0
 480 51 478 50 477 50 c 0
 476 50 473 48 472 47 c 0
 470 45 469 45 466 46 c 0
 461 48 450 46 446 42 c 0
 444 40 441 39 440 39 c 0
 435 39 428 35 427 32 c 0
 426 30 425 28 422 27 c 0
 419 26 414 25 412 24 c 0
 406 21 400 24 393 33 c 0
 390 37 388 41 388 42 c 0
 388 43 385 48 383 53 c 0
 381 58 378 65 377 70 c 0
 373 86 368 101 354 132 c 0
 353 134 350 142 346 151 c 0
 342 160 338 170 337 173 c 0
 336 176 331 188 327 201 c 0
 322 214 317 228 315 233 c 0
 313 238 311 244 311 246 c 0
 311 248 311 251 310 253 c 0
 309 255 307 261 307 265 c 0
 306 274 305 275 301 273 c 0
 299 272 296 272 294 272 c 0
 292 272 283 270 275 268 c 0
 258 264 224 264 204 266 c 0
 191 268 188 267 186 265 c 0
 183 262 183 262 181 265 c 0
 179 267 178 268 175 266 c 0
 173 264 170 264 168 265 c 0
 166 266 165 267 164 266 c 0
 164 265 158 265 152 265 c 0
 146 265 142 264 141 264 c 0
 141 263 139 255 137 245 c 0
 135 235 134 225 134 223 c 0
 131 208 127 178 124 151 c 0
 120 119 116 94 112 78 c 0
 111 73 110 62 110 55 c 0
 110 43 107 24 102 7 c 0
 101 2 100 0 96 0 c 0
 94 0 92 1 92 2 c 0
 92 3 91 4 89 3 c 0
 86 2 85 3 85 6 c 0
 85 10 84 11 72 13 c 0
 65 14 57 15 54 16 c 0
 51 17 47 18 44 18 c 0
 41 18 39 18 39 19 c 0
 39 20 37 22 35 22 c 0
 31 23 31 24 29 34 c 0
 28 42 27 49 28 57 c 0
 29 63 31 74 32 82 c 0
 33 90 35 102 36 110 c 0
 38 120 37 125 35 130 c 0
 31 143 35 175 47 210 c 0
 51 223 55 243 57 262 c 0
 58 271 59 281 60 283 c 0
 61 285 62 297 64 309 c 0
 66 321 69 336 70 344 c 0
 72 352 74 367 75 378 c 0
 77 389 80 410 83 424 c 0
 86 438 89 455 90 461 c 0
 91 467 94 483 96 496 c 0
 98 509 100 527 100 537 c 0
 101 566 108 626 110 629 c 0
 111 630 112 638 113 647 c 0
 114 656 116 667 117 672 c 0
 118 677 119 688 120 695 c 0
 124 722 126 727 142 742 c 0
 157 756 167 762 184 767 c 0xcc
209 551 m 0
 208 554 208 556 207 556 c 0
 205 556 204 552 203 538 c 0
 202 532 199 520 197 511 c 0
 193 493 191 481 187 460 c 0
 184 443 181 432 178 420 c 0
 173 402 168 379 166 360 c 0
 166 357 167 357 191 356 c 0
 231 355 233 355 235 353 c 0
 236 352 237 353 238 354 c 0
 239 356 263 354 270 352 c 0
 274 350 274 351 274 354 c 0
 274 359 269 374 263 389 c 0
 260 396 257 403 256 406 c 0
 255 409 253 413 252 416 c 0
 251 419 249 422 248 423 c 0
 246 424 246 428 246 435 c 0
 246 444 245 446 242 447 c 0
 240 448 239 449 239 453 c 0xcc
 239 456 236 467 233 477 c 0
 230 487 227 497 227 498 c 0xd4
 227 499 225 504 224 508 c 0
 223 512 221 518 221 520 c 0
 221 522 218 529 215 535 c 0
 212 541 210 548 209 551 c 0
EndSplineSet
Validated: 33
EndChar

StartChar: B
Encoding: 66 66 9
Width: 463
Flags: W
HStem: 6 99<143.285 245.284> 19 94<194.194 259.547> 31 106<222.881 297.392>
VStem: 20 104<575.055 633.857 634.093 712.859> 28 101<446.139 574.952> 37 103<104.46 333.4> 37 102<104.314 250.093 285.526 355.861> 286 87<332.319 370.491> 297 98<503.697 573.94> 337 77<172.672 303.334>
LayerCount: 2
Fore
SplineSet
119 802 m 0x90
 126 803 135 804 140 803 c 0
 159 800 211 788 222 783 c 0
 224 782 230 780 235 778 c 0
 240 776 246 773 248 772 c 0
 250 771 252 770 253 771 c 0
 254 772 259 768 264 763 c 0
 278 750 281 748 289 745 c 0
 295 743 303 736 325 714 c 0
 381 658 388 649 390 625 c 0
 391 619 393 610 395 606 c 0
 400 594 403 579 400 577 c 0
 399 576 399 575 400 574 c 0
 403 573 401 554 398 551 c 0
 397 549 395 545 395 542 c 0x8480
 395 529 383 496 374 486 c 0
 371 482 367 475 366 471 c 0
 365 467 360 461 356 457 c 0
 351 452 349 448 349 445 c 0
 349 442 349 441 348 442 c 0
 347 445 343 445 337 440 c 0x8040
 332 436 332 436 334 433 c 0
 338 428 351 401 351 398 c 0
 351 397 352 396 353 396 c 0
 355 396 373 363 373 359 c 0x81
 373 358 375 354 378 352 c 0
 381 350 384 346 385 343 c 0
 386 340 389 338 391 337 c 0
 393 336 397 331 400 324 c 0
 403 317 407 312 409 311 c 0
 412 310 414 308 413 302 c 0
 413 301 413 296 415 292 c 0
 424 267 427 226 420 212 c 0
 418 208 416 201 416 198 c 0
 416 195 416 191 415 190 c 0
 414 189 414 188 414 186 c 0
 415 184 413 179 410 174 c 0
 407 169 405 163 405 160 c 0
 405 154 400 136 393 125 c 0
 391 122 389 117 389 116 c 0
 389 115 385 109 379 103 c 0
 373 97 366 89 362 85 c 0
 358 81 355 77 355 76 c 0
 355 75 353 73 351 72 c 0
 349 71 344 67 341 64 c 0
 338 61 332 58 328 57 c 0
 324 56 318 54 314 51 c 0
 290 34 283 30 281 31 c 0x2040
 280 32 273 30 265 28 c 0
 257 26 247 24 243 24 c 0
 238 24 236 23 235 22 c 0
 234 21 231 19 227 19 c 0x4040
 223 19 218 18 216 17 c 0
 214 16 207 13 200 12 c 0
 193 11 187 9 185 8 c 0
 183 7 181 7 180 8 c 0
 179 9 175 9 171 8 c 0
 167 7 161 6 158 6 c 0
 155 6 149 4 146 3 c 0
 142 1 140 1 133 2 c 0
 127 3 123 3 121 2 c 0
 118 0 117 1 114 4 c 0
 111 7 110 7 108 5 c 0
 106 3 106 3 104 5 c 0
 102 7 101 6 99 3 c 0
 97 1 94 -1 91 -1 c 0
 87 -1 87 -1 88 -4 c 0
 90 -9 86 -9 84 -4 c 0
 83 -2 83 0 83 1 c 0
 84 3 76 7 73 6 c 0
 71 5 71 5 71 8 c 0
 71 10 70 13 68 14 c 0
 65 16 65 21 64 35 c 0
 63 59 60 74 56 82 c 0
 54 87 52 98 50 117 c 0
 48 132 46 148 45 153 c 0
 43 158 43 163 44 165 c 0
 45 167 45 169 44 170 c 0
 43 171 43 174 43 178 c 0
 42 184 40 220 39 238 c 0
 39 243 38 270 37 300 c 0x8440
 36 330 36 355 36 356 c 0
 35 357 35 372 34 389 c 0
 33 406 32 426 31 435 c 0
 30 444 28 454 28 459 c 0x88
 28 464 27 471 25 477 c 0
 23 485 22 497 21 525 c 0
 20 546 20 565 19 568 c 0
 18 571 19 574 20 575 c 0
 21 576 21 588 20 606 c 0
 19 622 19 636 20 637 c 0
 22 640 21 662 18 684 c 0
 16 700 14 729 15 732 c 0
 15 733 15 738 16 743 c 0
 16 748 17 754 17 757 c 0
 17 760 19 762 20 763 c 0
 21 764 22 767 22 768 c 0
 22 769 24 772 27 773 c 0
 30 774 33 776 34 777 c 0
 35 778 39 779 41 779 c 0
 43 779 47 781 50 782 c 0
 53 783 56 785 57 784 c 0
 58 783 60 785 62 788 c 0
 64 791 66 794 67 795 c 0
 69 796 99 800 119 802 c 0x90
125 714 m 0
 120 715 114 716 112 717 c 0
 108 718 107 717 106 713 c 0
 105 710 106 707 108 705 c 0
 109 703 111 696 112 690 c 0
 113 684 115 675 116 672 c 0
 117 669 118 662 118 657 c 0
 118 652 119 645 120 643 c 0
 121 640 121 639 119 638 c 0
 117 637 118 636 120 634 c 0
 123 631 123 625 124 605 c 0x1080
 124 598 125 590 126 586 c 0
 127 581 126 578 125 578 c 0
 122 578 123 575 126 569 c 0
 130 562 130 537 126 532 c 0
 125 530 125 529 127 528 c 0
 129 527 130 524 130 514 c 0
 130 507 131 500 132 499 c 0
 133 498 135 494 134 490 c 0
 133 484 132 484 131 488 c 0
 130 492 127 493 127 490 c 0
 127 486 132 476 134 475 c 0
 137 474 137 463 135 454 c 0
 134 449 133 448 130 449 c 0
 127 450 126 449 128 446 c 0
 131 441 135 441 141 446 c 0
 143 448 149 451 152 453 c 0
 162 458 195 468 202 468 c 0
 212 468 243 480 257 489 c 0
 264 494 270 498 270 499 c 0
 270 500 271 502 274 503 c 0
 277 504 279 505 279 506 c 0
 279 508 292 522 295 522 c 0
 296 522 297 524 297 526 c 0
 297 528 299 533 302 537 c 0
 307 544 308 548 310 564 c 0
 312 582 312 583 308 594 c 0
 306 601 302 610 299 613 c 0
 296 617 293 622 291 625 c 0
 289 628 286 632 285 633 c 0
 284 634 282 636 282 637 c 0
 282 638 281 641 278 643 c 0
 275 645 269 649 264 653 c 0
 259 657 252 664 247 667 c 0
 242 670 239 675 239 676 c 0
 239 677 238 678 237 678 c 0
 236 678 231 680 228 683 c 0
 221 689 216 691 218 686 c 0
 219 684 216 681 212 681 c 0
 211 681 209 684 208 687 c 0
 206 691 204 692 197 693 c 0
 192 694 188 693 187 693 c 0
 186 693 184 689 183 684 c 0
 182 679 179 673 178 671 c 0
 173 662 160 668 158 680 c 0
 156 688 153 694 144 700 c 0
 140 703 137 707 136 709 c 0
 135 712 133 713 125 714 c 0
131 468 m 0
 130 469 130 470 129 470 c 0
 129 470 129 469 129 468 c 0x08
 129 467 130 466 131 466 c 0
 132 466 132 467 131 468 c 0
247 374 m 0
 246 377 245 379 243 379 c 0
 238 379 237 377 238 371 c 0
 241 350 241 350 237 350 c 0
 229 350 216 356 215 359 c 0
 214 362 214 362 213 358 c 0
 212 355 210 354 206 354 c 0
 203 354 197 353 193 353 c 0
 173 352 159 353 154 355 c 0
 145 360 141 360 136 356 c 0
 133 353 132 352 134 352 c 0
 138 352 139 349 139 334 c 0x23
 139 321 140 321 136 324 c 0
 133 327 132 327 132 324 c 0
 132 321 137 296 140 285 c 0
 140 284 139 282 138 282 c 0
 134 282 134 280 136 275 c 0
 139 268 139 246 137 250 c 0
 136 252 135 253 134 252 c 0
 131 250 133 227 142 160 c 0
 143 150 144 135 143 122 c 0
 142 100 143 98 150 102 c 0
 152 103 162 105 172 105 c 0x84
 182 105 190 106 190 107 c 0
 190 108 192 108 194 107 c 0
 198 106 211 110 214 112 c 0
 215 113 217 113 219 113 c 0x44
 221 113 223 114 223 115 c 0
 223 116 224 117 227 117 c 0
 230 117 233 118 236 120 c 0
 240 123 242 122 243 120 c 0
 244 118 244 119 244 123 c 0
 244 126 245 128 247 128 c 0
 248 128 250 129 250 130 c 0
 250 131 251 131 253 131 c 0
 255 131 257 133 258 134 c 0
 259 135 261 137 262 137 c 0
 263 137 264 138 264 139 c 0
 264 141 278 147 280 146 c 0
 281 145 281 147 281 148 c 0
 281 149 282 150 285 151 c 0
 288 152 290 154 290 155 c 0
 290 156 292 157 294 158 c 0
 298 159 308 166 315 173 c 0
 317 174 320 177 322 178 c 0
 335 186 347 239 339 250 c 0
 338 252 337 255 337 258 c 0x2440
 337 265 328 285 319 297 c 0
 315 303 311 308 311 310 c 0
 311 311 311 312 310 312 c 0
 308 312 299 327 298 334 c 0
 297 337 294 342 291 345 c 0
 288 348 286 351 286 352 c 0x21
 286 353 285 355 284 357 c 0
 283 359 282 363 280 367 c 0
 276 376 273 377 269 372 c 0
 266 369 265 369 263 371 c 0
 261 373 260 373 258 370 c 0
 254 365 249 367 247 374 c 0
EndSplineSet
Validated: 33
EndChar

StartChar: D
Encoding: 68 68 10
Width: 618
Flags: W
HStem: 50 59<154 172.813> 617 114<317.168 372.631> 625 130<295.156 363.448> 703 12<22.3395 40.9517> 717 18<40.6881 44.9139>
VStem: 65 31<645.41 661.862> 153 102<397.455 657.952> 161 107<213.071 657.792> 169 111<213.071 607.531> 178 111<139.955 192.944 193.01 212.951> 417 118<205.552 257.952> 440 104<279.048 450.996> 445 116<279.048 450.996>
LayerCount: 2
Fore
SplineSet
96 788 m 0x9e
 105 790 113 790 114 788 c 0
 115 787 119 786 125 786 c 0
 157 787 245 777 260 772 c 0
 265 770 270 769 271 770 c 0
 272 771 273 770 275 769 c 0
 277 768 283 764 290 762 c 0
 297 760 304 758 305 757 c 0
 306 756 309 755 311 755 c 0xa6
 313 755 317 754 320 752 c 0
 323 750 329 749 333 748 c 0
 337 747 340 746 341 745 c 0
 342 744 349 742 354 740 c 0
 360 738 365 735 367 734 c 0
 369 732 371 731 372 731 c 0
 373 731 377 728 381 725 c 0
 385 722 392 718 396 716 c 0
 405 712 411 705 423 693 c 0
 427 689 435 682 439 678 c 0
 449 669 471 648 476 641 c 0
 486 629 502 601 508 587 c 0
 510 583 515 574 518 568 c 0
 525 554 534 530 542 504 c 0
 545 493 550 478 552 471 c 0
 554 464 557 445 558 429 c 0
 559 413 560 394 561 387 c 0
 562 374 562 352 561 339 c 0xc608
 561 336 560 326 559 318 c 0
 558 310 556 300 555 297 c 0
 553 294 551 286 550 279 c 0
 549 270 548 267 546 267 c 0
 544 267 543 265 544 257 c 0xc410
 545 247 545 246 539 242 c 0
 536 239 534 237 535 235 c 0
 536 233 534 230 533 229 c 0
 532 227 531 224 532 222 c 0
 533 220 531 216 529 214 c 0
 527 212 525 208 525 207 c 0
 525 206 525 203 523 202 c 0
 521 201 520 198 521 196 c 0
 522 194 521 192 520 192 c 0
 519 192 516 189 514 185 c 0
 512 181 510 178 509 178 c 0
 508 178 506 174 505 169 c 0
 501 156 498 151 495 151 c 0
 494 151 493 150 493 149 c 0
 493 148 490 144 487 140 c 0
 484 136 480 130 477 126 c 0
 474 122 468 114 464 109 c 0
 460 104 456 98 456 97 c 0
 456 96 453 94 450 93 c 0
 447 92 443 89 441 87 c 0
 439 85 434 82 430 80 c 0
 426 77 423 73 422 70 c 0
 421 65 408 56 401 56 c 0
 395 56 381 48 380 44 c 0
 379 42 377 39 371 38 c 0
 366 37 361 35 359 34 c 0
 358 32 355 31 353 31 c 0
 351 31 347 30 346 28 c 0
 345 26 342 25 341 25 c 0
 340 25 337 24 336 23 c 0
 335 21 331 18 326 17 c 0
 321 16 315 14 313 13 c 0
 311 12 308 12 306 13 c 0
 302 15 295 12 293 9 c 0
 292 8 289 7 285 7 c 0
 281 7 277 6 276 5 c 0
 275 4 270 4 265 4 c 0
 260 4 254 3 251 2 c 0
 247 1 244 2 238 6 c 0
 233 9 230 13 231 15 c 0
 232 19 229 21 217 22 c 0
 198 23 177 29 172 35 c 0
 165 43 154 50 150 50 c 0
 147 50 147 50 150 55 c 0
 153 59 154 65 154 84 c 0
 154 107 154 109 158 109 c 0
 160 109 163 109 164 109 c 0
 165 109 169 110 173 111 c 0
 180 113 184 120 180 123 c 0
 178 124 177 127 178 133 c 0xc460
 179 140 178 142 176 144 c 0
 173 147 172 155 174 179 c 0
 174 187 174 194 173 195 c 0
 172 196 172 200 172 204 c 0
 172 208 170 212 169 213 c 0
 166 214 167 248 169 298 c 0xc480
 171 336 169 388 166 396 c 0
 164 400 164 403 165 406 c 0
 166 408 167 411 166 412 c 0
 165 413 164 421 164 428 c 0
 164 435 163 451 162 464 c 0
 161 486 161 493 161 501 c 0xc5
 161 503 161 508 160 513 c 0
 159 518 158 527 159 533 c 0
 160 539 159 545 158 548 c 0
 156 552 153 619 153 670 c 0
 153 679 149 685 145 683 c 0
 144 682 136 683 127 685 c 0
 112 688 110 688 106 685 c 0
 104 683 102 679 102 677 c 0
 102 675 101 671 99 670 c 0
 97 669 96 665 96 663 c 0
 96 657 82 643 77 645 c 0
 71 647 66 652 65 658 c 0
 64 663 62 664 59 663 c 0
 48 660 44 659 46 662 c 0
 47 663 47 665 45 666 c 0
 43 668 43 669 47 672 c 0
 50 674 53 676 55 676 c 0
 57 676 58 677 57 678 c 0
 56 679 54 680 52 679 c 0
 49 678 48 679 48 681 c 0
 48 683 51 684 54 685 c 0
 61 686 62 689 57 691 c 0
 55 692 54 694 54 696 c 0
 54 701 44 706 41 703 c 0
 40 702 37 701 34 702 c 0
 31 703 28 704 26 703 c 0
 24 702 23 703 23 706 c 0
 23 708 22 710 21 711 c 0
 19 712 20 713 23 715 c 0
 27 717 30 717 35 714 c 0
 41 711 45 711 45 715 c 0
 45 716 43 717 40 717 c 0
 34 717 34 719 39 722 c 0
 42 724 42 724 40 727 c 0
 37 731 39 735 44 735 c 0
 47 735 48 737 48 741 c 0
 48 745 50 749 58 757 c 0
 74 774 90 787 96 788 c 0x9e
285 653 m 0
 273 658 253 661 249 658 c 0
 247 657 247 654 248 651 c 0
 249 648 250 642 250 637 c 0
 250 632 252 625 253 622 c 0
 254 619 255 615 255 614 c 0xa608
 255 613 257 609 259 604 c 0
 261 599 262 595 261 593 c 0
 260 591 260 588 261 586 c 0
 262 584 263 578 264 573 c 0
 265 568 266 559 266 555 c 0
 267 551 268 541 268 533 c 0xa5
 268 525 269 517 270 516 c 0
 272 514 275 464 275 453 c 0
 274 419 275 381 278 365 c 0
 280 354 281 343 280 340 c 0xa480
 279 336 280 334 282 332 c 0
 284 331 285 329 284 328 c 0
 284 327 285 322 286 315 c 0
 288 308 289 291 289 276 c 0
 289 262 290 237 290 222 c 0
 290 207 291 193 290 193 c 0
 289 192 288 179 289 148 c 0
 289 140 290 139 295 140 c 0
 298 141 302 143 303 145 c 0
 305 147 308 147 311 146 c 0
 315 145 319 147 334 157 c 0
 344 164 355 170 356 170 c 0
 357 170 363 174 368 180 c 0
 373 185 378 190 379 190 c 0
 382 190 415 227 417 233 c 0xa460
 417 234 419 237 421 238 c 0
 422 239 424 243 424 245 c 0
 424 247 425 249 426 249 c 0
 427 249 428 251 428 253 c 0
 428 255 429 257 430 258 c 0
 431 259 431 264 431 268 c 0
 431 275 432 276 435 277 c 0
 438 278 438 278 436 279 c 0
 434 280 434 282 437 287 c 0
 439 291 440 295 440 297 c 0xa410
 439 301 442 316 444 320 c 0
 445 323 446 323 446 320 c 0
 446 318 447 319 448 322 c 0
 449 325 450 328 449 329 c 0
 447 332 445 359 445 398 c 0
 445 415 444 430 443 432 c 0
 442 434 442 435 444 436 c 0
 446 437 445 438 443 443 c 0
 441 446 440 451 441 451 c 0
 442 452 432 491 428 498 c 0
 426 501 426 504 427 505 c 0
 428 506 427 509 425 512 c 0
 423 515 422 519 422 521 c 0
 422 523 420 526 419 526 c 0
 417 527 418 527 420 529 c 0
 422 531 422 532 420 535 c 0
 419 537 415 542 413 547 c 0
 411 552 408 556 407 556 c 0
 406 556 405 558 405 560 c 0
 405 562 403 566 400 569 c 0
 397 571 393 575 391 577 c 0
 389 579 387 580 385 580 c 0
 383 580 381 581 381 584 c 0
 381 586 379 590 376 592 c 0
 373 594 366 600 360 606 c 0
 354 612 348 617 347 617 c 0xc408
 346 617 343 619 342 621 c 0
 341 623 338 625 337 625 c 0
 335 625 330 628 326 631 c 0
 318 637 312 639 311 635 c 0
 310 631 304 634 303 641 c 0
 302 647 301 647 298 644 c 0
 295 641 296 641 296 645 c 0
 296 648 293 650 285 653 c 0
EndSplineSet
Validated: 33
EndChar

StartChar: E
Encoding: 69 69 11
Width: 444
Flags: W
HStem: 5 138<142 177.999 178 361.707> 63 11<400.994 417.254> 322 141<157.126 320.858> 327 116<157.126 337.786> 343 14<340.726 347.91>
VStem: 34 108<142 319.607> 47 107<460.195 620> 156 11<617.14 620> 183 6<814.862 818.999>
LayerCount: 2
Fore
SplineSet
153 817 m 0x8580
 155 822 177 820 181 815 c 0
 183 812 184 812 183 817 c 0
 183 818 184 819 186 819 c 0
 188 819 189 817 189 815 c 0
 189 812 193 811 205 808 c 0
 213 806 224 804 229 803 c 0
 234 802 239 801 240 800 c 0
 242 799 273 795 305 793 c 0
 338 791 345 790 347 788 c 0
 348 787 354 786 360 785 c 0
 372 784 382 778 384 770 c 0
 385 768 390 764 395 761 c 0
 405 756 406 753 398 749 c 0
 395 748 394 747 395 746 c 0
 396 745 398 741 399 737 c 0
 400 733 401 730 402 730 c 0
 403 730 404 726 404 721 c 0
 404 716 404 711 405 709 c 0
 406 707 405 704 404 702 c 0
 402 700 402 699 406 696 c 0
 408 694 410 691 410 690 c 0
 410 688 411 686 413 685 c 0
 418 681 417 678 411 675 c 0
 408 674 406 671 407 669 c 0
 408 667 407 666 406 666 c 0
 403 666 399 662 397 657 c 0
 396 655 395 654 393 655 c 0
 390 656 387 653 385 646 c 0
 384 642 384 641 390 641 c 0
 396 641 395 641 385 637 c 0
 379 635 365 631 355 628 c 0
 345 625 335 620 333 618 c 0
 329 614 330 614 326 618 c 0
 324 620 320 621 318 620 c 0
 316 619 313 620 311 621 c 0
 308 622 291 623 273 624 c 0
 255 625 240 625 238 626 c 0
 236 627 235 626 234 624 c 0
 233 622 230 621 226 621 c 0
 221 621 220 622 220 625 c 0
 220 631 217 630 214 624 c 0
 212 619 210 619 200 619 c 0
 194 619 187 617 183 616 c 0
 174 612 162 613 161 617 c 0
 160 620 156 622 156 620 c 0
 156 620 155 592 154 559 c 0
 153 515 151 496 149 490 c 0
 145 479 147 464 152 460 c 0
 154 458 156 458 157 460 c 0
 159 464 205 465 218 461 c 0
 224 459 230 458 231 459 c 0
 232 460 233 459 233 458 c 0
 233 454 241 454 249 456 c 0
 254 457 258 460 258 461 c 0
 258 464 268 466 271 464 c 0
 272 463 276 463 279 463 c 0xa380
 283 463 289 462 292 461 c 0
 299 458 299 459 309 450 c 0
 313 447 318 443 321 443 c 0x1380
 326 442 340 427 340 422 c 0
 340 421 343 417 347 413 c 0
 353 406 353 406 349 403 c 0
 345 400 345 400 350 399 c 0
 353 398 354 396 354 394 c 0
 354 392 355 389 356 387 c 0
 359 384 358 379 351 371 c 0
 349 369 348 366 349 365 c 0
 351 362 346 357 341 357 c 0
 335 357 339 352 345 351 c 0
 354 349 353 343 344 343 c 0x0b80
 335 343 332 341 333 336 c 0
 334 333 332 332 325 330 c 0
 320 329 312 327 307 327 c 0x1380
 302 327 292 325 286 324 c 0
 279 322 267 321 253 322 c 0x2380
 241 323 224 324 214 325 c 0
 204 326 187 326 176 326 c 2
 156 327 l 1
 152 320 l 2
 147 312 144 280 143 194 c 2
 142 142 l 1
 155 143 l 2x9580
 162 143 169 144 170 145 c 0
 173 147 193 148 222 149 c 0
 250 150 256 151 298 155 c 0
 311 156 334 157 352 156 c 0
 381 155 384 154 387 150 c 0
 388 148 392 146 393 146 c 0
 397 146 396 141 393 139 c 0
 391 138 393 137 396 135 c 0
 402 132 403 129 401 97 c 0
 401 92 399 85 398 83 c 0
 394 77 395 74 400 74 c 0
 402 74 404 73 405 72 c 0
 406 71 409 70 412 70 c 0
 418 70 422 65 418 63 c 0
 417 62 412 62 407 63 c 0x4580
 400 64 397 63 395 61 c 0
 391 57 392 56 399 56 c 0
 407 56 404 51 395 49 c 0
 389 47 386 45 385 41 c 0
 384 38 383 36 381 36 c 0
 379 36 377 35 376 34 c 0
 375 33 373 34 372 35 c 0
 370 37 368 36 367 32 c 0
 365 26 351 23 323 21 c 0
 314 20 304 19 302 18 c 0
 297 16 274 12 256 11 c 0
 248 10 241 10 239 9 c 0
 227 4 180 -1 178 3 c 0
 178 4 176 3 174 2 c 0
 172 0 157 0 152 3 c 0
 151 4 145 5 140 5 c 0
 129 6 118 10 99 20 c 0
 84 27 78 26 86 17 c 0
 89 14 91 12 90 11 c 0
 89 10 76 22 67 34 c 0
 64 38 59 41 57 41 c 0
 55 41 52 43 49 45 c 0
 46 47 42 49 39 50 c 0
 37 51 35 53 35 55 c 0
 35 60 40 70 43 71 c 0
 45 72 46 73 43 78 c 0
 39 86 37 100 36 118 c 0
 36 125 35 140 34 151 c 0
 33 165 33 181 35 197 c 0
 39 230 38 308 34 339 c 0x8580
 29 375 27 444 31 480 c 0
 35 516 37 525 39 534 c 0
 40 538 42 551 43 562 c 0
 44 573 45 588 46 595 c 0
 47 602 47 611 47 614 c 0x8380
 47 618 49 627 51 635 c 0
 53 643 55 652 55 655 c 0
 55 657 58 664 60 671 c 0
 65 684 65 695 62 701 c 0
 61 703 60 707 61 708 c 0
 62 709 62 723 62 738 c 0
 62 766 65 775 71 775 c 0
 73 775 74 776 75 778 c 0
 76 779 79 781 82 781 c 0
 86 781 88 782 88 785 c 0
 90 794 103 802 114 800 c 0
 116 800 117 801 118 802 c 0
 120 806 138 812 142 811 c 0
 144 810 146 811 146 812 c 0
 146 813 147 815 149 815 c 0
 151 815 152 815 153 817 c 0x8580
171 618 m 0
 171 619 170 621 169 622 c 0
 168 623 167 622 167 620 c 0
 167 618 168 617 169 617 c 0
 170 617 171 617 171 618 c 0
EndSplineSet
Validated: 33
EndChar

StartChar: I
Encoding: 73 73 12
Width: 240
Flags: W
VStem: 28 42<995.924 1062.9> 42 125<451.291 750.641> 53 144<62.1921 382.954 383.002 424.885 425.048 528.978> 64 133<18.6641 382.954> 72 121<17.0996 376.917>
LayerCount: 2
Fore
SplineSet
51 1066 m 0x80
 54 1073 60 1073 66 1066 c 0
 70 1061 71 1060 70 1044 c 0
 69 1035 66 1026 65 1024 c 0
 61 1019 58 1010 58 1004 c 0
 58 1000 56 999 52 997 c 0
 49 996 45 993 44 991 c 0
 43 987 33 988 24 991 c 0
 13 995 4 1022 12 1029 c 0
 14 1030 15 1033 14 1035 c 0
 13 1037 15 1041 20 1045 c 0
 24 1049 28 1054 28 1055 c 0
 28 1059 38 1063 44 1062 c 0
 47 1061 49 1062 51 1066 c 0x80
99 805 m 0
 100 807 102 810 103 810 c 0
 106 810 127 789 131 782 c 0
 140 767 153 741 156 732 c 0
 162 715 167 677 166 652 c 0
 166 640 166 616 167 599 c 0x40
 168 576 168 567 166 564 c 0
 164 561 165 559 171 551 c 0
 177 542 177 540 174 538 c 0
 171 535 172 529 175 529 c 0
 177 529 181 510 186 476 c 0
 188 459 191 441 192 436 c 0
 193 431 194 427 194 426 c 0
 194 425 195 420 196 415 c 0
 197 409 197 405 196 405 c 0
 195 405 195 403 196 401 c 0
 199 395 199 357 195 350 c 0
 192 345 192 343 195 330 c 0
 197 321 198 310 197 303 c 0
 195 288 195 221 197 208 c 0x20
 198 202 199 194 199 190 c 0
 200 186 201 170 202 154 c 0
 204 127 205 125 201 122 c 0
 194 116 192 107 193 86 c 0
 194 72 193 65 191 64 c 0
 188 63 187 52 187 41 c 0
 187 38 186 35 185 35 c 0
 183 35 183 34 185 32 c 0
 188 29 188 19 185 17 c 0
 184 16 181 17 180 19 c 0
 177 22 177 23 177 20 c 0
 177 18 175 16 173 15 c 0
 170 14 168 13 168 10 c 0
 168 5 163 1 160 4 c 0
 158 7 145 6 139 3 c 0
 133 0 116 2 112 6 c 0
 111 8 105 10 101 11 c 0
 87 15 84 19 82 31 c 0
 81 37 80 41 79 41 c 0
 78 41 74 71 72 96 c 0x08
 72 101 70 108 69 113 c 0
 66 123 64 140 63 157 c 0
 63 163 62 172 61 176 c 0
 60 180 61 184 62 185 c 0
 63 186 64 194 64 203 c 0
 64 212 64 221 64 223 c 0x10
 64 230 60 251 57 256 c 0
 56 259 55 262 56 264 c 0
 57 266 56 273 54 278 c 0
 52 284 51 291 52 302 c 0
 53 312 53 319 52 322 c 0
 50 326 49 327 52 328 c 0
 55 329 55 329 52 333 c 0
 50 335 49 337 51 336 c 0
 53 335 54 336 53 341 c 0
 52 345 51 350 50 354 c 0
 49 359 49 361 53 362 c 0
 59 363 59 362 51 378 c 0
 49 382 49 382 51 383 c 0
 52 383 53 386 53 388 c 0x20
 53 390 54 392 55 392 c 0
 58 392 54 423 51 425 c 0
 50 426 48 428 48 430 c 0
 46 437 45 469 47 469 c 0
 50 469 51 481 48 484 c 0
 44 489 43 499 43 512 c 0
 44 542 43 561 42 576 c 0
 41 590 41 592 44 591 c 0
 48 589 48 593 44 604 c 0
 42 609 41 613 42 614 c 0x40
 42 615 42 620 41 626 c 0
 38 639 31 698 29 728 c 2
 28 751 l 1
 36 767 l 1
 44 784 l 1
 63 793 l 2
 79 801 84 803 90 802 c 0
 96 801 98 801 99 805 c 0
EndSplineSet
Validated: 33
EndChar

StartChar: L
Encoding: 76 76 13
Width: 479
Flags: W
HStem: -4 110<163.887 434.692> 5 112<151 195.533 225.16 440.768> 797 1<122 137>
VStem: 38 136<240.265 751.439> 38 113<118 552.995> 80 79<743.942 784.903>
LayerCount: 2
Fore
SplineSet
139 802 m 0x64
 144 807 149 806 152 799 c 0
 154 794 154 793 150 790 c 2
 145 786 l 1
 150 785 l 2
 156 783 159 776 159 763 c 0x64
 159 757 161 741 164 727 c 0
 177 662 180 638 174 557 c 0x70
 174 555 172 545 171 534 c 0
 169 514 168 506 166 471 c 0
 166 462 165 453 164 452 c 0
 163 451 162 437 162 422 c 0
 162 407 161 393 160 392 c 0
 157 388 155 349 155 322 c 0
 155 307 154 281 153 264 c 0
 150 223 149 174 150 143 c 2
 151 118 l 1x68
 159 117 l 2x64
 163 117 167 115 168 114 c 0
 169 112 170 112 172 114 c 0
 174 116 176 116 177 114 c 0
 178 113 186 112 196 112 c 0
 211 112 212 112 210 109 c 0
 208 106 209 106 224 106 c 0
 249 106 258 105 284 110 c 0
 312 115 327 117 360 118 c 0
 373 119 396 120 410 121 c 0
 434 123 436 124 441 120 c 0
 447 116 454 103 460 85 c 0
 462 80 465 75 466 74 c 0
 468 73 469 70 469 65 c 0
 469 58 468 56 462 54 c 0
 456 52 453 44 458 41 c 0
 461 39 461 26 458 26 c 0
 457 26 454 26 453 26 c 0
 452 26 447 24 444 22 c 0
 440 19 435 18 425 18 c 0
 418 18 402 16 389 14 c 0
 376 11 349 9 329 8 c 0
 309 7 292 4 291 3 c 0
 288 0 239 -4 215 -4 c 0xa4
 196 -4 185 -2 173 1 c 0
 167 3 160 5 148 7 c 0
 145 8 139 7 135 5 c 0
 131 3 127 2 126 3 c 0
 125 4 119 5 113 5 c 0
 98 6 92 7 79 13 c 0
 53 26 46 32 44 47 c 0
 43 53 42 59 41 61 c 0
 39 63 38 81 38 125 c 0x68
 38 159 37 188 36 189 c 0
 35 190 36 192 37 193 c 0
 38 194 38 195 37 197 c 0
 36 199 35 217 35 237 c 0
 35 257 34 274 33 276 c 0
 32 278 32 281 33 283 c 0
 34 285 34 291 33 297 c 0
 32 303 32 314 33 322 c 0
 34 330 35 340 35 345 c 0
 35 367 35 377 37 379 c 0
 38 380 39 391 38 404 c 0x70
 36 441 36 493 39 538 c 0
 42 585 43 603 40 618 c 0
 38 630 42 650 47 656 c 0
 49 658 50 661 49 664 c 0
 48 668 50 706 54 727 c 0
 58 749 60 754 70 764 c 0
 75 770 80 776 80 777 c 0
 80 778 82 780 84 780 c 0
 86 780 90 782 92 785 c 0
 99 794 107 797 122 798 c 0
 131 798 136 799 139 802 c 0x64
141 795 m 0
 140 796 138 797 137 797 c 0
 136 797 135 796 136 795 c 0
 137 794 139 792 140 792 c 0
 141 792 142 794 141 795 c 0
229 110 m 0
 229 109 231 108 233 109 c 0
 235 110 236 111 236 111 c 0
 236 111 235 112 233 112 c 0
 231 112 229 111 229 110 c 0
EndSplineSet
Validated: 33
EndChar

StartChar: N
Encoding: 78 78 14
Width: 566
Flags: W
VStem: 385 110<311.883 568.67> 393 121<378.318 695.116> 402 118<427.859 709.831> 412 109<466.818 720.385> 420 108<553.526 730.907> 433 92<665 779.242>
LayerCount: 2
Fore
SplineSet
504 783 m 0x04
 505 787 512 787 512 783 c 0
 512 781 513 778 514 777 c 0x40
 516 776 517 776 519 780 c 0
 522 786 526 785 525 778 c 0
 525 775 525 769 525 764 c 0
 525 759 524 754 523 753 c 0
 522 752 523 746 525 739 c 0x04
 529 726 529 709 528 662 c 0x08
 528 652 528 651 525 652 c 0x04
 523 653 523 652 524 648 c 0
 525 645 525 638 526 632 c 0
 527 622 527 622 524 625 c 0
 520 629 519 628 521 622 c 0
 523 616 523 604 521 601 c 0x10
 520 599 521 597 522 595 c 0
 524 593 523 591 522 590 c 0
 521 589 520 584 520 579 c 0x20
 520 574 519 569 518 569 c 0
 517 569 516 566 517 563 c 0
 518 560 517 556 516 555 c 0
 515 554 514 546 514 537 c 0x40
 514 525 513 520 511 519 c 0
 509 517 508 516 510 513 c 0
 511 510 511 507 510 504 c 0
 509 501 508 497 509 494 c 0
 510 491 509 488 508 486 c 0
 507 484 506 479 506 473 c 0
 505 455 500 428 498 428 c 0
 497 428 496 425 497 418 c 0
 498 413 498 407 497 405 c 0
 496 403 495 400 495 397 c 0x80
 494 387 490 371 488 368 c 0
 487 366 487 363 487 360 c 0
 487 357 486 351 485 347 c 0
 482 335 480 326 476 296 c 0
 474 281 473 269 472 268 c 0
 472 267 471 261 470 254 c 0
 469 241 459 207 449 184 c 0
 446 178 443 167 442 160 c 0
 441 153 438 140 437 133 c 0
 436 126 435 116 434 113 c 0
 432 101 427 78 425 73 c 0
 424 69 423 68 420 69 c 0x08
 418 70 414 67 407 60 c 0
 401 54 395 50 394 51 c 0
 390 53 384 49 382 41 c 0
 381 37 379 34 378 33 c 0
 377 32 375 31 375 29 c 0
 375 25 367 24 365 28 c 0
 363 32 353 36 350 34 c 0
 349 33 346 33 343 35 c 0
 340 36 337 38 335 38 c 0
 333 38 327 43 321 49 c 0
 308 62 305 70 301 107 c 0
 299 120 297 132 297 133 c 0
 296 134 296 144 295 154 c 0
 294 164 292 174 291 178 c 0
 290 182 288 192 286 201 c 0
 284 210 280 225 277 234 c 0
 272 252 266 275 266 279 c 0
 266 280 264 285 262 289 c 0
 260 293 259 297 259 298 c 0
 259 299 258 303 256 306 c 0
 255 309 253 315 253 320 c 0
 253 325 252 329 251 330 c 0
 250 331 250 334 250 337 c 0
 250 340 248 347 246 351 c 0
 244 355 242 359 242 361 c 0
 242 363 240 374 237 386 c 0
 234 398 232 410 232 414 c 0
 232 418 230 424 229 429 c 0
 227 434 226 445 225 453 c 0
 224 466 218 504 216 511 c 0
 215 513 214 512 213 511 c 0
 211 509 209 498 203 468 c 0
 198 444 197 438 193 426 c 0
 189 415 181 381 179 367 c 0
 178 358 174 345 171 337 c 0
 169 333 169 327 169 326 c 0
 169 324 167 320 165 316 c 0
 156 295 150 271 148 253 c 0
 146 230 145 226 143 208 c 0
 140 181 131 148 123 132 c 0
 120 127 119 119 118 100 c 0
 116 70 112 50 104 34 c 0
 95 15 93 13 89 12 c 0
 87 11 83 8 80 5 c 0
 75 0 72 -1 72 2 c 0
 72 3 69 4 67 4 c 0
 64 5 63 5 62 2 c 0
 61 -2 57 -2 57 2 c 0
 57 6 50 9 41 8 c 0
 36 8 34 8 34 10 c 0
 34 11 33 13 32 13 c 0
 31 13 30 12 31 11 c 0
 33 8 30 8 26 11 c 0
 23 13 23 15 25 28 c 0
 26 36 27 45 28 48 c 0
 29 51 29 57 28 63 c 0
 27 73 31 133 33 139 c 0
 34 141 36 142 37 143 c 0
 38 144 39 147 39 150 c 0
 39 155 38 155 37 153 c 0
 35 151 35 151 36 154 c 0
 37 156 38 161 38 164 c 0
 40 176 40 178 43 178 c 0
 45 178 46 180 46 185 c 0
 46 196 54 233 64 272 c 0
 66 280 68 284 72 304 c 0
 74 313 77 325 78 330 c 0
 79 335 81 346 83 354 c 0
 85 362 88 378 91 389 c 0
 94 400 98 414 99 419 c 0
 100 424 103 435 105 442 c 0
 107 449 109 459 110 465 c 0
 115 484 119 497 122 507 c 0
 124 512 125 519 125 522 c 0
 125 527 130 553 133 564 c 0
 134 568 135 574 135 578 c 0
 136 589 140 610 142 616 c 0
 143 619 143 624 143 628 c 0
 143 632 144 640 146 647 c 0
 148 654 150 663 151 667 c 0
 152 671 154 678 156 682 c 0
 159 687 160 692 160 698 c 0
 160 706 161 707 164 706 c 0
 170 705 172 708 171 715 c 0
 170 723 173 727 179 726 c 0
 182 725 183 725 183 726 c 0
 183 727 185 728 186 728 c 0
 187 728 188 729 188 730 c 0
 188 731 189 732 190 732 c 0
 191 732 197 735 202 738 c 0
 207 741 215 745 220 746 c 0
 227 748 229 748 235 745 c 0
 242 741 245 736 248 721 c 0
 253 697 258 678 260 675 c 0
 262 673 264 664 267 649 c 0
 268 644 274 629 278 619 c 0
 279 616 283 607 285 601 c 0
 287 594 291 583 294 576 c 0
 297 569 300 556 301 546 c 0
 302 536 304 527 305 526 c 0
 306 525 307 513 309 499 c 0
 311 485 313 468 314 462 c 0
 315 456 318 439 321 426 c 0
 327 399 331 378 333 364 c 0
 334 359 336 352 337 348 c 0
 338 344 341 334 342 327 c 0
 348 301 357 270 358 271 c 0
 359 272 359 275 359 279 c 0
 359 291 363 319 365 322 c 0
 366 323 368 330 368 337 c 0
 369 346 369 351 371 353 c 0
 373 355 375 361 376 369 c 0
 377 376 379 392 381 403 c 0
 384 414 385 424 385 425 c 0x80
 385 426 386 439 388 455 c 0
 390 471 393 491 393 498 c 0x40
 393 505 393 512 394 513 c 0
 395 514 396 525 396 537 c 0
 397 553 398 559 400 561 c 0
 402 563 402 565 401 570 c 0
 400 574 400 579 401 583 c 0
 402 586 402 593 402 597 c 0x20
 402 601 403 604 404 604 c 0
 406 604 408 618 409 646 c 0
 410 663 411 671 412 672 c 0x10
 413 673 414 676 414 683 c 0
 414 691 414 695 417 699 c 0
 419 702 420 707 420 708 c 0x08
 420 709 422 710 423 710 c 0
 424 710 426 712 426 713 c 0
 426 714 427 716 429 717 c 0
 431 718 435 720 436 723 c 0
 439 729 439 730 436 729 c 0
 434 728 433 729 433 731 c 0
 433 733 435 734 436 735 c 0
 438 736 438 739 438 747 c 0
 438 753 439 763 441 768 c 0
 444 776 445 777 448 776 c 0
 450 776 453 777 455 779 c 0
 459 783 473 783 477 780 c 0
 478 779 480 780 481 782 c 0
 482 784 484 785 485 783 c 0
 486 782 489 781 494 780 c 0
 501 779 503 780 504 783 c 0x04
EndSplineSet
Validated: 33
EndChar

StartChar: R
Encoding: 82 82 15
Width: 567
Flags: W
HStem: 27 13<67 68> 724 85<127.071 212.304>
VStem: 25 80<465.429 702.082> 34 104<116.765 309.214> 62 70<39.9375 166.539> 87 13<23.0067 30.8621>
LayerCount: 2
Fore
SplineSet
137 813 m 0xc4
 137 818 141 819 145 815 c 0
 146 814 151 812 155 812 c 0
 166 811 174 810 184 808 c 0
 195 806 226 797 230 795 c 0
 232 794 235 793 237 794 c 0
 242 795 260 788 274 781 c 0
 292 771 322 747 340 726 c 0
 347 717 367 684 375 665 c 0
 377 661 380 654 382 650 c 0
 396 625 398 619 400 602 c 0
 402 583 401 559 398 547 c 0
 389 513 385 502 373 492 c 0
 368 488 363 486 359 486 c 0
 354 486 351 483 341 472 c 0
 331 461 328 457 328 453 c 0
 328 445 316 431 309 431 c 0
 306 431 303 429 299 424 c 0
 295 419 291 417 288 417 c 0
 283 418 276 409 274 401 c 0
 273 398 271 395 270 393 c 0
 268 390 266 390 263 392 c 0
 258 395 257 395 253 386 c 0
 248 376 248 376 245 380 c 0
 243 383 243 381 242 371 c 0
 241 357 237 362 268 336 c 0
 277 328 291 317 298 312 c 0
 305 307 312 300 313 299 c 0
 314 298 320 294 324 291 c 0
 331 286 366 252 387 230 c 0
 392 225 399 215 404 208 c 0
 414 193 416 191 451 153 c 0
 484 118 492 109 505 93 c 0
 510 87 519 77 523 72 c 0
 531 63 537 47 539 34 c 0
 540 28 540 26 535 21 c 0
 532 18 528 16 526 16 c 0
 522 16 523 12 527 11 c 0
 529 10 531 8 531 7 c 0
 531 2 528 2 523 8 c 0
 519 13 518 14 517 11 c 0
 516 9 516 5 518 2 c 0
 522 -4 522 -5 519 -5 c 0
 518 -5 514 -3 513 -1 c 0
 510 3 510 3 502 -0 c 0
 497 -2 493 -3 493 -4 c 0
 493 -5 496 -8 499 -12 c 0
 502 -15 505 -19 505 -20 c 0
 505 -24 499 -23 494 -18 c 0
 490 -14 487 -13 483 -13 c 0
 476 -13 470 -8 447 16 c 0
 438 26 424 40 415 49 c 0
 406 58 392 72 384 81 c 0
 376 89 369 96 368 96 c 0
 367 96 365 98 363 101 c 0
 361 103 358 107 355 108 c 0
 352 110 349 112 349 113 c 0
 349 116 323 143 316 147 c 0
 313 149 310 152 309 154 c 0
 306 160 297 169 293 170 c 0
 291 171 289 173 289 174 c 0
 289 175 286 180 281 185 c 0
 276 190 272 195 272 196 c 0
 272 198 272 198 271 196 c 0
 270 192 264 193 263 197 c 0
 262 199 253 209 241 221 c 0
 229 233 217 247 214 252 c 0
 211 257 205 263 202 266 c 0
 199 269 193 276 188 282 c 0
 183 288 178 293 176 294 c 0
 174 295 163 306 151 319 c 0
 139 332 129 343 128 343 c 0
 127 343 128 339 129 332 c 0
 133 312 138 248 138 195 c 0xd0
 138 168 139 132 140 116 c 0
 142 85 141 69 135 57 c 0
 133 54 132 49 132 48 c 0xc8
 132 47 130 44 129 43 c 0
 128 42 126 39 125 37 c 0
 124 34 123 34 118 37 c 2
 113 41 l 1
 106 33 l 2
 103 29 100 26 100 25 c 0
 100 24 97 23 94 23 c 0
 90 23 88 24 87 27 c 2xc4
 86 31 l 1
 83 27 l 2
 79 23 77 22 75 25 c 0
 74 26 71 27 69 27 c 0
 67 27 67 27 68 28 c 0
 71 30 68 40 65 40 c 0
 64 40 62 42 62 45 c 0xc8
 62 47 62 51 61 53 c 0
 59 59 53 82 52 92 c 0
 51 97 49 107 48 114 c 0
 47 121 43 143 40 164 c 0
 35 194 34 207 34 228 c 0xd0
 34 244 33 263 31 276 c 0
 29 293 28 314 28 369 c 0
 28 408 27 448 26 457 c 0
 25 466 25 482 25 493 c 0
 25 504 25 530 25 551 c 0xe0
 25 572 26 589 27 589 c 0
 28 589 28 589 28 590 c 0
 25 594 34 667 40 694 c 0
 41 699 42 704 43 707 c 0
 44 710 45 713 46 715 c 0
 52 729 55 736 57 738 c 0
 58 739 60 742 59 744 c 0
 58 746 60 751 62 755 c 0xc8
 64 759 66 764 67 767 c 0
 68 773 80 787 84 787 c 0
 85 787 87 788 87 789 c 0
 87 790 89 791 90 791 c 0
 91 791 92 792 92 793 c 0
 92 796 103 806 108 808 c 0
 111 809 118 809 125 809 c 0
 137 808 137 809 137 813 c 0xc4
159 721 m 0
 157 722 152 724 148 724 c 0
 141 724 135 719 133 711 c 0
 132 709 130 705 129 704 c 0
 125 700 120 689 119 682 c 0
 118 678 118 675 117 674 c 0
 116 673 115 670 115 667 c 0
 115 664 114 662 113 661 c 0
 112 660 111 657 111 655 c 0
 111 653 110 648 108 644 c 0
 105 638 105 631 105 598 c 0xe0
 105 577 106 557 107 554 c 0
 110 533 111 505 110 490 c 0
 109 469 110 464 119 466 c 0
 124 467 127 466 133 462 c 0
 137 459 141 457 141 456 c 0
 141 455 148 450 155 444 c 0
 162 438 171 432 173 429 c 0
 179 422 183 422 194 430 c 0
 199 434 203 437 204 437 c 0
 206 437 237 464 247 475 c 0
 253 482 262 490 266 495 c 0
 277 506 289 524 296 536 c 0
 303 549 312 575 311 579 c 0
 310 580 311 584 312 587 c 0
 313 591 313 594 311 598 c 0
 310 601 308 606 307 610 c 0
 306 614 304 619 302 622 c 0
 300 625 297 631 295 635 c 0
 293 639 288 645 284 649 c 0
 261 669 238 688 230 692 c 0
 214 701 199 709 196 709 c 0
 195 709 191 710 188 712 c 0
 185 714 179 716 173 717 c 0
 167 718 161 720 159 721 c 0
EndSplineSet
Validated: 33
EndChar

StartChar: U
Encoding: 85 85 16
Width: 480
Flags: W
HStem: 2 115<231 288.95>
VStem: 19 103<509.071 785.579> 28 100<580.06 785.097> 50 53<763.305 803.035> 71 79<228.355 457.178> 105 101<118.281 184.984> 308 105<120.997 241.968 532.915 689.997> 326 118<173 626.632>
LayerCount: 2
Fore
SplineSet
352 832 m 2x81
 359 841 362 841 366 833 c 0
 368 830 371 825 373 824 c 0
 375 823 376 818 377 813 c 0
 378 808 380 799 382 793 c 0
 388 774 394 745 397 721 c 0
 399 707 401 698 403 695 c 0
 405 693 406 691 406 690 c 0
 406 690 406 686 408 681 c 0
 410 676 413 666 414 659 c 0
 415 652 418 641 420 634 c 0
 422 627 423 615 424 607 c 0
 428 577 431 558 434 543 c 0
 436 534 437 513 438 496 c 0
 439 479 440 458 441 449 c 0
 444 423 446 325 444 305 c 0x81
 441 278 436 242 433 230 c 0
 432 224 429 212 428 203 c 0
 424 182 419 160 416 155 c 0
 415 153 413 149 413 146 c 0
 411 136 399 107 394 100 c 0
 391 96 389 92 389 91 c 0
 389 87 349 44 345 44 c 0
 344 44 341 40 338 36 c 0
 334 30 332 28 329 29 c 0
 327 29 320 27 315 24 c 0
 283 6 271 2 259 2 c 0
 246 2 219 7 217 10 c 0
 216 11 210 15 203 18 c 0
 196 21 187 27 183 31 c 0
 178 35 172 41 169 43 c 0
 166 45 164 48 164 49 c 0
 164 50 160 53 156 56 c 0
 151 59 149 62 149 66 c 0
 149 69 148 71 147 70 c 0
 144 68 141 73 142 78 c 0
 143 80 142 82 140 82 c 0
 138 82 136 83 136 84 c 0
 136 85 135 88 133 89 c 0
 131 90 129 96 129 100 c 0
 129 104 127 109 125 111 c 0
 123 113 121 119 120 124 c 0
 119 129 117 135 116 137 c 0
 110 150 105 160 105 164 c 0
 105 166 104 168 103 169 c 0x96
 102 170 101 172 102 174 c 0
 103 176 102 178 101 180 c 0
 100 181 98 187 97 193 c 0
 96 199 95 204 94 205 c 0
 93 206 92 209 92 211 c 0
 92 212 92 217 91 222 c 0
 90 227 88 235 88 241 c 0
 88 247 87 252 86 253 c 0
 84 254 84 260 81 281 c 0
 80 286 80 294 79 299 c 0
 78 304 77 309 77 311 c 0
 77 313 76 319 74 326 c 0
 72 333 71 342 71 348 c 0x88
 71 353 70 362 69 366 c 0
 68 370 66 382 65 394 c 0
 61 427 62 425 67 426 c 0
 72 427 72 428 65 431 c 0
 54 436 50 444 48 461 c 0
 45 487 42 508 40 516 c 0
 39 520 38 526 39 528 c 0
 40 530 39 534 38 536 c 0
 33 549 30 566 28 600 c 0xa0
 28 609 26 619 25 622 c 0
 19 639 16 675 19 693 c 0xc0
 20 700 22 718 23 733 c 0
 26 765 30 777 43 787 c 0
 46 790 50 792 50 793 c 0
 50 794 55 797 60 800 c 0
 68 804 72 804 81 803 c 0
 92 802 103 795 103 789 c 0x90
 103 787 104 786 106 785 c 0
 108 784 109 780 110 776 c 0
 111 772 113 766 114 764 c 0
 115 762 116 754 116 746 c 0
 116 738 119 725 120 715 c 0
 121 705 122 695 122 691 c 0xc0
 122 675 122 672 124 667 c 0
 125 664 127 644 128 622 c 0xa0
 129 600 131 581 131 580 c 0
 132 578 135 556 139 517 c 0
 140 505 142 487 143 478 c 0
 147 446 149 417 150 388 c 0x88
 151 372 152 357 153 355 c 0
 154 353 155 350 154 347 c 0
 153 344 156 329 159 313 c 0
 162 297 165 282 165 277 c 0
 168 249 178 196 182 188 c 0
 189 176 200 152 200 150 c 0
 200 148 201 147 203 147 c 0
 205 147 206 146 206 145 c 0
 206 144 212 138 219 130 c 2
 231 115 l 1
 252 117 l 2
 263 117 275 118 279 119 c 0
 283 120 288 122 289 121 c 0
 292 120 305 140 305 146 c 0
 305 148 306 154 308 159 c 0x86
 312 172 315 186 317 206 c 0
 318 216 320 230 321 237 c 0
 323 249 325 291 326 343 c 0
 326 354 326 375 325 391 c 0
 324 407 323 440 323 465 c 0
 323 490 322 516 321 524 c 0
 320 532 319 547 319 559 c 0
 316 627 315 632 309 651 c 0
 306 662 301 676 299 684 c 0
 296 692 294 703 293 708 c 0
 292 713 290 721 289 724 c 0
 287 727 286 731 287 733 c 0
 288 735 287 737 286 739 c 0
 285 741 282 745 282 749 c 0
 282 753 281 758 280 762 c 0
 279 769 281 776 284 776 c 0
 288 776 297 788 301 802 c 0
 304 812 306 816 309 817 c 0
 311 818 314 820 315 823 c 0
 318 829 318 829 334 826 c 2
 345 824 l 1
 352 832 l 2x81
EndSplineSet
Validated: 33
EndChar

StartChar: colon
Encoding: 58 58 17
Width: 192
Flags: W
HStem: 96 100<95.0469 136.485>
VStem: 66 85<666.291 747.998> 86 59<728.04 748.454>
LayerCount: 2
Fore
SplineSet
86 748 m 0xa0
 86 753 87 753 98 751 c 0
 109 749 114 749 132 748 c 0
 138 748 145 736 145 727 c 0xa0
 145 724 147 722 148 721 c 0
 150 720 151 716 151 712 c 0
 151 708 152 703 153 700 c 0
 157 692 153 672 147 666 c 0
 144 663 135 656 127 650 c 2
 114 640 l 1
 111 647 l 2
 109 652 106 655 98 656 c 0
 87 658 66 675 66 681 c 0xc0
 66 683 65 685 63 687 c 0
 58 692 58 728 63 728 c 0
 70 728 86 742 86 748 c 0xa0
66 198 m 0xc0
 81 205 102 204 119 196 c 0
 137 187 142 180 145 156 c 0xa0
 147 140 147 137 142 131 c 0
 139 127 137 122 137 120 c 0
 137 113 114 96 104 96 c 0
 100 96 97 95 97 92 c 0
 97 89 96 87 95 88 c 0
 92 90 77 97 67 101 c 0
 60 104 58 107 56 115 c 0
 55 121 53 128 51 130 c 0
 43 139 38 156 40 168 c 0
 42 181 50 190 66 198 c 0xc0
EndSplineSet
Validated: 33
EndChar

StartChar: k
Encoding: 107 107 18
Width: 537
Flags: W
VStem: 18.2461 112.62<453.697 766.033> 27.2988 104.291<453.173 788.66> 38.1631 176.352<322.991 383.284> 44.3193 62.6465<765.852 801.618> 55.1826 107.007<17.2343 321.13> 70.5732 91.6162<5.95425 134.507> 395.576 18.8301<761 764.571>
LayerCount: 2
Fore
SplineSet
96.64453125 815.65625 m 0x12
 98.0927734375 816.559570312 100.991210938 816.743164062 102.982421875 815.836914062 c 0
 106.2421875 814.750976562 106.784179688 812.940429688 106.965820312 802.981445312 c 0x12
 107.147460938 794.833984375 108.594726562 788.31640625 112.03515625 780.892578125 c 0
 114.5703125 775.279296875 117.10546875 767.131835938 117.829101562 762.786132812 c 0
 118.373046875 758.622070312 119.639648438 752.647460938 120.544921875 749.569335938 c 0
 122.356445312 743.775390625 128.150390625 681.671875 128.150390625 667.368164062 c 0
 128.150390625 662.840820312 129.41796875 636.40625 130.866210938 608.5234375 c 0x82
 132.676757812 570.86328125 132.857421875 552.212890625 131.58984375 536.099609375 c 0x42
 129.779296875 515.458984375 130.140625 472.365234375 132.314453125 459.330078125 c 2
 133.21875 453.172851562 l 1
 141.004882812 460.778320312 l 2
 145.168945312 464.760742188 149.15234375 468.202148438 150.05859375 468.202148438 c 0
 151.325195312 468.202148438 156.577148438 472.547851562 166.897460938 482.32421875 c 0
 169.25 484.497070312 171.603515625 486.306640625 172.147460938 486.306640625 c 0
 173.415039062 486.306640625 176.853515625 489.205078125 188.443359375 499.70703125 c 0
 193.875 504.594726562 198.762695312 508.034179688 199.48828125 507.491210938 c 0
 200.03125 506.766601562 201.48046875 508.034179688 202.565429688 510.388671875 c 0
 203.65234375 512.560546875 206.368164062 515.095703125 208.72265625 516.181640625 c 0
 210.89453125 517.087890625 212.705078125 518.716796875 212.705078125 519.803710938 c 0
 212.705078125 520.890625 215.6015625 524.330078125 219.041992188 527.409179688 c 0
 222.482421875 530.66796875 225.379882812 534.469726562 225.379882812 536.099609375 c 0
 225.379882812 537.547851562 226.647460938 538.815429688 228.094726562 538.815429688 c 0
 229.723632812 538.815429688 231.35546875 540.08203125 231.8984375 541.53125 c 0
 232.622070312 542.978515625 234.0703125 544.247070312 235.517578125 544.247070312 c 0
 236.966796875 544.247070312 238.053710938 545.15234375 238.053710938 546.418945312 c 0
 238.053710938 547.685546875 242.217773438 552.938476562 247.467773438 558.188476562 c 0
 253.08203125 563.982421875 257.06640625 569.4140625 257.06640625 571.94921875 c 0
 257.06640625 574.844726562 258.151367188 575.931640625 261.228515625 575.751953125 c 0
 264.849609375 575.5703125 265.212890625 576.293945312 264.125976562 581.7265625 c 0
 263.220703125 586.251953125 263.763671875 587.881835938 266.118164062 588.788085938 c 0
 267.928710938 589.510742188 269.919921875 588.96875 270.825195312 587.51953125 c 0
 272.092773438 585.708984375 272.455078125 587.338867188 272.092773438 592.227539062 c 0
 271.731445312 597.840820312 272.275390625 599.469726562 274.447265625 599.469726562 c 0
 278.791992188 599.469726562 283.5 605.083007812 282.05078125 608.704101562 c 0
 281.146484375 611.057617188 281.508789062 611.6015625 283.861328125 610.6953125 c 0
 286.034179688 609.790039062 286.940429688 610.514648438 286.940429688 613.049804688 c 0
 286.940429688 615.764648438 288.026367188 616.490234375 290.922851562 616.127929688 c 0
 294.724609375 615.764648438 295.087890625 616.490234375 295.087890625 623.913085938 c 0
 295.087890625 630.61328125 295.810546875 632.060546875 298.708007812 632.60546875 c 0
 304.322265625 633.690429688 306.857421875 636.587890625 305.951171875 640.932617188 c 0
 305.225585938 643.467773438 307.038085938 646.908203125 311.383789062 651.796875 c 0
 314.823242188 655.598632812 317.719726562 659.9453125 317.719726562 661.392578125 c 0
 317.719726562 662.840820312 320.978515625 667.005859375 324.962890625 670.446289062 c 0
 329.489257812 674.610351562 332.204101562 678.592773438 332.204101562 681.30859375 c 0
 332.204101562 687.284179688 338.904296875 699.958007812 342.163085938 699.958007812 c 0
 343.611328125 699.958007812 344.87890625 701.587890625 344.87890625 703.400390625 c 0
 344.87890625 705.390625 347.233398438 708.649414062 350.309570312 710.822265625 c 0
 353.208007812 712.995117188 356.28515625 716.796875 356.829101562 719.512695312 c 0
 357.552734375 722.228515625 359.001953125 725.48828125 360.087890625 726.935546875 c 0
 361.174804688 728.384765625 363.346679688 732.188476562 364.9765625 735.447265625 c 0
 367.874023438 741.96484375 384.53125 755.543945312 391.412109375 757.173828125 c 0
 393.764648438 757.8984375 395.576171875 758.983398438 395.576171875 759.889648438 c 0
 395.576171875 760.794921875 397.024414062 761.518554688 399.015625 761.518554688 c 0
 400.827148438 761.518554688 403.362304688 762.786132812 404.62890625 764.235351562 c 0
 405.896484375 765.68359375 408.0703125 766.952148438 409.3359375 766.952148438 c 0
 410.78515625 766.952148438 411.872070312 767.856445312 411.872070312 769.124023438 c 0
 411.872070312 772.926757812 414.224609375 768.943359375 414.40625 764.778320312 c 0
 414.587890625 761.157226562 415.493164062 760.61328125 420.743164062 761.157226562 c 0
 425.26953125 761.518554688 426.899414062 760.794921875 427.624023438 758.079101562 c 0
 428.709960938 753.551757812 433.055664062 751.922851562 434.322265625 755.543945312 c 0
 435.228515625 757.717773438 435.952148438 757.8984375 438.125 756.086914062 c 0
 442.108398438 752.647460938 446.815429688 755.181640625 445.3671875 760.0703125 c 0
 444.462890625 763.873046875 444.82421875 763.692382812 448.626953125 758.983398438 c 0
 452.790039062 754.276367188 453.333984375 754.094726562 456.956054688 756.450195312 c 0
 458.947265625 757.8984375 460.21484375 759.708984375 459.490234375 760.250976562 c 0
 458.947265625 760.9765625 459.30859375 761.518554688 460.39453125 761.518554688 c 0
 463.47265625 761.518554688 463.111328125 757.8984375 459.671875 754.094726562 c 0
 457.135742188 751.19921875 457.135742188 750.65625 459.671875 746.671875 c 0
 461.30078125 744.137695312 462.024414062 741.784179688 461.481445312 741.057617188 c 0
 460.7578125 740.334960938 461.663085938 737.798828125 463.291992188 735.447265625 c 0
 466.9140625 729.833007812 467.094726562 721.141601562 463.654296875 714.805664062 c 0
 462.387695312 712.08984375 460.39453125 706.658203125 459.30859375 702.673828125 c 0
 453.333984375 679.861328125 443.013671875 656.685546875 436.495117188 651.072265625 c 0
 434.865234375 649.8046875 433.598632812 647.26953125 433.598632812 645.458984375 c 0
 433.598632812 643.649414062 431.96875 641.657226562 429.9765625 641.11328125 c 0
 427.986328125 640.571289062 425.451171875 638.216796875 424.364257812 636.044921875 c 0
 423.279296875 633.87109375 420.923828125 630.430664062 419.11328125 628.440429688 c 0
 417.303710938 626.447265625 415.310546875 623.0078125 414.587890625 620.654296875 c 0
 414.044921875 618.481445312 411.508789062 614.498046875 408.973632812 612.14453125 c 0
 406.62109375 609.790039062 404.62890625 606.169921875 404.62890625 604.359375 c 0
 404.62890625 602.368164062 403.1796875 598.926757812 401.188476562 596.573242188 c 0
 399.37890625 594.219726562 397.38671875 590.41796875 396.663085938 588.424804688 c 0
 395.938476562 586.251953125 392.677734375 581.364257812 389.057617188 577.743164062 c 0
 385.618164062 574.122070312 381.272460938 567.965820312 379.28125 564.34375 c 0
 377.469726562 560.54296875 374.572265625 556.55859375 373.124023438 555.291015625 c 0
 371.494140625 553.842773438 370.227539062 551.669921875 370.227539062 550.221679688 c 0
 370.227539062 548.7734375 366.245117188 542.618164062 361.174804688 536.4609375 c 0
 356.28515625 530.3046875 352.122070312 523.967773438 352.122070312 522.157226562 c 0
 352.122070312 520.346679688 349.767578125 516.364257812 346.870117188 513.103515625 c 0
 344.154296875 509.844726562 341.077148438 505.137695312 340.534179688 502.6015625 c 0
 337.456054688 492.283203125 333.110351562 485.40234375 322.969726562 475.262695312 c 0
 317.17578125 469.467773438 310.83984375 464.580078125 309.029296875 464.580078125 c 0
 307.217773438 464.580078125 301.966796875 462.2265625 297.259765625 459.1484375 c 0
 292.551757812 456.251953125 287.6640625 453.715820312 286.577148438 453.715820312 c 0
 285.491210938 453.715820312 278.791992188 447.741210938 271.731445312 440.499023438 c 0
 264.669921875 433.439453125 248.916992188 417.866210938 236.60546875 406.280273438 c 0
 224.473632812 394.69140625 214.514648438 384.370117188 214.514648438 383.284179688 c 0x22
 214.514648438 382.198242188 223.206054688 373.869140625 234.0703125 364.634765625 c 0
 251.814453125 349.245117188 270.282226562 332.407226562 280.6015625 321.905273438 c 0
 282.775390625 319.732421875 285.309570312 317.920898438 286.034179688 317.920898438 c 0
 286.940429688 317.920898438 291.103515625 314.30078125 295.450195312 309.774414062 c 0
 299.614257812 305.248046875 303.958984375 301.625 305.044921875 301.625 c 0
 306.131835938 301.625 307.760742188 299.453125 308.66796875 296.91796875 c 0
 310.116210938 293.297851562 311.01953125 292.573242188 312.83203125 294.202148438 c 0
 314.642578125 295.650390625 316.815429688 294.565429688 321.522460938 289.674804688 c 0
 324.962890625 286.0546875 329.669921875 282.071289062 332.384765625 280.803710938 c 0
 334.919921875 279.537109375 338.54296875 275.373046875 340.3515625 271.932617188 c 0
 342.34375 268.310546875 345.241210938 265.051757812 346.690429688 264.508789062 c 0
 348.319335938 263.96484375 351.397460938 261.068359375 353.5703125 258.170898438 c 0
 357.915039062 252.377929688 371.676757812 242.599609375 389.057617188 233.184570312 c 0
 400.646484375 226.84765625 413.500976562 217.975585938 423.279296875 209.647460938 c 0
 436.1328125 198.784179688 457.6796875 177.237304688 460.39453125 172.711914062 c 0
 461.84375 169.99609375 464.740234375 167.459960938 466.55078125 167.09765625 c 0
 468.723632812 166.5546875 472.70703125 160.21875 477.233398438 150.259765625 c 0
 481.216796875 141.569335938 487.010742188 131.428710938 489.908203125 127.989257812 c 0
 492.805664062 124.369140625 495.158203125 120.74609375 495.158203125 119.841796875 c 0
 495.158203125 118.754882812 497.33203125 115.676757812 500.047851562 112.9609375 c 0
 503.848632812 108.977539062 504.211914062 107.891601562 501.858398438 107.891601562 c 0
 497.512695312 107.891601562 498.055664062 104.451171875 503.306640625 99.5615234375 c 0
 506.747070312 96.302734375 507.65234375 93.767578125 507.471679688 87.25 c 0
 507.471679688 81.8193359375 506.56640625 78.7421875 504.575195312 78.0166015625 c 0
 502.401367188 77.2919921875 502.219726562 75.119140625 502.9453125 67.876953125 c 0
 504.03125 59.548828125 503.848632812 58.642578125 500.772460938 59.548828125 c 0
 498.78125 59.91015625 496.065429688 58.8232421875 494.434570312 57.013671875 c 0
 492.805664062 55.0224609375 490.26953125 53.57421875 488.822265625 53.57421875 c 0
 487.010742188 53.57421875 486.106445312 51.9443359375 486.106445312 48.8662109375 c 0
 486.106445312 44.521484375 485.563476562 44.33984375 481.216796875 45.4248046875 c 0
 478.3203125 45.96875 475.966796875 47.4169921875 475.603515625 48.3232421875 c 0
 474.337890625 51.7626953125 471.983398438 49.771484375 472.888671875 46.150390625 c 0
 473.793945312 42.890625 473.431640625 42.5283203125 469.810546875 43.615234375 c 0
 464.740234375 45.244140625 446.634765625 48.3232421875 441.383789062 48.5029296875 c 0
 439.2109375 48.5029296875 437.0390625 49.58984375 436.495117188 51.0390625 c 0
 435.047851562 54.66015625 432.331054688 54.1162109375 427.8046875 49.58984375 c 0
 424.182617188 45.96875 423.822265625 45.96875 421.649414062 49.046875 c 0
 420.200195312 50.857421875 418.571289062 51.9443359375 418.02734375 51.21875 c 0
 417.303710938 50.67578125 414.587890625 51.21875 411.690429688 52.66796875 c 0
 408.973632812 54.1162109375 405.353515625 54.841796875 403.723632812 54.2978515625 c 0
 401.0078125 53.2119140625 386.522460938 61.359375 386.522460938 64.0751953125 c 0
 386.522460938 64.798828125 383.98828125 66.427734375 381.090820312 67.876953125 c 0
 378.012695312 69.1435546875 374.029296875 72.4033203125 372.400390625 74.939453125 c 0
 370.76953125 77.6552734375 366.245117188 82.54296875 362.442382812 85.8017578125 c 0
 358.8203125 89.2412109375 355.743164062 92.8642578125 355.743164062 93.767578125 c 0
 355.743164062 94.85546875 353.751953125 97.2099609375 351.215820312 99.201171875 c 0
 348.319335938 101.373046875 346.327148438 105.357421875 345.602539062 109.702148438 c 0
 344.87890625 114.227539062 343.069335938 117.306640625 340.3515625 118.754882812 c 0
 338.178710938 120.0234375 333.291015625 124.911132812 329.489257812 129.799804688 c 0
 325.685546875 134.869140625 321.340820312 139.578125 319.7109375 140.482421875 c 0
 311.564453125 144.827148438 271.006835938 185.0234375 260.325195312 199.327148438 c 0
 253.624023438 208.37890625 240.588867188 224.674804688 231.171875 235.5390625 c 0
 221.7578125 246.583984375 208.72265625 261.79296875 202.022460938 269.758789062 c 0
 195.504882812 277.544921875 188.443359375 285.330078125 186.631835938 286.958984375 c 0
 184.822265625 288.58984375 175.587890625 296.737304688 166.171875 305.248046875 c 0
 156.756835938 313.756835938 148.06640625 321 147.162109375 321.361328125 c 0
 145.712890625 321.723632812 145.532226562 319.189453125 146.435546875 313.213867188 c 0
 146.98046875 308.326171875 148.428710938 290.0390625 149.333984375 272.657226562 c 0
 150.419921875 255.275390625 151.688476562 239.703125 152.231445312 238.254882812 c 0
 157.482421875 223.951171875 165.810546875 149.172851562 163.637695312 135.05078125 c 0
 162.913085938 129.618164062 162.189453125 112.418945312 162.189453125 97.0283203125 c 0x0a
 162.008789062 81.63671875 161.102539062 63.712890625 160.015625 57.1943359375 c 0
 158.9296875 50.67578125 157.663085938 43.072265625 157.482421875 39.994140625 c 0
 156.756835938 31.1220703125 153.318359375 16.63671875 150.239257812 8.8505859375 c 0
 147.704101562 2.3330078125 146.435546875 1.427734375 138.65234375 -0.3828125 c 0
 132.314453125 -1.8310546875 126.338867188 -1.8310546875 118.373046875 -0.5634765625 c 0
 112.216796875 0.341796875 106.059570312 0.884765625 104.612304688 0.341796875 c 0
 103.1640625 -0.2021484375 101.715820312 0.5234375 101.171875 1.9716796875 c 0
 100.448242188 3.419921875 97.0068359375 5.2314453125 93.205078125 5.7734375 c 0
 84.513671875 7.2216796875 80.349609375 10.84375 74.91796875 22.0693359375 c 0
 71.8408203125 28.5869140625 70.75390625 34.380859375 70.5732421875 43.9765625 c 0x06
 70.390625 52.125 69.3046875 58.4619140625 67.4951171875 61.177734375 c 0
 61.51953125 70.2314453125 55.1826171875 89.2412109375 55.1826171875 97.9326171875 c 0x0a
 55.1826171875 102.821289062 54.4580078125 109.521484375 53.373046875 112.780273438 c 0
 52.4658203125 116.0390625 50.6572265625 121.470703125 49.75 124.911132812 c 0
 48.6640625 128.350585938 47.3984375 138.670898438 46.853515625 147.905273438 c 0
 45.94921875 162.93359375 43.95703125 268.310546875 44.3193359375 288.408203125 c 0x12
 44.3193359375 292.573242188 43.232421875 297.099609375 42.146484375 298.366210938 c 0
 39.068359375 301.625 38.88671875 302.532226562 38.1630859375 322.991210938 c 0x22
 37.6201171875 332.586914062 36.533203125 343.451171875 35.6279296875 346.890625 c 0
 33.998046875 352.684570312 32.732421875 367.350585938 28.205078125 441.04296875 c 0
 27.298828125 455.52734375 26.9365234375 481.23828125 27.298828125 498.076171875 c 0x42
 27.8427734375 515.095703125 27.48046875 533.745117188 26.3935546875 539.719726562 c 0
 20.2392578125 577.560546875 19.15234375 590.779296875 18.24609375 636.587890625 c 0x82
 17.703125 663.926757812 16.435546875 691.266601562 15.3486328125 697.2421875 c 0
 10.822265625 724.583984375 15.7119140625 770.209960938 22.7734375 765.865234375 c 0
 23.677734375 765.322265625 24.40234375 766.587890625 24.40234375 768.581054688 c 0
 24.40234375 771.115234375 25.849609375 772.3828125 29.47265625 772.744140625 c 0
 33.0927734375 773.107421875 34.541015625 774.375 34.904296875 777.815429688 c 0
 35.265625 780.16796875 37.6201171875 784.15234375 39.9736328125 786.32421875 c 0
 42.3271484375 788.497070312 44.3193359375 791.575195312 44.3193359375 792.842773438 c 0
 44.3193359375 795.919921875 48.12109375 797.731445312 54.27734375 797.731445312 c 0
 56.6318359375 797.731445312 59.166015625 798.635742188 59.708984375 799.541992188 c 0
 60.251953125 800.627929688 62.607421875 801.3515625 64.958984375 801.3515625 c 0
 67.6748046875 801.3515625 69.84765625 802.981445312 71.296875 806.060546875 c 0
 72.9267578125 809.862304688 74.193359375 810.5859375 77.81640625 809.680664062 c 0
 81.0751953125 808.776367188 82.7041015625 809.3203125 83.4267578125 811.310546875 c 0
 84.15234375 812.758789062 86.6865234375 814.02734375 89.40234375 814.02734375 c 0
 91.9384765625 814.02734375 95.197265625 814.750976562 96.64453125 815.65625 c 0x12
  Spiro
    96.6454 815.656 o
    98.4871 816.306 o
    100.778 816.393 o
    102.982 815.837 o
    105.421 814.236 o
    106.577 810.493 o
    106.966 802.981 o
    107.595 795.29 o
    109.235 788.1 o
    112.035 780.892 o
    114.501 774.675 o
    116.57 768.158 o
    117.829 762.786 o
    118.573 758.197 o
    119.561 753.434 o
    120.545 749.569 o
    123.318 728.892 o
    126.583 693.714 o
    128.15 667.368 o
    128.531 656.313 o
    129.519 635.141 o
    130.866 608.522 o
    132.139 576.616 o
    132.367 553.649 o
    131.59 536.099 o
    130.49 509.948 o
    130.759 480.412 o
    132.314 459.329 [
    133.219 453.173 v
    141.005 460.777 ]
    144.998 464.469 o
    148.236 467.164 o
    150.058 468.201 o
    152.689 469.687 o
    158.233 474.323 o
    166.897 482.324 o
    169.181 484.32 o
    171.069 485.758 o
    172.148 486.307 o
    174.357 487.444 o
    179.356 491.57 o
    188.443 499.705 o
    193.555 504.014 o
    197.512 506.802 o
    199.487 507.491 o
    200.284 507.397 o
    201.407 508.431 o
    202.566 510.388 o
    204.12 512.612 o
    206.323 514.682 o
    208.721 516.182 o
    210.718 517.28 o
    212.156 518.584 o
    212.704 519.803 o
    213.581 521.571 o
    215.873 524.312 o
    219.042 527.408 o
    222.211 530.744 o
    224.502 533.848 o
    225.379 536.099 o
    225.761 537.445 o
    226.748 538.433 o
    228.095 538.815 o
    229.683 539.196 o
    231.034 540.184 o
    231.897 541.53 o
    232.835 542.877 o
    234.098 543.865 o
    235.518 544.246 o
    236.818 544.527 o
    237.719 545.294 o
    238.053 546.419 o
    239.325 548.863 o
    242.698 553.09 o
    247.468 558.188 o
    252.447 563.762 o
    255.826 568.546 o
    257.065 571.949 o
    257.459 574.26 o
    258.783 575.49 o
    261.229 575.751 o
    263.829 576.012 o
    264.662 577.725 o
    264.126 581.726 o
    263.717 585.364 o
    264.355 587.561 o
    266.118 588.787 o
    267.94 589.102 o
    269.606 588.652 o
    270.825 587.52 o
    271.797 586.849 o
    272.207 588.434 o
    272.093 592.227 o
    272.059 596.596 o
    272.791 598.841 o
    274.446 599.47 o
    278.667 601.056 o
    281.691 604.705 o
    282.051 608.704 o
    281.595 610.466 o
    282.146 611.105 o
    283.861 610.695 o
    285.624 610.34 o
    286.625 611.113 o
    286.939 613.049 o
    287.328 615.133 o
    288.604 616.094 o
    290.923 616.127 o
    293.69 616.334 o
    294.853 618.518 o
    295.087 623.913 o
    295.382 629.019 o
    296.484 631.6 o
    298.709 632.604 o
    303.278 634.278 o
    305.724 637.087 o
    305.951 640.932 o
    306.071 643.786 o
    307.885 647.374 o
    311.383 651.796 o
    314.552 655.648 o
    316.843 659.109 o
    317.72 661.393 o
    318.711 663.616 o
    321.318 666.895 o
    324.962 670.445 o
    328.848 674.505 o
    331.334 678.214 o
    332.204 681.309 o
    334.059 688.791 o
    338.137 696.457 o
    342.163 699.958 o
    343.51 700.447 o
    344.497 701.703 o
    344.879 703.398 o
    345.602 705.723 o
    347.537 708.377 o
    350.311 710.822 o
    353.165 713.434 o
    355.543 716.539 o
    356.829 719.513 o
    357.753 722.32 o
    358.922 724.974 o
    360.088 726.936 o
    361.475 729.059 o
    363.228 732.116 o
    364.977 735.446 o
    371.579 743.605 o
    382.154 752.272 o
    391.411 757.173 o
    393.535 757.997 o
    395.02 758.944 o
    395.576 759.889 o
    396.024 760.713 o
    397.24 761.298 o
    399.016 761.519 o
    400.992 761.9 o
    403.014 762.888 o
    404.629 764.235 o
    406.129 765.581 o
    407.836 766.569 o
    409.336 766.95 o
    410.636 767.232 o
    411.536 767.998 o
    411.871 769.123 o
    412.487 770.612 o
    413.669 768.597 o
    414.406 764.778 o
    414.962 762.11 o
    416.809 761.049 o
    420.743 761.156 o
    424.375 761.123 o
    426.525 760.163 o
    427.623 758.079 o
    429.559 754.607 o
    432.266 753.586 o
    434.322 755.544 o
    435.227 757.052 o
    436.376 757.233 o
    438.125 756.087 o
    442.091 754.504 o
    445.02 756.103 o
    445.368 760.07 o
    444.965 762.523 o
    445.892 762.201 o
    448.627 758.984 o
    451.829 755.713 o
    454.114 755.014 o
    456.955 756.449 o
    458.657 757.956 o
    459.598 759.347 o
    459.49 760.251 o
    459.242 760.901 o
    459.557 761.351 o
    460.395 761.519 o
    462.339 760.441 o
    462.07 757.706 o
    459.671 754.095 o
    457.982 751.77 o
    457.982 749.721 o
    459.671 746.672 o
    460.984 744.253 o
    461.616 742.271 o
    461.481 741.059 o
    461.267 739.806 o
    461.939 737.784 o
    463.292 735.446 o
    465.759 729.016 o
    465.893 721.718 o
    463.654 714.805 o
    462.207 711.342 o
    460.635 706.982 o
    459.309 702.674 o
    452.195 680.425 o
    443.971 661.86 o
    436.495 651.072 o
    435.021 649.458 o
    433.986 647.435 o
    433.598 645.459 o
    433.103 643.65 o
    431.799 642.078 o
    429.977 641.113 o
    427.88 640.042 o
    425.858 638.201 o
    424.364 636.044 o
    422.924 633.552 o
    421.036 630.811 o
    419.113 628.439 o
    417.298 626.061 o
    415.679 623.273 o
    414.587 620.654 o
    413.455 618.008 o
    411.433 614.91 o
    408.974 612.144 o
    406.803 609.485 o
    405.231 606.656 o
    404.629 604.359 o
    404.18 601.981 o
    402.964 599.192 o
    401.188 596.572 o
    399.373 593.86 o
    397.754 590.897 o
    396.662 588.425 o
    395.176 585.498 o
    392.475 581.634 o
    389.057 577.743 o
    385.44 573.469 o
    381.933 568.618 o
    379.28 564.344 o
    377.204 560.592 o
    374.959 557.354 o
    373.124 555.291 o
    371.65 553.657 o
    370.615 551.856 o
    370.227 550.221 o
    369.009 547.382 o
    365.77 542.437 o
    361.174 536.461 o
    356.659 530.424 o
    353.38 525.298 o
    352.121 522.157 o
    351.405 519.732 o
    349.517 516.494 o
    346.87 513.104 o
    344.144 509.5 o
    341.812 505.724 o
    340.534 502.602 o
    336.87 493.189 o
    331.339 484.555 o
    322.97 475.262 o
    317.189 469.922 o
    312.156 466.059 o
    309.029 464.58 o
    306.223 463.857 o
    301.996 461.922 o
    297.26 459.148 o
    292.644 456.454 o
    288.78 454.479 o
    286.577 453.716 o
    283.819 451.902 o
    278.47 447.138 o
    271.73 440.499 o
    262.233 431.075 o
    249.601 418.718 o
    236.604 406.278 o
    225.496 395.418 o
    217.541 387.147 o
    214.516 383.284 o
    217.166 380.023 o
    224.181 373.324 o
    234.07 364.634 o
    251.709 349.065 o
    267.909 334.216 o
    280.602 321.905 o
    282.813 319.908 o
    284.788 318.47 o
    286.034 317.921 o
    287.909 316.816 o
    291.282 313.894 o
    295.45 309.773 o
    299.543 305.653 o
    303.003 302.73 o
    305.045 301.625 o
    306.264 300.969 o
    307.568 299.263 o
    308.667 296.918 o
    309.987 294.244 o
    311.27 293.377 o
    312.831 294.202 o
    314.841 294.759 o
    317.582 293.341 o
    321.522 289.675 o
    325.26 286.051 o
    329.13 282.86 o
    332.386 280.804 o
    335.172 278.708 o
    338.048 275.476 o
    340.352 271.932 o
    342.556 268.522 o
    344.847 265.867 o
    346.689 264.508 o
    348.712 263.27 o
    351.185 260.978 o
    353.57 258.171 o
    360.829 251.218 o
    373.112 242.551 o
    389.057 233.184 o
    400.895 226.124 o
    412.647 218.034 o
    423.278 209.647 o
    437.995 196.263 o
    452.434 181.871 o
    460.395 172.711 o
    462.23 170.131 o
    464.475 168.109 o
    466.552 167.098 o
    469.278 164.708 o
    472.939 158.923 o
    477.234 150.259 o
    481.642 141.396 o
    486.224 133.353 o
    489.908 127.989 o
    492.555 124.471 o
    494.442 121.549 o
    495.159 119.841 o
    495.821 118.18 o
    497.575 115.708 o
    500.047 112.961 o
    502.728 109.878 o
    503.279 108.32 o
    501.858 107.891 o
    499.137 106.82 o
    499.634 103.89 o
    503.306 99.562 o
    505.953 96.3734 o
    507.237 92.6107 o
    507.471 87.2505 o
    507.163 82.6071 o
    506.209 79.5228 o
    504.574 78.0164 o
    503.026 76.6769 o
    502.562 73.5589 o
    502.945 67.8768 o
    503.548 61.8187 o
    502.943 59.4533 o
    500.772 59.5483 o
    498.608 59.4545 o
    496.357 58.5541 o
    494.435 57.0131 o
    492.579 55.2375 o
    490.557 54.0216 o
    488.822 53.5733 o
    487.314 53.0379 o
    486.407 51.452 o
    486.106 48.8654 o
    485.805 45.8028 o
    484.414 44.8688 o
    481.217 45.4256 o
    478.557 46.2157 o
    476.575 47.2906 o
    475.604 48.3222 o
    474.137 50.0923 o
    472.908 49.0847 o
    472.888 46.1495 o
    473.297 43.8039 o
    472.417 43.0645 o
    469.811 43.6144 o
    461.365 45.5638 o
    449.95 47.519 o
    441.384 48.503 o
    439.273 48.8377 o
    437.52 49.7381 o
    436.495 51.0381 o
    434.607 53.2772 o
    431.744 52.7799 o
    427.804 49.5894 o
    425.084 47.1568 o
    423.404 47.0156 o
    421.648 49.0462 o
    420.188 50.5743 o
    418.884 51.3806 o
    418.027 51.2189 o
    416.708 51.031 o
    414.457 51.5283 o
    411.69 52.6677 o
    408.783 53.8539 o
    405.907 54.4384 o
    403.723 54.2972 o
    398.064 55.7423 o
    390.372 60.0959 o
    386.522 64.0745 o
    385.759 65.0589 o
    383.784 66.4094 o
    381.091 67.8768 o
    377.835 69.705 o
    374.69 72.265 o
    372.4 74.9381 o
    369.942 78.2337 o
    366.347 82.1442 o
    362.442 85.8017 o
    359.098 89.1916 o
    356.673 92.0675 o
    355.743 93.7687 o
    355.134 95.2153 o
    353.514 97.1504 o
    351.216 99.2005 o
    348.636 101.92 o
    346.735 105.535 o
    345.603 109.702 o
    344.525 113.735 o
    342.757 116.772 o
    340.352 118.755 o
    337.418 121.092 o
    333.508 125.049 o
    329.488 129.799 o
    325.63 134.616 o
    322.122 138.44 o
    319.711 140.482 o
    303.09 154.47 o
    278.634 178.704 o
    260.324 199.327 o
    251.891 210.312 o
    241.416 223.347 o
    231.173 235.539 o
    220.93 247.536 o
    210.455 259.812 o
    202.023 269.759 o
    195.544 277.309 o
    189.974 283.511 o
    186.632 286.959 o
    182.621 290.528 o
    175.25 297.093 o
    166.173 305.247 o
    157.268 313.119 o
    150.395 318.918 o
    147.161 321.361 o
    146.129 320.739 o
    145.9 318.058 o
    146.436 313.214 o
    147.227 304.401 o
    148.302 289.793 o
    149.334 272.656 o
    150.446 256.348 o
    151.481 243.945 o
    152.231 238.255 o
    157.999 208.32 o
    162.816 164.864 o
    163.637 135.05 o
    162.941 126.21 o
    162.403 112.503 o
    162.189 97.0277 o
    161.787 81.3242 o
    161.021 66.9854 o
    160.016 57.1939 o
    158.917 50.5281 o
    157.977 44.3669 o
    157.482 39.9938 o
    155.968 29.7178 o
    153.321 18.4029 o
    150.239 8.85082 o
    147.841 3.96582 o
    144.548 1.36532 o
    138.651 -0.383252 o
    132.354 -1.35472 o
    125.755 -1.40169 o
    118.373 -0.564029 o
    112.396 0.193357 o
    107.451 0.549529 o
    104.612 0.341555 o
    103.198 0.200426 o
    101.982 0.784927 o
    101.172 1.9711 o
    99.6316 3.47817 o
    96.7959 4.86914 o
    93.2047 5.77336 o
    85.8145 8.14345 o
    80.1367 13.1832 o
    74.9182 22.0688 o
    72.4655 28.5065 o
    71.0947 35.4879 o
    70.5728 43.9768 o
    70.097 51.4472 o
    69.0554 57.3267 o
    67.4944 61.1778 o
    61.6523 72.7854 o
    57.0429 86.5658 o
    55.1821 97.9325 o
    54.9546 103.225 o
    54.3231 108.573 o
    53.3717 112.78 o
    52.2329 116.605 o
    50.8891 120.965 o
    49.7503 124.911 o
    48.6383 130.342 o
    47.6036 138.613 o
    46.8536 147.905 o
    45.7147 186.489 o
    44.6129 246.446 o
    44.3185 288.408 o
    43.9972 292.555 o
    43.1909 296.15 o
    42.1457 298.366 o
    39.9077 301.648 o
    38.8325 308.247 o
    38.1627 322.991 o
    37.4661 332.678 o
    36.5656 341.305 o
    35.6276 346.891 o
    33.9865 357.482 o
    31.7759 385.208 o
    28.2047 441.042 o
    27.4874 458.505 o
    27.1714 479.045 o
    27.2991 498.076 o
    27.5472 515.092 o
    27.2312 530.063 o
    26.3935 539.72 o
    21.7498 571.445 o
    19.3911 599.554 o
    18.2458 636.587 o
    17.4957 663.111 o
    16.4611 684.955 o
    15.3491 697.243 o
    13.692 728.118 o
    16.7088 756.102 o
    22.7728 765.864 o
    23.5967 765.884 o
    24.1814 766.871 o
    24.4024 768.58 o
    24.9109 770.704 o
    26.5502 772.068 o
    29.4718 772.745 o
    32.4068 773.454 o
    34.1403 775.053 o
    34.9036 777.814 o
    35.8545 780.58 o
    37.6954 783.678 o
    39.973 786.324 o
    42.144 788.695 o
    43.7162 791.074 o
    44.3185 792.842 o
    45.5299 795.475 o
    48.9636 797.149 o
    54.2773 797.731 o
    56.6086 797.999 o
    58.5841 798.67 o
    59.7091 799.541 o
    60.7872 800.493 o
    62.675 801.124 o
    64.9593 801.352 o
    67.4851 801.887 o
    69.6152 803.473 o
    71.2967 806.059 o
    72.9044 808.887 o
    74.8799 809.989 o
    77.8149 809.681 o
    80.5553 809.258 o
    82.3762 809.802 o
    83.4275 811.31 o
    84.6934 812.657 o
    86.8098 813.645 o
    89.4025 814.026 o
    92.0823 814.247 o
    94.6895 814.832 o
    0 0 z
  EndSpiro
EndSplineSet
Validated: 524321
EndChar

StartChar: i
Encoding: 105 105 19
Width: 240
Flags: W
VStem: 28 42<995.924 1062.9> 42 125<451.291 750.641> 53 144<62.1921 382.954 383.002 424.885 425.048 528.978> 64 133<18.6641 382.954> 72 121<17.0996 376.917>
LayerCount: 2
Fore
SplineSet
51 1066 m 0x80
 54 1073 60 1073 66 1066 c 0
 70 1061 71 1060 70 1044 c 0
 69 1035 66 1026 65 1024 c 0
 61 1019 58 1010 58 1004 c 0
 58 1000 56 999 52 997 c 0
 49 996 45 993 44 991 c 0
 43 987 33 988 24 991 c 0
 13 995 4 1022 12 1029 c 0
 14 1030 15 1033 14 1035 c 0
 13 1037 15 1041 20 1045 c 0
 24 1049 28 1054 28 1055 c 0
 28 1059 38 1063 44 1062 c 0
 47 1061 49 1062 51 1066 c 0x80
99 805 m 0
 100 807 102 810 103 810 c 0
 106 810 127 789 131 782 c 0
 140 767 153 741 156 732 c 0
 162 715 167 677 166 652 c 0
 166 640 166 616 167 599 c 0x40
 168 576 168 567 166 564 c 0
 164 561 165 559 171 551 c 0
 177 542 177 540 174 538 c 0
 171 535 172 529 175 529 c 0
 177 529 181 510 186 476 c 0
 188 459 191 441 192 436 c 0
 193 431 194 427 194 426 c 0
 194 425 195 420 196 415 c 0
 197 409 197 405 196 405 c 0
 195 405 195 403 196 401 c 0
 199 395 199 357 195 350 c 0
 192 345 192 343 195 330 c 0
 197 321 198 310 197 303 c 0
 195 288 195 221 197 208 c 0x20
 198 202 199 194 199 190 c 0
 200 186 201 170 202 154 c 0
 204 127 205 125 201 122 c 0
 194 116 192 107 193 86 c 0
 194 72 193 65 191 64 c 0
 188 63 187 52 187 41 c 0
 187 38 186 35 185 35 c 0
 183 35 183 34 185 32 c 0
 188 29 188 19 185 17 c 0
 184 16 181 17 180 19 c 0
 177 22 177 23 177 20 c 0
 177 18 175 16 173 15 c 0
 170 14 168 13 168 10 c 0
 168 5 163 1 160 4 c 0
 158 7 145 6 139 3 c 0
 133 0 116 2 112 6 c 0
 111 8 105 10 101 11 c 0
 87 15 84 19 82 31 c 0
 81 37 80 41 79 41 c 0
 78 41 74 71 72 96 c 0x08
 72 101 70 108 69 113 c 0
 66 123 64 140 63 157 c 0
 63 163 62 172 61 176 c 0
 60 180 61 184 62 185 c 0
 63 186 64 194 64 203 c 0
 64 212 64 221 64 223 c 0x10
 64 230 60 251 57 256 c 0
 56 259 55 262 56 264 c 0
 57 266 56 273 54 278 c 0
 52 284 51 291 52 302 c 0
 53 312 53 319 52 322 c 0
 50 326 49 327 52 328 c 0
 55 329 55 329 52 333 c 0
 50 335 49 337 51 336 c 0
 53 335 54 336 53 341 c 0
 52 345 51 350 50 354 c 0
 49 359 49 361 53 362 c 0
 59 363 59 362 51 378 c 0
 49 382 49 382 51 383 c 0
 52 383 53 386 53 388 c 0x20
 53 390 54 392 55 392 c 0
 58 392 54 423 51 425 c 0
 50 426 48 428 48 430 c 0
 46 437 45 469 47 469 c 0
 50 469 51 481 48 484 c 0
 44 489 43 499 43 512 c 0
 44 542 43 561 42 576 c 0
 41 590 41 592 44 591 c 0
 48 589 48 593 44 604 c 0
 42 609 41 613 42 614 c 0x40
 42 615 42 620 41 626 c 0
 38 639 31 698 29 728 c 2
 28 751 l 1
 36 767 l 1
 44 784 l 1
 63 793 l 2
 79 801 84 803 90 802 c 0
 96 801 98 801 99 805 c 0
EndSplineSet
Validated: 33
EndChar

StartChar: r
Encoding: 114 114 20
Width: 567
Flags: W
HStem: 27 13<67 68> 724 85<127.071 212.304>
VStem: 25 80<465.429 702.082> 34 104<116.765 309.214> 62 70<39.9375 166.539> 87 13<23.0067 30.8621>
LayerCount: 2
Fore
SplineSet
137 813 m 0xc4
 137 818 141 819 145 815 c 0
 146 814 151 812 155 812 c 0
 166 811 174 810 184 808 c 0
 195 806 226 797 230 795 c 0
 232 794 235 793 237 794 c 0
 242 795 260 788 274 781 c 0
 292 771 322 747 340 726 c 0
 347 717 367 684 375 665 c 0
 377 661 380 654 382 650 c 0
 396 625 398 619 400 602 c 0
 402 583 401 559 398 547 c 0
 389 513 385 502 373 492 c 0
 368 488 363 486 359 486 c 0
 354 486 351 483 341 472 c 0
 331 461 328 457 328 453 c 0
 328 445 316 431 309 431 c 0
 306 431 303 429 299 424 c 0
 295 419 291 417 288 417 c 0
 283 418 276 409 274 401 c 0
 273 398 271 395 270 393 c 0
 268 390 266 390 263 392 c 0
 258 395 257 395 253 386 c 0
 248 376 248 376 245 380 c 0
 243 383 243 381 242 371 c 0
 241 357 237 362 268 336 c 0
 277 328 291 317 298 312 c 0
 305 307 312 300 313 299 c 0
 314 298 320 294 324 291 c 0
 331 286 366 252 387 230 c 0
 392 225 399 215 404 208 c 0
 414 193 416 191 451 153 c 0
 484 118 492 109 505 93 c 0
 510 87 519 77 523 72 c 0
 531 63 537 47 539 34 c 0
 540 28 540 26 535 21 c 0
 532 18 528 16 526 16 c 0
 522 16 523 12 527 11 c 0
 529 10 531 8 531 7 c 0
 531 2 528 2 523 8 c 0
 519 13 518 14 517 11 c 0
 516 9 516 5 518 2 c 0
 522 -4 522 -5 519 -5 c 0
 518 -5 514 -3 513 -1 c 0
 510 3 510 3 502 -0 c 0
 497 -2 493 -3 493 -4 c 0
 493 -5 496 -8 499 -12 c 0
 502 -15 505 -19 505 -20 c 0
 505 -24 499 -23 494 -18 c 0
 490 -14 487 -13 483 -13 c 0
 476 -13 470 -8 447 16 c 0
 438 26 424 40 415 49 c 0
 406 58 392 72 384 81 c 0
 376 89 369 96 368 96 c 0
 367 96 365 98 363 101 c 0
 361 103 358 107 355 108 c 0
 352 110 349 112 349 113 c 0
 349 116 323 143 316 147 c 0
 313 149 310 152 309 154 c 0
 306 160 297 169 293 170 c 0
 291 171 289 173 289 174 c 0
 289 175 286 180 281 185 c 0
 276 190 272 195 272 196 c 0
 272 198 272 198 271 196 c 0
 270 192 264 193 263 197 c 0
 262 199 253 209 241 221 c 0
 229 233 217 247 214 252 c 0
 211 257 205 263 202 266 c 0
 199 269 193 276 188 282 c 0
 183 288 178 293 176 294 c 0
 174 295 163 306 151 319 c 0
 139 332 129 343 128 343 c 0
 127 343 128 339 129 332 c 0
 133 312 138 248 138 195 c 0xd0
 138 168 139 132 140 116 c 0
 142 85 141 69 135 57 c 0
 133 54 132 49 132 48 c 0xc8
 132 47 130 44 129 43 c 0
 128 42 126 39 125 37 c 0
 124 34 123 34 118 37 c 2
 113 41 l 1
 106 33 l 2
 103 29 100 26 100 25 c 0
 100 24 97 23 94 23 c 0
 90 23 88 24 87 27 c 2xc4
 86 31 l 1
 83 27 l 2
 79 23 77 22 75 25 c 0
 74 26 71 27 69 27 c 0
 67 27 67 27 68 28 c 0
 71 30 68 40 65 40 c 0
 64 40 62 42 62 45 c 0xc8
 62 47 62 51 61 53 c 0
 59 59 53 82 52 92 c 0
 51 97 49 107 48 114 c 0
 47 121 43 143 40 164 c 0
 35 194 34 207 34 228 c 0xd0
 34 244 33 263 31 276 c 0
 29 293 28 314 28 369 c 0
 28 408 27 448 26 457 c 0
 25 466 25 482 25 493 c 0
 25 504 25 530 25 551 c 0xe0
 25 572 26 589 27 589 c 0
 28 589 28 589 28 590 c 0
 25 594 34 667 40 694 c 0
 41 699 42 704 43 707 c 0
 44 710 45 713 46 715 c 0
 52 729 55 736 57 738 c 0
 58 739 60 742 59 744 c 0
 58 746 60 751 62 755 c 0xc8
 64 759 66 764 67 767 c 0
 68 773 80 787 84 787 c 0
 85 787 87 788 87 789 c 0
 87 790 89 791 90 791 c 0
 91 791 92 792 92 793 c 0
 92 796 103 806 108 808 c 0
 111 809 118 809 125 809 c 0
 137 808 137 809 137 813 c 0xc4
159 721 m 0
 157 722 152 724 148 724 c 0
 141 724 135 719 133 711 c 0
 132 709 130 705 129 704 c 0
 125 700 120 689 119 682 c 0
 118 678 118 675 117 674 c 0
 116 673 115 670 115 667 c 0
 115 664 114 662 113 661 c 0
 112 660 111 657 111 655 c 0
 111 653 110 648 108 644 c 0
 105 638 105 631 105 598 c 0xe0
 105 577 106 557 107 554 c 0
 110 533 111 505 110 490 c 0
 109 469 110 464 119 466 c 0
 124 467 127 466 133 462 c 0
 137 459 141 457 141 456 c 0
 141 455 148 450 155 444 c 0
 162 438 171 432 173 429 c 0
 179 422 183 422 194 430 c 0
 199 434 203 437 204 437 c 0
 206 437 237 464 247 475 c 0
 253 482 262 490 266 495 c 0
 277 506 289 524 296 536 c 0
 303 549 312 575 311 579 c 0
 310 580 311 584 312 587 c 0
 313 591 313 594 311 598 c 0
 310 601 308 606 307 610 c 0
 306 614 304 619 302 622 c 0
 300 625 297 631 295 635 c 0
 293 639 288 645 284 649 c 0
 261 669 238 688 230 692 c 0
 214 701 199 709 196 709 c 0
 195 709 191 710 188 712 c 0
 185 714 179 716 173 717 c 0
 167 718 161 720 159 721 c 0
EndSplineSet
Validated: 33
EndChar

StartChar: a
Encoding: 97 97 21
Width: 517
Flags: W
HStem: 266 90<166.054 237.953>
VStem: 92 18<3.31392 10.25> 221 115<477.742 555.383> 227 122<435.618 550.498> 239 126<392.589 514.689> 388 92<46.5674 105.013>
LayerCount: 2
Fore
SplineSet
184 767 m 0xcc
 188 768 193 770 193 770 c 0
 195 771 205 762 215 752 c 0
 222 745 228 740 229 740 c 0
 232 740 239 730 246 718 c 0
 264 684 280 652 281 646 c 0
 282 642 284 635 287 630 c 0
 293 619 296 615 317 571 c 0
 325 555 331 540 331 539 c 0
 331 538 333 535 334 534 c 0
 335 533 336 532 336 531 c 0xe4
 336 530 339 523 342 516 c 0
 345 509 349 502 349 501 c 0xd4
 349 500 350 497 352 493 c 0
 356 485 365 461 365 457 c 0
 365 456 366 452 367 449 c 0
 369 444 371 437 378 414 c 0
 379 409 382 402 383 400 c 0
 384 398 386 392 387 389 c 0
 388 386 392 373 396 360 c 0
 400 347 405 332 407 325 c 0
 409 318 411 310 412 307 c 0
 415 297 422 279 425 272 c 0
 430 262 437 238 436 237 c 0
 435 236 436 234 437 233 c 0
 439 231 442 215 445 197 c 0
 446 194 448 190 449 189 c 0
 451 186 461 160 467 141 c 0
 472 126 476 102 474 100 c 0
 473 99 474 96 475 92 c 0
 477 86 481 59 480 53 c 0
 480 51 478 50 477 50 c 0
 476 50 473 48 472 47 c 0
 470 45 469 45 466 46 c 0
 461 48 450 46 446 42 c 0
 444 40 441 39 440 39 c 0
 435 39 428 35 427 32 c 0
 426 30 425 28 422 27 c 0
 419 26 414 25 412 24 c 0
 406 21 400 24 393 33 c 0
 390 37 388 41 388 42 c 0
 388 43 385 48 383 53 c 0
 381 58 378 65 377 70 c 0
 373 86 368 101 354 132 c 0
 353 134 350 142 346 151 c 0
 342 160 338 170 337 173 c 0
 336 176 331 188 327 201 c 0
 322 214 317 228 315 233 c 0
 313 238 311 244 311 246 c 0
 311 248 311 251 310 253 c 0
 309 255 307 261 307 265 c 0
 306 274 305 275 301 273 c 0
 299 272 296 272 294 272 c 0
 292 272 283 270 275 268 c 0
 258 264 224 264 204 266 c 0
 191 268 188 267 186 265 c 0
 183 262 183 262 181 265 c 0
 179 267 178 268 175 266 c 0
 173 264 170 264 168 265 c 0
 166 266 165 267 164 266 c 0
 164 265 158 265 152 265 c 0
 146 265 142 264 141 264 c 0
 141 263 139 255 137 245 c 0
 135 235 134 225 134 223 c 0
 131 208 127 178 124 151 c 0
 120 119 116 94 112 78 c 0
 111 73 110 62 110 55 c 0
 110 43 107 24 102 7 c 0
 101 2 100 0 96 0 c 0
 94 0 92 1 92 2 c 0
 92 3 91 4 89 3 c 0
 86 2 85 3 85 6 c 0
 85 10 84 11 72 13 c 0
 65 14 57 15 54 16 c 0
 51 17 47 18 44 18 c 0
 41 18 39 18 39 19 c 0
 39 20 37 22 35 22 c 0
 31 23 31 24 29 34 c 0
 28 42 27 49 28 57 c 0
 29 63 31 74 32 82 c 0
 33 90 35 102 36 110 c 0
 38 120 37 125 35 130 c 0
 31 143 35 175 47 210 c 0
 51 223 55 243 57 262 c 0
 58 271 59 281 60 283 c 0
 61 285 62 297 64 309 c 0
 66 321 69 336 70 344 c 0
 72 352 74 367 75 378 c 0
 77 389 80 410 83 424 c 0
 86 438 89 455 90 461 c 0
 91 467 94 483 96 496 c 0
 98 509 100 527 100 537 c 0
 101 566 108 626 110 629 c 0
 111 630 112 638 113 647 c 0
 114 656 116 667 117 672 c 0
 118 677 119 688 120 695 c 0
 124 722 126 727 142 742 c 0
 157 756 167 762 184 767 c 0xcc
209 551 m 0
 208 554 208 556 207 556 c 0
 205 556 204 552 203 538 c 0
 202 532 199 520 197 511 c 0
 193 493 191 481 187 460 c 0
 184 443 181 432 178 420 c 0
 173 402 168 379 166 360 c 0
 166 357 167 357 191 356 c 0
 231 355 233 355 235 353 c 0
 236 352 237 353 238 354 c 0
 239 356 263 354 270 352 c 0
 274 350 274 351 274 354 c 0
 274 359 269 374 263 389 c 0
 260 396 257 403 256 406 c 0
 255 409 253 413 252 416 c 0
 251 419 249 422 248 423 c 0
 246 424 246 428 246 435 c 0
 246 444 245 446 242 447 c 0
 240 448 239 449 239 453 c 0xcc
 239 456 236 467 233 477 c 0
 230 487 227 497 227 498 c 0xd4
 227 499 225 504 224 508 c 0
 223 512 221 518 221 520 c 0
 221 522 218 529 215 535 c 0
 212 541 210 548 209 551 c 0
EndSplineSet
Validated: 33
EndChar

StartChar: n
Encoding: 110 110 22
Width: 566
Flags: W
VStem: 385 110<311.883 568.67> 393 121<378.318 695.116> 402 118<427.859 709.831> 412 109<466.818 720.385> 420 108<553.526 730.907> 433 92<665 779.242>
LayerCount: 2
Fore
SplineSet
504 783 m 0x04
 505 787 512 787 512 783 c 0
 512 781 513 778 514 777 c 0x40
 516 776 517 776 519 780 c 0
 522 786 526 785 525 778 c 0
 525 775 525 769 525 764 c 0
 525 759 524 754 523 753 c 0
 522 752 523 746 525 739 c 0x04
 529 726 529 709 528 662 c 0x08
 528 652 528 651 525 652 c 0x04
 523 653 523 652 524 648 c 0
 525 645 525 638 526 632 c 0
 527 622 527 622 524 625 c 0
 520 629 519 628 521 622 c 0
 523 616 523 604 521 601 c 0x10
 520 599 521 597 522 595 c 0
 524 593 523 591 522 590 c 0
 521 589 520 584 520 579 c 0x20
 520 574 519 569 518 569 c 0
 517 569 516 566 517 563 c 0
 518 560 517 556 516 555 c 0
 515 554 514 546 514 537 c 0x40
 514 525 513 520 511 519 c 0
 509 517 508 516 510 513 c 0
 511 510 511 507 510 504 c 0
 509 501 508 497 509 494 c 0
 510 491 509 488 508 486 c 0
 507 484 506 479 506 473 c 0
 505 455 500 428 498 428 c 0
 497 428 496 425 497 418 c 0
 498 413 498 407 497 405 c 0
 496 403 495 400 495 397 c 0x80
 494 387 490 371 488 368 c 0
 487 366 487 363 487 360 c 0
 487 357 486 351 485 347 c 0
 482 335 480 326 476 296 c 0
 474 281 473 269 472 268 c 0
 472 267 471 261 470 254 c 0
 469 241 459 207 449 184 c 0
 446 178 443 167 442 160 c 0
 441 153 438 140 437 133 c 0
 436 126 435 116 434 113 c 0
 432 101 427 78 425 73 c 0
 424 69 423 68 420 69 c 0x08
 418 70 414 67 407 60 c 0
 401 54 395 50 394 51 c 0
 390 53 384 49 382 41 c 0
 381 37 379 34 378 33 c 0
 377 32 375 31 375 29 c 0
 375 25 367 24 365 28 c 0
 363 32 353 36 350 34 c 0
 349 33 346 33 343 35 c 0
 340 36 337 38 335 38 c 0
 333 38 327 43 321 49 c 0
 308 62 305 70 301 107 c 0
 299 120 297 132 297 133 c 0
 296 134 296 144 295 154 c 0
 294 164 292 174 291 178 c 0
 290 182 288 192 286 201 c 0
 284 210 280 225 277 234 c 0
 272 252 266 275 266 279 c 0
 266 280 264 285 262 289 c 0
 260 293 259 297 259 298 c 0
 259 299 258 303 256 306 c 0
 255 309 253 315 253 320 c 0
 253 325 252 329 251 330 c 0
 250 331 250 334 250 337 c 0
 250 340 248 347 246 351 c 0
 244 355 242 359 242 361 c 0
 242 363 240 374 237 386 c 0
 234 398 232 410 232 414 c 0
 232 418 230 424 229 429 c 0
 227 434 226 445 225 453 c 0
 224 466 218 504 216 511 c 0
 215 513 214 512 213 511 c 0
 211 509 209 498 203 468 c 0
 198 444 197 438 193 426 c 0
 189 415 181 381 179 367 c 0
 178 358 174 345 171 337 c 0
 169 333 169 327 169 326 c 0
 169 324 167 320 165 316 c 0
 156 295 150 271 148 253 c 0
 146 230 145 226 143 208 c 0
 140 181 131 148 123 132 c 0
 120 127 119 119 118 100 c 0
 116 70 112 50 104 34 c 0
 95 15 93 13 89 12 c 0
 87 11 83 8 80 5 c 0
 75 0 72 -1 72 2 c 0
 72 3 69 4 67 4 c 0
 64 5 63 5 62 2 c 0
 61 -2 57 -2 57 2 c 0
 57 6 50 9 41 8 c 0
 36 8 34 8 34 10 c 0
 34 11 33 13 32 13 c 0
 31 13 30 12 31 11 c 0
 33 8 30 8 26 11 c 0
 23 13 23 15 25 28 c 0
 26 36 27 45 28 48 c 0
 29 51 29 57 28 63 c 0
 27 73 31 133 33 139 c 0
 34 141 36 142 37 143 c 0
 38 144 39 147 39 150 c 0
 39 155 38 155 37 153 c 0
 35 151 35 151 36 154 c 0
 37 156 38 161 38 164 c 0
 40 176 40 178 43 178 c 0
 45 178 46 180 46 185 c 0
 46 196 54 233 64 272 c 0
 66 280 68 284 72 304 c 0
 74 313 77 325 78 330 c 0
 79 335 81 346 83 354 c 0
 85 362 88 378 91 389 c 0
 94 400 98 414 99 419 c 0
 100 424 103 435 105 442 c 0
 107 449 109 459 110 465 c 0
 115 484 119 497 122 507 c 0
 124 512 125 519 125 522 c 0
 125 527 130 553 133 564 c 0
 134 568 135 574 135 578 c 0
 136 589 140 610 142 616 c 0
 143 619 143 624 143 628 c 0
 143 632 144 640 146 647 c 0
 148 654 150 663 151 667 c 0
 152 671 154 678 156 682 c 0
 159 687 160 692 160 698 c 0
 160 706 161 707 164 706 c 0
 170 705 172 708 171 715 c 0
 170 723 173 727 179 726 c 0
 182 725 183 725 183 726 c 0
 183 727 185 728 186 728 c 0
 187 728 188 729 188 730 c 0
 188 731 189 732 190 732 c 0
 191 732 197 735 202 738 c 0
 207 741 215 745 220 746 c 0
 227 748 229 748 235 745 c 0
 242 741 245 736 248 721 c 0
 253 697 258 678 260 675 c 0
 262 673 264 664 267 649 c 0
 268 644 274 629 278 619 c 0
 279 616 283 607 285 601 c 0
 287 594 291 583 294 576 c 0
 297 569 300 556 301 546 c 0
 302 536 304 527 305 526 c 0
 306 525 307 513 309 499 c 0
 311 485 313 468 314 462 c 0
 315 456 318 439 321 426 c 0
 327 399 331 378 333 364 c 0
 334 359 336 352 337 348 c 0
 338 344 341 334 342 327 c 0
 348 301 357 270 358 271 c 0
 359 272 359 275 359 279 c 0
 359 291 363 319 365 322 c 0
 366 323 368 330 368 337 c 0
 369 346 369 351 371 353 c 0
 373 355 375 361 376 369 c 0
 377 376 379 392 381 403 c 0
 384 414 385 424 385 425 c 0x80
 385 426 386 439 388 455 c 0
 390 471 393 491 393 498 c 0x40
 393 505 393 512 394 513 c 0
 395 514 396 525 396 537 c 0
 397 553 398 559 400 561 c 0
 402 563 402 565 401 570 c 0
 400 574 400 579 401 583 c 0
 402 586 402 593 402 597 c 0x20
 402 601 403 604 404 604 c 0
 406 604 408 618 409 646 c 0
 410 663 411 671 412 672 c 0x10
 413 673 414 676 414 683 c 0
 414 691 414 695 417 699 c 0
 419 702 420 707 420 708 c 0x08
 420 709 422 710 423 710 c 0
 424 710 426 712 426 713 c 0
 426 714 427 716 429 717 c 0
 431 718 435 720 436 723 c 0
 439 729 439 730 436 729 c 0
 434 728 433 729 433 731 c 0
 433 733 435 734 436 735 c 0
 438 736 438 739 438 747 c 0
 438 753 439 763 441 768 c 0
 444 776 445 777 448 776 c 0
 450 776 453 777 455 779 c 0
 459 783 473 783 477 780 c 0
 478 779 480 780 481 782 c 0
 482 784 484 785 485 783 c 0
 486 782 489 781 494 780 c 0
 501 779 503 780 504 783 c 0x04
EndSplineSet
Validated: 33
EndChar

StartChar: b
Encoding: 98 98 23
Width: 463
Flags: W
HStem: 6 99<143.285 245.284> 19 94<194.194 259.547> 31 106<222.881 297.392>
VStem: 20 104<575.055 633.857 634.093 712.859> 28 101<446.139 574.952> 37 103<104.46 333.4> 37 102<104.314 250.093 285.526 355.861> 286 87<332.319 370.491> 297 98<503.697 573.94> 337 77<172.672 303.334>
LayerCount: 2
Fore
SplineSet
119 802 m 0x90
 126 803 135 804 140 803 c 0
 159 800 211 788 222 783 c 0
 224 782 230 780 235 778 c 0
 240 776 246 773 248 772 c 0
 250 771 252 770 253 771 c 0
 254 772 259 768 264 763 c 0
 278 750 281 748 289 745 c 0
 295 743 303 736 325 714 c 0
 381 658 388 649 390 625 c 0
 391 619 393 610 395 606 c 0
 400 594 403 579 400 577 c 0
 399 576 399 575 400 574 c 0
 403 573 401 554 398 551 c 0
 397 549 395 545 395 542 c 0x8480
 395 529 383 496 374 486 c 0
 371 482 367 475 366 471 c 0
 365 467 360 461 356 457 c 0
 351 452 349 448 349 445 c 0
 349 442 349 441 348 442 c 0
 347 445 343 445 337 440 c 0x8040
 332 436 332 436 334 433 c 0
 338 428 351 401 351 398 c 0
 351 397 352 396 353 396 c 0
 355 396 373 363 373 359 c 0x81
 373 358 375 354 378 352 c 0
 381 350 384 346 385 343 c 0
 386 340 389 338 391 337 c 0
 393 336 397 331 400 324 c 0
 403 317 407 312 409 311 c 0
 412 310 414 308 413 302 c 0
 413 301 413 296 415 292 c 0
 424 267 427 226 420 212 c 0
 418 208 416 201 416 198 c 0
 416 195 416 191 415 190 c 0
 414 189 414 188 414 186 c 0
 415 184 413 179 410 174 c 0
 407 169 405 163 405 160 c 0
 405 154 400 136 393 125 c 0
 391 122 389 117 389 116 c 0
 389 115 385 109 379 103 c 0
 373 97 366 89 362 85 c 0
 358 81 355 77 355 76 c 0
 355 75 353 73 351 72 c 0
 349 71 344 67 341 64 c 0
 338 61 332 58 328 57 c 0
 324 56 318 54 314 51 c 0
 290 34 283 30 281 31 c 0x2040
 280 32 273 30 265 28 c 0
 257 26 247 24 243 24 c 0
 238 24 236 23 235 22 c 0
 234 21 231 19 227 19 c 0x4040
 223 19 218 18 216 17 c 0
 214 16 207 13 200 12 c 0
 193 11 187 9 185 8 c 0
 183 7 181 7 180 8 c 0
 179 9 175 9 171 8 c 0
 167 7 161 6 158 6 c 0
 155 6 149 4 146 3 c 0
 142 1 140 1 133 2 c 0
 127 3 123 3 121 2 c 0
 118 0 117 1 114 4 c 0
 111 7 110 7 108 5 c 0
 106 3 106 3 104 5 c 0
 102 7 101 6 99 3 c 0
 97 1 94 -1 91 -1 c 0
 87 -1 87 -1 88 -4 c 0
 90 -9 86 -9 84 -4 c 0
 83 -2 83 0 83 1 c 0
 84 3 76 7 73 6 c 0
 71 5 71 5 71 8 c 0
 71 10 70 13 68 14 c 0
 65 16 65 21 64 35 c 0
 63 59 60 74 56 82 c 0
 54 87 52 98 50 117 c 0
 48 132 46 148 45 153 c 0
 43 158 43 163 44 165 c 0
 45 167 45 169 44 170 c 0
 43 171 43 174 43 178 c 0
 42 184 40 220 39 238 c 0
 39 243 38 270 37 300 c 0x8440
 36 330 36 355 36 356 c 0
 35 357 35 372 34 389 c 0
 33 406 32 426 31 435 c 0
 30 444 28 454 28 459 c 0x88
 28 464 27 471 25 477 c 0
 23 485 22 497 21 525 c 0
 20 546 20 565 19 568 c 0
 18 571 19 574 20 575 c 0
 21 576 21 588 20 606 c 0
 19 622 19 636 20 637 c 0
 22 640 21 662 18 684 c 0
 16 700 14 729 15 732 c 0
 15 733 15 738 16 743 c 0
 16 748 17 754 17 757 c 0
 17 760 19 762 20 763 c 0
 21 764 22 767 22 768 c 0
 22 769 24 772 27 773 c 0
 30 774 33 776 34 777 c 0
 35 778 39 779 41 779 c 0
 43 779 47 781 50 782 c 0
 53 783 56 785 57 784 c 0
 58 783 60 785 62 788 c 0
 64 791 66 794 67 795 c 0
 69 796 99 800 119 802 c 0x90
125 714 m 0
 120 715 114 716 112 717 c 0
 108 718 107 717 106 713 c 0
 105 710 106 707 108 705 c 0
 109 703 111 696 112 690 c 0
 113 684 115 675 116 672 c 0
 117 669 118 662 118 657 c 0
 118 652 119 645 120 643 c 0
 121 640 121 639 119 638 c 0
 117 637 118 636 120 634 c 0
 123 631 123 625 124 605 c 0x1080
 124 598 125 590 126 586 c 0
 127 581 126 578 125 578 c 0
 122 578 123 575 126 569 c 0
 130 562 130 537 126 532 c 0
 125 530 125 529 127 528 c 0
 129 527 130 524 130 514 c 0
 130 507 131 500 132 499 c 0
 133 498 135 494 134 490 c 0
 133 484 132 484 131 488 c 0
 130 492 127 493 127 490 c 0
 127 486 132 476 134 475 c 0
 137 474 137 463 135 454 c 0
 134 449 133 448 130 449 c 0
 127 450 126 449 128 446 c 0
 131 441 135 441 141 446 c 0
 143 448 149 451 152 453 c 0
 162 458 195 468 202 468 c 0
 212 468 243 480 257 489 c 0
 264 494 270 498 270 499 c 0
 270 500 271 502 274 503 c 0
 277 504 279 505 279 506 c 0
 279 508 292 522 295 522 c 0
 296 522 297 524 297 526 c 0
 297 528 299 533 302 537 c 0
 307 544 308 548 310 564 c 0
 312 582 312 583 308 594 c 0
 306 601 302 610 299 613 c 0
 296 617 293 622 291 625 c 0
 289 628 286 632 285 633 c 0
 284 634 282 636 282 637 c 0
 282 638 281 641 278 643 c 0
 275 645 269 649 264 653 c 0
 259 657 252 664 247 667 c 0
 242 670 239 675 239 676 c 0
 239 677 238 678 237 678 c 0
 236 678 231 680 228 683 c 0
 221 689 216 691 218 686 c 0
 219 684 216 681 212 681 c 0
 211 681 209 684 208 687 c 0
 206 691 204 692 197 693 c 0
 192 694 188 693 187 693 c 0
 186 693 184 689 183 684 c 0
 182 679 179 673 178 671 c 0
 173 662 160 668 158 680 c 0
 156 688 153 694 144 700 c 0
 140 703 137 707 136 709 c 0
 135 712 133 713 125 714 c 0
131 468 m 0
 130 469 130 470 129 470 c 0
 129 470 129 469 129 468 c 0x08
 129 467 130 466 131 466 c 0
 132 466 132 467 131 468 c 0
247 374 m 0
 246 377 245 379 243 379 c 0
 238 379 237 377 238 371 c 0
 241 350 241 350 237 350 c 0
 229 350 216 356 215 359 c 0
 214 362 214 362 213 358 c 0
 212 355 210 354 206 354 c 0
 203 354 197 353 193 353 c 0
 173 352 159 353 154 355 c 0
 145 360 141 360 136 356 c 0
 133 353 132 352 134 352 c 0
 138 352 139 349 139 334 c 0x23
 139 321 140 321 136 324 c 0
 133 327 132 327 132 324 c 0
 132 321 137 296 140 285 c 0
 140 284 139 282 138 282 c 0
 134 282 134 280 136 275 c 0
 139 268 139 246 137 250 c 0
 136 252 135 253 134 252 c 0
 131 250 133 227 142 160 c 0
 143 150 144 135 143 122 c 0
 142 100 143 98 150 102 c 0
 152 103 162 105 172 105 c 0x84
 182 105 190 106 190 107 c 0
 190 108 192 108 194 107 c 0
 198 106 211 110 214 112 c 0
 215 113 217 113 219 113 c 0x44
 221 113 223 114 223 115 c 0
 223 116 224 117 227 117 c 0
 230 117 233 118 236 120 c 0
 240 123 242 122 243 120 c 0
 244 118 244 119 244 123 c 0
 244 126 245 128 247 128 c 0
 248 128 250 129 250 130 c 0
 250 131 251 131 253 131 c 0
 255 131 257 133 258 134 c 0
 259 135 261 137 262 137 c 0
 263 137 264 138 264 139 c 0
 264 141 278 147 280 146 c 0
 281 145 281 147 281 148 c 0
 281 149 282 150 285 151 c 0
 288 152 290 154 290 155 c 0
 290 156 292 157 294 158 c 0
 298 159 308 166 315 173 c 0
 317 174 320 177 322 178 c 0
 335 186 347 239 339 250 c 0
 338 252 337 255 337 258 c 0x2440
 337 265 328 285 319 297 c 0
 315 303 311 308 311 310 c 0
 311 311 311 312 310 312 c 0
 308 312 299 327 298 334 c 0
 297 337 294 342 291 345 c 0
 288 348 286 351 286 352 c 0x21
 286 353 285 355 284 357 c 0
 283 359 282 363 280 367 c 0
 276 376 273 377 269 372 c 0
 266 369 265 369 263 371 c 0
 261 373 260 373 258 370 c 0
 254 365 249 367 247 374 c 0
EndSplineSet
Validated: 33
EndChar

StartChar: d
Encoding: 100 100 24
Width: 618
Flags: W
HStem: 50 59<154 172.813> 617 114<317.168 372.631> 625 130<295.156 363.448> 703 12<22.3395 40.9517> 717 18<40.6881 44.9139>
VStem: 65 31<645.41 661.862> 153 102<397.455 657.952> 161 107<213.071 657.792> 169 111<213.071 607.531> 178 111<139.955 192.944 193.01 212.951> 417 118<205.552 257.952> 440 104<279.048 450.996> 445 116<279.048 450.996>
LayerCount: 2
Fore
SplineSet
96 788 m 0x9e
 105 790 113 790 114 788 c 0
 115 787 119 786 125 786 c 0
 157 787 245 777 260 772 c 0
 265 770 270 769 271 770 c 0
 272 771 273 770 275 769 c 0
 277 768 283 764 290 762 c 0
 297 760 304 758 305 757 c 0
 306 756 309 755 311 755 c 0xa6
 313 755 317 754 320 752 c 0
 323 750 329 749 333 748 c 0
 337 747 340 746 341 745 c 0
 342 744 349 742 354 740 c 0
 360 738 365 735 367 734 c 0
 369 732 371 731 372 731 c 0
 373 731 377 728 381 725 c 0
 385 722 392 718 396 716 c 0
 405 712 411 705 423 693 c 0
 427 689 435 682 439 678 c 0
 449 669 471 648 476 641 c 0
 486 629 502 601 508 587 c 0
 510 583 515 574 518 568 c 0
 525 554 534 530 542 504 c 0
 545 493 550 478 552 471 c 0
 554 464 557 445 558 429 c 0
 559 413 560 394 561 387 c 0
 562 374 562 352 561 339 c 0xc608
 561 336 560 326 559 318 c 0
 558 310 556 300 555 297 c 0
 553 294 551 286 550 279 c 0
 549 270 548 267 546 267 c 0
 544 267 543 265 544 257 c 0xc410
 545 247 545 246 539 242 c 0
 536 239 534 237 535 235 c 0
 536 233 534 230 533 229 c 0
 532 227 531 224 532 222 c 0
 533 220 531 216 529 214 c 0
 527 212 525 208 525 207 c 0
 525 206 525 203 523 202 c 0
 521 201 520 198 521 196 c 0
 522 194 521 192 520 192 c 0
 519 192 516 189 514 185 c 0
 512 181 510 178 509 178 c 0
 508 178 506 174 505 169 c 0
 501 156 498 151 495 151 c 0
 494 151 493 150 493 149 c 0
 493 148 490 144 487 140 c 0
 484 136 480 130 477 126 c 0
 474 122 468 114 464 109 c 0
 460 104 456 98 456 97 c 0
 456 96 453 94 450 93 c 0
 447 92 443 89 441 87 c 0
 439 85 434 82 430 80 c 0
 426 77 423 73 422 70 c 0
 421 65 408 56 401 56 c 0
 395 56 381 48 380 44 c 0
 379 42 377 39 371 38 c 0
 366 37 361 35 359 34 c 0
 358 32 355 31 353 31 c 0
 351 31 347 30 346 28 c 0
 345 26 342 25 341 25 c 0
 340 25 337 24 336 23 c 0
 335 21 331 18 326 17 c 0
 321 16 315 14 313 13 c 0
 311 12 308 12 306 13 c 0
 302 15 295 12 293 9 c 0
 292 8 289 7 285 7 c 0
 281 7 277 6 276 5 c 0
 275 4 270 4 265 4 c 0
 260 4 254 3 251 2 c 0
 247 1 244 2 238 6 c 0
 233 9 230 13 231 15 c 0
 232 19 229 21 217 22 c 0
 198 23 177 29 172 35 c 0
 165 43 154 50 150 50 c 0
 147 50 147 50 150 55 c 0
 153 59 154 65 154 84 c 0
 154 107 154 109 158 109 c 0
 160 109 163 109 164 109 c 0
 165 109 169 110 173 111 c 0
 180 113 184 120 180 123 c 0
 178 124 177 127 178 133 c 0xc460
 179 140 178 142 176 144 c 0
 173 147 172 155 174 179 c 0
 174 187 174 194 173 195 c 0
 172 196 172 200 172 204 c 0
 172 208 170 212 169 213 c 0
 166 214 167 248 169 298 c 0xc480
 171 336 169 388 166 396 c 0
 164 400 164 403 165 406 c 0
 166 408 167 411 166 412 c 0
 165 413 164 421 164 428 c 0
 164 435 163 451 162 464 c 0
 161 486 161 493 161 501 c 0xc5
 161 503 161 508 160 513 c 0
 159 518 158 527 159 533 c 0
 160 539 159 545 158 548 c 0
 156 552 153 619 153 670 c 0
 153 679 149 685 145 683 c 0
 144 682 136 683 127 685 c 0
 112 688 110 688 106 685 c 0
 104 683 102 679 102 677 c 0
 102 675 101 671 99 670 c 0
 97 669 96 665 96 663 c 0
 96 657 82 643 77 645 c 0
 71 647 66 652 65 658 c 0
 64 663 62 664 59 663 c 0
 48 660 44 659 46 662 c 0
 47 663 47 665 45 666 c 0
 43 668 43 669 47 672 c 0
 50 674 53 676 55 676 c 0
 57 676 58 677 57 678 c 0
 56 679 54 680 52 679 c 0
 49 678 48 679 48 681 c 0
 48 683 51 684 54 685 c 0
 61 686 62 689 57 691 c 0
 55 692 54 694 54 696 c 0
 54 701 44 706 41 703 c 0
 40 702 37 701 34 702 c 0
 31 703 28 704 26 703 c 0
 24 702 23 703 23 706 c 0
 23 708 22 710 21 711 c 0
 19 712 20 713 23 715 c 0
 27 717 30 717 35 714 c 0
 41 711 45 711 45 715 c 0
 45 716 43 717 40 717 c 0
 34 717 34 719 39 722 c 0
 42 724 42 724 40 727 c 0
 37 731 39 735 44 735 c 0
 47 735 48 737 48 741 c 0
 48 745 50 749 58 757 c 0
 74 774 90 787 96 788 c 0x9e
285 653 m 0
 273 658 253 661 249 658 c 0
 247 657 247 654 248 651 c 0
 249 648 250 642 250 637 c 0
 250 632 252 625 253 622 c 0
 254 619 255 615 255 614 c 0xa608
 255 613 257 609 259 604 c 0
 261 599 262 595 261 593 c 0
 260 591 260 588 261 586 c 0
 262 584 263 578 264 573 c 0
 265 568 266 559 266 555 c 0
 267 551 268 541 268 533 c 0xa5
 268 525 269 517 270 516 c 0
 272 514 275 464 275 453 c 0
 274 419 275 381 278 365 c 0
 280 354 281 343 280 340 c 0xa480
 279 336 280 334 282 332 c 0
 284 331 285 329 284 328 c 0
 284 327 285 322 286 315 c 0
 288 308 289 291 289 276 c 0
 289 262 290 237 290 222 c 0
 290 207 291 193 290 193 c 0
 289 192 288 179 289 148 c 0
 289 140 290 139 295 140 c 0
 298 141 302 143 303 145 c 0
 305 147 308 147 311 146 c 0
 315 145 319 147 334 157 c 0
 344 164 355 170 356 170 c 0
 357 170 363 174 368 180 c 0
 373 185 378 190 379 190 c 0
 382 190 415 227 417 233 c 0xa460
 417 234 419 237 421 238 c 0
 422 239 424 243 424 245 c 0
 424 247 425 249 426 249 c 0
 427 249 428 251 428 253 c 0
 428 255 429 257 430 258 c 0
 431 259 431 264 431 268 c 0
 431 275 432 276 435 277 c 0
 438 278 438 278 436 279 c 0
 434 280 434 282 437 287 c 0
 439 291 440 295 440 297 c 0xa410
 439 301 442 316 444 320 c 0
 445 323 446 323 446 320 c 0
 446 318 447 319 448 322 c 0
 449 325 450 328 449 329 c 0
 447 332 445 359 445 398 c 0
 445 415 444 430 443 432 c 0
 442 434 442 435 444 436 c 0
 446 437 445 438 443 443 c 0
 441 446 440 451 441 451 c 0
 442 452 432 491 428 498 c 0
 426 501 426 504 427 505 c 0
 428 506 427 509 425 512 c 0
 423 515 422 519 422 521 c 0
 422 523 420 526 419 526 c 0
 417 527 418 527 420 529 c 0
 422 531 422 532 420 535 c 0
 419 537 415 542 413 547 c 0
 411 552 408 556 407 556 c 0
 406 556 405 558 405 560 c 0
 405 562 403 566 400 569 c 0
 397 571 393 575 391 577 c 0
 389 579 387 580 385 580 c 0
 383 580 381 581 381 584 c 0
 381 586 379 590 376 592 c 0
 373 594 366 600 360 606 c 0
 354 612 348 617 347 617 c 0xc408
 346 617 343 619 342 621 c 0
 341 623 338 625 337 625 c 0
 335 625 330 628 326 631 c 0
 318 637 312 639 311 635 c 0
 310 631 304 634 303 641 c 0
 302 647 301 647 298 644 c 0
 295 641 296 641 296 645 c 0
 296 648 293 650 285 653 c 0
EndSplineSet
Validated: 33
EndChar

StartChar: e
Encoding: 101 101 25
Width: 444
Flags: W
HStem: 5 138<142 177.999 178 361.707> 63 11<400.994 417.254> 322 141<157.126 320.858> 327 116<157.126 337.786> 343 14<340.726 347.91>
VStem: 34 108<142 319.607> 47 107<460.195 620> 156 11<617.14 620> 183 6<814.862 818.999>
LayerCount: 2
Fore
SplineSet
153 817 m 0x8580
 155 822 177 820 181 815 c 0
 183 812 184 812 183 817 c 0
 183 818 184 819 186 819 c 0
 188 819 189 817 189 815 c 0
 189 812 193 811 205 808 c 0
 213 806 224 804 229 803 c 0
 234 802 239 801 240 800 c 0
 242 799 273 795 305 793 c 0
 338 791 345 790 347 788 c 0
 348 787 354 786 360 785 c 0
 372 784 382 778 384 770 c 0
 385 768 390 764 395 761 c 0
 405 756 406 753 398 749 c 0
 395 748 394 747 395 746 c 0
 396 745 398 741 399 737 c 0
 400 733 401 730 402 730 c 0
 403 730 404 726 404 721 c 0
 404 716 404 711 405 709 c 0
 406 707 405 704 404 702 c 0
 402 700 402 699 406 696 c 0
 408 694 410 691 410 690 c 0
 410 688 411 686 413 685 c 0
 418 681 417 678 411 675 c 0
 408 674 406 671 407 669 c 0
 408 667 407 666 406 666 c 0
 403 666 399 662 397 657 c 0
 396 655 395 654 393 655 c 0
 390 656 387 653 385 646 c 0
 384 642 384 641 390 641 c 0
 396 641 395 641 385 637 c 0
 379 635 365 631 355 628 c 0
 345 625 335 620 333 618 c 0
 329 614 330 614 326 618 c 0
 324 620 320 621 318 620 c 0
 316 619 313 620 311 621 c 0
 308 622 291 623 273 624 c 0
 255 625 240 625 238 626 c 0
 236 627 235 626 234 624 c 0
 233 622 230 621 226 621 c 0
 221 621 220 622 220 625 c 0
 220 631 217 630 214 624 c 0
 212 619 210 619 200 619 c 0
 194 619 187 617 183 616 c 0
 174 612 162 613 161 617 c 0
 160 620 156 622 156 620 c 0
 156 620 155 592 154 559 c 0
 153 515 151 496 149 490 c 0
 145 479 147 464 152 460 c 0
 154 458 156 458 157 460 c 0
 159 464 205 465 218 461 c 0
 224 459 230 458 231 459 c 0
 232 460 233 459 233 458 c 0
 233 454 241 454 249 456 c 0
 254 457 258 460 258 461 c 0
 258 464 268 466 271 464 c 0
 272 463 276 463 279 463 c 0xa380
 283 463 289 462 292 461 c 0
 299 458 299 459 309 450 c 0
 313 447 318 443 321 443 c 0x1380
 326 442 340 427 340 422 c 0
 340 421 343 417 347 413 c 0
 353 406 353 406 349 403 c 0
 345 400 345 400 350 399 c 0
 353 398 354 396 354 394 c 0
 354 392 355 389 356 387 c 0
 359 384 358 379 351 371 c 0
 349 369 348 366 349 365 c 0
 351 362 346 357 341 357 c 0
 335 357 339 352 345 351 c 0
 354 349 353 343 344 343 c 0x0b80
 335 343 332 341 333 336 c 0
 334 333 332 332 325 330 c 0
 320 329 312 327 307 327 c 0x1380
 302 327 292 325 286 324 c 0
 279 322 267 321 253 322 c 0x2380
 241 323 224 324 214 325 c 0
 204 326 187 326 176 326 c 2
 156 327 l 1
 152 320 l 2
 147 312 144 280 143 194 c 2
 142 142 l 1
 155 143 l 2x9580
 162 143 169 144 170 145 c 0
 173 147 193 148 222 149 c 0
 250 150 256 151 298 155 c 0
 311 156 334 157 352 156 c 0
 381 155 384 154 387 150 c 0
 388 148 392 146 393 146 c 0
 397 146 396 141 393 139 c 0
 391 138 393 137 396 135 c 0
 402 132 403 129 401 97 c 0
 401 92 399 85 398 83 c 0
 394 77 395 74 400 74 c 0
 402 74 404 73 405 72 c 0
 406 71 409 70 412 70 c 0
 418 70 422 65 418 63 c 0
 417 62 412 62 407 63 c 0x4580
 400 64 397 63 395 61 c 0
 391 57 392 56 399 56 c 0
 407 56 404 51 395 49 c 0
 389 47 386 45 385 41 c 0
 384 38 383 36 381 36 c 0
 379 36 377 35 376 34 c 0
 375 33 373 34 372 35 c 0
 370 37 368 36 367 32 c 0
 365 26 351 23 323 21 c 0
 314 20 304 19 302 18 c 0
 297 16 274 12 256 11 c 0
 248 10 241 10 239 9 c 0
 227 4 180 -1 178 3 c 0
 178 4 176 3 174 2 c 0
 172 0 157 0 152 3 c 0
 151 4 145 5 140 5 c 0
 129 6 118 10 99 20 c 0
 84 27 78 26 86 17 c 0
 89 14 91 12 90 11 c 0
 89 10 76 22 67 34 c 0
 64 38 59 41 57 41 c 0
 55 41 52 43 49 45 c 0
 46 47 42 49 39 50 c 0
 37 51 35 53 35 55 c 0
 35 60 40 70 43 71 c 0
 45 72 46 73 43 78 c 0
 39 86 37 100 36 118 c 0
 36 125 35 140 34 151 c 0
 33 165 33 181 35 197 c 0
 39 230 38 308 34 339 c 0x8580
 29 375 27 444 31 480 c 0
 35 516 37 525 39 534 c 0
 40 538 42 551 43 562 c 0
 44 573 45 588 46 595 c 0
 47 602 47 611 47 614 c 0x8380
 47 618 49 627 51 635 c 0
 53 643 55 652 55 655 c 0
 55 657 58 664 60 671 c 0
 65 684 65 695 62 701 c 0
 61 703 60 707 61 708 c 0
 62 709 62 723 62 738 c 0
 62 766 65 775 71 775 c 0
 73 775 74 776 75 778 c 0
 76 779 79 781 82 781 c 0
 86 781 88 782 88 785 c 0
 90 794 103 802 114 800 c 0
 116 800 117 801 118 802 c 0
 120 806 138 812 142 811 c 0
 144 810 146 811 146 812 c 0
 146 813 147 815 149 815 c 0
 151 815 152 815 153 817 c 0x8580
171 618 m 0
 171 619 170 621 169 622 c 0
 168 623 167 622 167 620 c 0
 167 618 168 617 169 617 c 0
 170 617 171 617 171 618 c 0
EndSplineSet
Validated: 33
EndChar

StartChar: l
Encoding: 108 108 26
Width: 479
Flags: W
HStem: -4 110<163.887 434.692> 5 112<151 195.533 225.16 440.768> 797 1<122 137>
VStem: 38 136<240.265 751.439> 38 113<118 552.995> 80 79<743.942 784.903>
LayerCount: 2
Fore
SplineSet
139 802 m 0x64
 144 807 149 806 152 799 c 0
 154 794 154 793 150 790 c 2
 145 786 l 1
 150 785 l 2
 156 783 159 776 159 763 c 0x64
 159 757 161 741 164 727 c 0
 177 662 180 638 174 557 c 0x70
 174 555 172 545 171 534 c 0
 169 514 168 506 166 471 c 0
 166 462 165 453 164 452 c 0
 163 451 162 437 162 422 c 0
 162 407 161 393 160 392 c 0
 157 388 155 349 155 322 c 0
 155 307 154 281 153 264 c 0
 150 223 149 174 150 143 c 2
 151 118 l 1x68
 159 117 l 2x64
 163 117 167 115 168 114 c 0
 169 112 170 112 172 114 c 0
 174 116 176 116 177 114 c 0
 178 113 186 112 196 112 c 0
 211 112 212 112 210 109 c 0
 208 106 209 106 224 106 c 0
 249 106 258 105 284 110 c 0
 312 115 327 117 360 118 c 0
 373 119 396 120 410 121 c 0
 434 123 436 124 441 120 c 0
 447 116 454 103 460 85 c 0
 462 80 465 75 466 74 c 0
 468 73 469 70 469 65 c 0
 469 58 468 56 462 54 c 0
 456 52 453 44 458 41 c 0
 461 39 461 26 458 26 c 0
 457 26 454 26 453 26 c 0
 452 26 447 24 444 22 c 0
 440 19 435 18 425 18 c 0
 418 18 402 16 389 14 c 0
 376 11 349 9 329 8 c 0
 309 7 292 4 291 3 c 0
 288 0 239 -4 215 -4 c 0xa4
 196 -4 185 -2 173 1 c 0
 167 3 160 5 148 7 c 0
 145 8 139 7 135 5 c 0
 131 3 127 2 126 3 c 0
 125 4 119 5 113 5 c 0
 98 6 92 7 79 13 c 0
 53 26 46 32 44 47 c 0
 43 53 42 59 41 61 c 0
 39 63 38 81 38 125 c 0x68
 38 159 37 188 36 189 c 0
 35 190 36 192 37 193 c 0
 38 194 38 195 37 197 c 0
 36 199 35 217 35 237 c 0
 35 257 34 274 33 276 c 0
 32 278 32 281 33 283 c 0
 34 285 34 291 33 297 c 0
 32 303 32 314 33 322 c 0
 34 330 35 340 35 345 c 0
 35 367 35 377 37 379 c 0
 38 380 39 391 38 404 c 0x70
 36 441 36 493 39 538 c 0
 42 585 43 603 40 618 c 0
 38 630 42 650 47 656 c 0
 49 658 50 661 49 664 c 0
 48 668 50 706 54 727 c 0
 58 749 60 754 70 764 c 0
 75 770 80 776 80 777 c 0
 80 778 82 780 84 780 c 0
 86 780 90 782 92 785 c 0
 99 794 107 797 122 798 c 0
 131 798 136 799 139 802 c 0x64
141 795 m 0
 140 796 138 797 137 797 c 0
 136 797 135 796 136 795 c 0
 137 794 139 792 140 792 c 0
 141 792 142 794 141 795 c 0
229 110 m 0
 229 109 231 108 233 109 c 0
 235 110 236 111 236 111 c 0
 236 111 235 112 233 112 c 0
 231 112 229 111 229 110 c 0
EndSplineSet
Validated: 33
EndChar

StartChar: u
Encoding: 117 117 27
Width: 480
Flags: W
HStem: 2 115<231 288.95>
VStem: 19 103<509.071 785.579> 28 100<580.06 785.097> 50 53<763.305 803.035> 71 79<228.355 457.178> 105 101<118.281 184.984> 308 105<120.997 241.968 532.915 689.997> 326 118<173 626.632>
LayerCount: 2
Fore
SplineSet
352 832 m 2x81
 359 841 362 841 366 833 c 0
 368 830 371 825 373 824 c 0
 375 823 376 818 377 813 c 0
 378 808 380 799 382 793 c 0
 388 774 394 745 397 721 c 0
 399 707 401 698 403 695 c 0
 405 693 406 691 406 690 c 0
 406 690 406 686 408 681 c 0
 410 676 413 666 414 659 c 0
 415 652 418 641 420 634 c 0
 422 627 423 615 424 607 c 0
 428 577 431 558 434 543 c 0
 436 534 437 513 438 496 c 0
 439 479 440 458 441 449 c 0
 444 423 446 325 444 305 c 0x81
 441 278 436 242 433 230 c 0
 432 224 429 212 428 203 c 0
 424 182 419 160 416 155 c 0
 415 153 413 149 413 146 c 0
 411 136 399 107 394 100 c 0
 391 96 389 92 389 91 c 0
 389 87 349 44 345 44 c 0
 344 44 341 40 338 36 c 0
 334 30 332 28 329 29 c 0
 327 29 320 27 315 24 c 0
 283 6 271 2 259 2 c 0
 246 2 219 7 217 10 c 0
 216 11 210 15 203 18 c 0
 196 21 187 27 183 31 c 0
 178 35 172 41 169 43 c 0
 166 45 164 48 164 49 c 0
 164 50 160 53 156 56 c 0
 151 59 149 62 149 66 c 0
 149 69 148 71 147 70 c 0
 144 68 141 73 142 78 c 0
 143 80 142 82 140 82 c 0
 138 82 136 83 136 84 c 0
 136 85 135 88 133 89 c 0
 131 90 129 96 129 100 c 0
 129 104 127 109 125 111 c 0
 123 113 121 119 120 124 c 0
 119 129 117 135 116 137 c 0
 110 150 105 160 105 164 c 0
 105 166 104 168 103 169 c 0x96
 102 170 101 172 102 174 c 0
 103 176 102 178 101 180 c 0
 100 181 98 187 97 193 c 0
 96 199 95 204 94 205 c 0
 93 206 92 209 92 211 c 0
 92 212 92 217 91 222 c 0
 90 227 88 235 88 241 c 0
 88 247 87 252 86 253 c 0
 84 254 84 260 81 281 c 0
 80 286 80 294 79 299 c 0
 78 304 77 309 77 311 c 0
 77 313 76 319 74 326 c 0
 72 333 71 342 71 348 c 0x88
 71 353 70 362 69 366 c 0
 68 370 66 382 65 394 c 0
 61 427 62 425 67 426 c 0
 72 427 72 428 65 431 c 0
 54 436 50 444 48 461 c 0
 45 487 42 508 40 516 c 0
 39 520 38 526 39 528 c 0
 40 530 39 534 38 536 c 0
 33 549 30 566 28 600 c 0xa0
 28 609 26 619 25 622 c 0
 19 639 16 675 19 693 c 0xc0
 20 700 22 718 23 733 c 0
 26 765 30 777 43 787 c 0
 46 790 50 792 50 793 c 0
 50 794 55 797 60 800 c 0
 68 804 72 804 81 803 c 0
 92 802 103 795 103 789 c 0x90
 103 787 104 786 106 785 c 0
 108 784 109 780 110 776 c 0
 111 772 113 766 114 764 c 0
 115 762 116 754 116 746 c 0
 116 738 119 725 120 715 c 0
 121 705 122 695 122 691 c 0xc0
 122 675 122 672 124 667 c 0
 125 664 127 644 128 622 c 0xa0
 129 600 131 581 131 580 c 0
 132 578 135 556 139 517 c 0
 140 505 142 487 143 478 c 0
 147 446 149 417 150 388 c 0x88
 151 372 152 357 153 355 c 0
 154 353 155 350 154 347 c 0
 153 344 156 329 159 313 c 0
 162 297 165 282 165 277 c 0
 168 249 178 196 182 188 c 0
 189 176 200 152 200 150 c 0
 200 148 201 147 203 147 c 0
 205 147 206 146 206 145 c 0
 206 144 212 138 219 130 c 2
 231 115 l 1
 252 117 l 2
 263 117 275 118 279 119 c 0
 283 120 288 122 289 121 c 0
 292 120 305 140 305 146 c 0
 305 148 306 154 308 159 c 0x86
 312 172 315 186 317 206 c 0
 318 216 320 230 321 237 c 0
 323 249 325 291 326 343 c 0
 326 354 326 375 325 391 c 0
 324 407 323 440 323 465 c 0
 323 490 322 516 321 524 c 0
 320 532 319 547 319 559 c 0
 316 627 315 632 309 651 c 0
 306 662 301 676 299 684 c 0
 296 692 294 703 293 708 c 0
 292 713 290 721 289 724 c 0
 287 727 286 731 287 733 c 0
 288 735 287 737 286 739 c 0
 285 741 282 745 282 749 c 0
 282 753 281 758 280 762 c 0
 279 769 281 776 284 776 c 0
 288 776 297 788 301 802 c 0
 304 812 306 816 309 817 c 0
 311 818 314 820 315 823 c 0
 318 829 318 829 334 826 c 2
 345 824 l 1
 352 832 l 2x81
EndSplineSet
Validated: 33
EndChar
